<svg width="48" height="48" viewBox="0 0 48 48" xmlns="http://www.w3.org/2000/svg">
    <path
        d="M24.6417 28.4347C19.7795 28.4347 17.0062 25.1014 16.8906 19.5547H19.3262C19.4062 23.6258 21.2017 25.3502 22.624 25.7058V19.5547H24.9173V23.0658C26.3217 22.9147 27.7973 21.3147 28.2951 19.5547H30.5884C30.4008 20.4675 30.0269 21.3317 29.4901 22.0934C28.9532 22.8551 28.265 23.4978 27.4684 23.9814C28.3576 24.4232 29.143 25.0486 29.7727 25.8162C30.4024 26.5838 30.8622 27.4763 31.1217 28.4347H28.5973C28.3643 27.6023 27.8909 26.8571 27.2362 26.2926C26.5816 25.7281 25.7749 25.3694 24.9173 25.2614V28.4347H24.6417V28.4347Z"
        fill="white" />
</svg>