<svg width="60" height="60" viewBox="0 0 60 60" xmlns="http://www.w3.org/2000/svg">
    <path fill-rule="evenodd" clip-rule="evenodd"
        d="M31.4463 23.957C31.2863 25.1575 31.4452 26.952 32.5017 28.4254C32.7285 28.7416 32.9921 29.0369 33.2953 29.3047H19.7144V30.8047H33.3216C33.0073 31.0786 32.735 31.3817 32.5017 31.707C31.4452 33.1804 31.2863 34.9749 31.4463 36.1754L32.9332 35.9771C32.8075 35.0347 32.9486 33.6578 33.7207 32.5812C34.354 31.698 35.4857 30.9148 37.5204 30.8167C37.8078 30.8287 38.1068 30.829 38.4179 30.8168C38.4695 30.8192 38.5217 30.8219 38.5743 30.8249L38.5752 30.8097C38.6042 30.8082 38.6332 30.8066 38.6624 30.8049L38.6189 30.0662L38.6624 29.3275C38.6332 29.3258 38.6042 29.3242 38.5752 29.3227L38.5743 29.3074C38.5734 29.3075 38.5724 29.3076 38.5715 29.3076V29.3047H37.3348C35.4164 29.1692 34.3345 28.4072 33.7207 27.5512C32.9486 26.4746 32.8075 25.0977 32.9332 24.1553L31.4463 23.957Z" />
</svg>