<svg xmlns="http://www.w3.org/2000/svg" viewBox="0 0 24 24">
    <path
        d="M23.22,22.25h-.19V8.06c0-.26-.21-.48-.47-.48H13.32c-.26,0-.47,.21-.47,.48v14.19h-.7V1.27c0-.26-.21-.48-.48-.48H2.44c-.26,0-.48,.21-.48,.48V22.25h-.19c-.26,0-.48,.21-.48,.47s.21,.48,.48,.48H23.22c.26,0,.48-.21,.48-.48s-.21-.47-.48-.47Zm-1.14-13.72v13.72H13.8V8.53h8.29ZM11.2,1.75V22.25H2.91V1.75H11.2Z" />
    <path
        d="M4.33,5.27c.21,0,.38-.17,.38-.37v-1.42c0-.21-.17-.37-.38-.37s-.37,.17-.37,.37v1.42c0,.21,.17,.37,.37,.37Z" />
    <path
        d="M6.15,5.27c.21,0,.38-.17,.38-.37v-1.42c0-.21-.17-.37-.38-.37s-.37,.17-.37,.37v1.42c0,.21,.17,.37,.37,.37Z" />
    <path
        d="M7.97,5.27c.21,0,.38-.17,.38-.37v-1.42c0-.21-.17-.37-.38-.37s-.37,.17-.37,.37v1.42c0,.21,.17,.37,.37,.37Z" />
    <path
        d="M9.78,5.27c.21,0,.38-.17,.38-.37v-1.42c0-.21-.17-.37-.38-.37s-.37,.17-.37,.37v1.42c0,.21,.17,.37,.37,.37Z" />
    <path
        d="M4.33,8.43c.21,0,.38-.17,.38-.37v-1.42c0-.21-.17-.37-.38-.37s-.37,.17-.37,.37v1.42c0,.21,.17,.37,.37,.37Z" />
    <path
        d="M6.15,8.43c.21,0,.38-.17,.38-.37v-1.42c0-.21-.17-.37-.38-.37s-.37,.17-.37,.37v1.42c0,.21,.17,.37,.37,.37Z" />
    <path
        d="M7.97,8.43c.21,0,.38-.17,.38-.37v-1.42c0-.21-.17-.37-.38-.37s-.37,.17-.37,.37v1.42c0,.21,.17,.37,.37,.37Z" />
    <path
        d="M9.78,8.43c.21,0,.38-.17,.38-.37v-1.42c0-.21-.17-.37-.38-.37s-.37,.17-.37,.37v1.42c0,.21,.17,.37,.37,.37Z" />
    <path
        d="M4.33,11.59c.21,0,.38-.17,.38-.38v-1.42c0-.21-.17-.37-.38-.37s-.37,.17-.37,.37v1.42c0,.21,.17,.38,.37,.38Z" />
    <path
        d="M6.15,11.59c.21,0,.38-.17,.38-.38v-1.42c0-.21-.17-.37-.38-.37s-.37,.17-.37,.37v1.42c0,.21,.17,.38,.37,.38Z" />
    <path
        d="M7.97,11.59c.21,0,.38-.17,.38-.38v-1.42c0-.21-.17-.37-.38-.37s-.37,.17-.37,.37v1.42c0,.21,.17,.38,.37,.38Z" />
    <path
        d="M9.78,11.59c.21,0,.38-.17,.38-.38v-1.42c0-.21-.17-.37-.38-.37s-.37,.17-.37,.37v1.42c0,.21,.17,.38,.37,.38Z" />
    <path
        d="M4.33,14.76c.21,0,.38-.17,.38-.38v-1.42c0-.21-.17-.37-.38-.37s-.37,.17-.37,.37v1.42c0,.21,.17,.38,.37,.38Z" />
    <path
        d="M6.15,14.76c.21,0,.38-.17,.38-.38v-1.42c0-.21-.17-.37-.38-.37s-.37,.17-.37,.37v1.42c0,.21,.17,.38,.37,.38Z" />
    <path
        d="M7.97,14.76c.21,0,.38-.17,.38-.38v-1.42c0-.21-.17-.37-.38-.37s-.37,.17-.37,.37v1.42c0,.21,.17,.38,.37,.38Z" />
    <path
        d="M9.78,14.76c.21,0,.38-.17,.38-.38v-1.42c0-.21-.17-.37-.38-.37s-.37,.17-.37,.37v1.42c0,.21,.17,.38,.37,.38Z" />
    <path
        d="M4.33,17.92c.21,0,.38-.17,.38-.38v-1.42c0-.21-.17-.38-.38-.38s-.37,.17-.37,.38v1.42c0,.21,.17,.38,.37,.38Z" />
    <path
        d="M6.15,17.92c.21,0,.38-.17,.38-.38v-1.42c0-.21-.17-.38-.38-.38s-.37,.17-.37,.38v1.42c0,.21,.17,.38,.37,.38Z" />
    <path
        d="M7.97,17.92c.21,0,.38-.17,.38-.38v-1.42c0-.21-.17-.38-.38-.38s-.37,.17-.37,.38v1.42c0,.21,.17,.38,.37,.38Z" />
    <path
        d="M9.78,17.92c.21,0,.38-.17,.38-.38v-1.42c0-.21-.17-.38-.38-.38s-.37,.17-.37,.38v1.42c0,.21,.17,.38,.37,.38Z" />
    <path
        d="M4.33,21.09c.21,0,.38-.17,.38-.37v-1.42c0-.21-.17-.38-.38-.38s-.37,.17-.37,.38v1.42c0,.21,.17,.37,.37,.37Z" />
    <path
        d="M6.15,21.09c.21,0,.38-.17,.38-.37v-1.42c0-.21-.17-.38-.38-.38s-.37,.17-.37,.38v1.42c0,.21,.17,.37,.37,.37Z" />
    <path
        d="M7.97,21.09c.21,0,.38-.17,.38-.37v-1.42c0-.21-.17-.38-.38-.38s-.37,.17-.37,.38v1.42c0,.21,.17,.37,.37,.37Z" />
    <path
        d="M9.78,21.09c.21,0,.38-.17,.38-.37v-1.42c0-.21-.17-.38-.38-.38s-.37,.17-.37,.38v1.42c0,.21,.17,.37,.37,.37Z" />
    <path
        d="M15.22,11.59c.21,0,.37-.17,.37-.38v-1.42c0-.21-.17-.37-.37-.37s-.38,.17-.38,.37v1.42c0,.21,.17,.38,.38,.38Z" />
    <path
        d="M17.03,11.59c.21,0,.37-.17,.37-.38v-1.42c0-.21-.17-.37-.37-.37s-.38,.17-.38,.37v1.42c0,.21,.17,.38,.38,.38Z" />
    <path
        d="M18.85,11.59c.21,0,.38-.17,.38-.38v-1.42c0-.21-.17-.37-.38-.37s-.38,.17-.38,.37v1.42c0,.21,.17,.38,.38,.38Z" />
    <path
        d="M20.67,11.59c.21,0,.38-.17,.38-.38v-1.42c0-.21-.17-.37-.38-.37s-.38,.17-.38,.37v1.42c0,.21,.17,.38,.38,.38Z" />
    <path
        d="M15.22,14.76c.21,0,.37-.17,.37-.38v-1.42c0-.21-.17-.37-.37-.37s-.38,.17-.38,.37v1.42c0,.21,.17,.38,.38,.38Z" />
    <path
        d="M17.03,14.76c.21,0,.37-.17,.37-.38v-1.42c0-.21-.17-.37-.37-.37s-.38,.17-.38,.37v1.42c0,.21,.17,.38,.38,.38Z" />
    <path
        d="M18.85,14.76c.21,0,.38-.17,.38-.38v-1.42c0-.21-.17-.37-.38-.37s-.38,.17-.38,.37v1.42c0,.21,.17,.38,.38,.38Z" />
    <path
        d="M20.67,14.76c.21,0,.38-.17,.38-.38v-1.42c0-.21-.17-.37-.38-.37s-.38,.17-.38,.37v1.42c0,.21,.17,.38,.38,.38Z" />
    <path
        d="M15.22,17.92c.21,0,.37-.17,.37-.38v-1.42c0-.21-.17-.38-.37-.38s-.38,.17-.38,.38v1.42c0,.21,.17,.38,.38,.38Z" />
    <path
        d="M17.03,17.92c.21,0,.37-.17,.37-.38v-1.42c0-.21-.17-.38-.37-.38s-.38,.17-.38,.38v1.42c0,.21,.17,.38,.38,.38Z" />
    <path
        d="M18.85,17.92c.21,0,.38-.17,.38-.38v-1.42c0-.21-.17-.38-.38-.38s-.38,.17-.38,.38v1.42c0,.21,.17,.38,.38,.38Z" />
    <path
        d="M20.67,17.92c.21,0,.38-.17,.38-.38v-1.42c0-.21-.17-.38-.38-.38s-.38,.17-.38,.38v1.42c0,.21,.17,.38,.38,.38Z" />
    <path
        d="M15.22,21.09c.21,0,.37-.17,.37-.37v-1.42c0-.21-.17-.38-.37-.38s-.38,.17-.38,.38v1.42c0,.21,.17,.37,.38,.37Z" />
    <path
        d="M17.03,21.09c.21,0,.37-.17,.37-.37v-1.42c0-.21-.17-.38-.37-.38s-.38,.17-.38,.38v1.42c0,.21,.17,.37,.38,.37Z" />
    <path
        d="M18.85,21.09c.21,0,.38-.17,.38-.37v-1.42c0-.21-.17-.38-.38-.38s-.38,.17-.38,.38v1.42c0,.21,.17,.37,.38,.37Z" />
    <path
        d="M20.67,21.09c.21,0,.38-.17,.38-.37v-1.42c0-.21-.17-.38-.38-.38s-.38,.17-.38,.38v1.42c0,.21,.17,.37,.38,.37Z" />
</svg>