<svg xmlns="http://www.w3.org/2000/svg" viewBox="0 0 24 24">
    <path
        d="M12,23.33c-.15,0-.31-.06-.42-.18L2.73,14.32c-1.15-1.15-1.79-2.68-1.79-4.31s.63-3.16,1.79-4.31,2.68-1.79,4.31-1.79,3.16,.63,4.31,1.79l.64,.64,.64-.64c.57-.57,1.23-1.01,1.98-1.32,1.49-.62,3.18-.62,4.67,0,.74,.31,1.41,.75,1.98,1.32,.57,.57,1.02,1.24,1.32,1.98,.31,.74,.46,1.53,.46,2.33s-.16,1.59-.46,2.33c-.31,.74-.75,1.41-1.32,1.98l-8.84,8.84c-.12,.12-.27,.18-.42,.18ZM7.05,5.1c-1.31,0-2.54,.51-3.47,1.44s-1.44,2.16-1.44,3.47,.51,2.54,1.44,3.47l8.42,8.42,8.42-8.42c.46-.46,.82-.99,1.06-1.59,.25-.6,.37-1.23,.37-1.88s-.13-1.28-.37-1.88c-.25-.6-.6-1.13-1.06-1.59t0,0c-.46-.46-.99-.81-1.59-1.06-1.2-.5-2.55-.5-3.75,0-.6,.25-1.13,.6-1.59,1.06l-1.06,1.06c-.23,.23-.61,.23-.85,0l-1.06-1.06c-.93-.93-2.16-1.44-3.47-1.44Z" />
</svg>