<svg xmlns="http://www.w3.org/2000/svg" viewBox="0 0 24 24">
    <path
        d="M21.74,2.26c-.1-.1-.24-.16-.38-.16H2.64c-.14,0-.28,.06-.38,.16s-.16,.24-.16,.38V21.36c0,.14,.06,.28,.16,.38,.1,.1,.24,.16,.38,.16H21.36c.14,0,.28-.06,.38-.16,.1-.1,.16-.24,.16-.38V2.64c0-.14-.06-.28-.16-.38Zm-6.48,1.95c-.2-.2-.56-.2-.76,0-.1,.1-.16,.24-.16,.38v5.87c0,.14,.06,.28,.16,.38,.2,.2,.56,.2,.76,0,.1-.1,.16-.24,.16-.38v-.77h5.4v11.13H12.54v-5.46h6.09c.14,0,.28-.06,.38-.16,.1-.1,.16-.24,.16-.38s-.06-.28-.16-.38-.24-.16-.38-.16H5.36c-.14,0-.28,.06-.38,.16-.1,.1-.16,.24-.16,.38s.06,.28,.16,.38c.1,.1,.24,.16,.38,.16h6.09v5.46H3.18V9.68h5.62c.14,0,.28-.06,.38-.16,.1-.1,.16-.24,.16-.38s-.06-.28-.16-.38-.24-.16-.38-.16H3.18V3.18H20.82v5.43h-5.4V4.59c0-.14-.06-.28-.16-.38Z" />
</svg>