<svg xmlns="http://www.w3.org/2000/svg" viewBox="0 0 24 24">

    <path
        d="M2.99,15.45c.47,.47,1.11,.73,1.78,.73s1.31-.26,1.78-.73c.47-.47,.74-1.1,.74-1.76s-.26-1.29-.74-1.76c-.47-.47-1.11-.73-1.78-.73s-1.31,.26-1.78,.73c-.47,.47-.74,1.1-.74,1.76s.26,1.29,.74,1.76Zm.82-2.71c.25-.25,.6-.39,.96-.39s.7,.14,.96,.39c.25,.25,.4,.59,.4,.95s-.14,.7-.4,.95c-.25,.25-.6,.39-.96,.39s-.7-.14-.96-.39c-.25-.25-.4-.59-.4-.95s.14-.7,.4-.95Z" />
    <path
        d="M13.17,18.5c-.47-.47-1.11-.73-1.78-.73s-1.31,.26-1.78,.73c-.47,.47-.74,1.1-.74,1.76s.26,1.29,.74,1.76c.47,.47,1.11,.73,1.78,.73s1.31-.26,1.78-.73c.47-.47,.74-1.1,.74-1.76s-.26-1.29-.74-1.76Zm-.82,2.71c-.25,.25-.6,.39-.96,.39s-.7-.14-.96-.39c-.25-.25-.4-.59-.4-.95s.14-.7,.4-.95c.25-.25,.6-.39,.96-.39s.7,.14,.96,.39c.25,.25,.4,.59,.4,.95s-.14,.7-.4,.95Z" />
    <path
        d="M12.8,12.87c0-.15-.06-.3-.17-.4-.11-.11-.26-.17-.41-.17s-.3,.06-.41,.17L3.53,20.68c-.1,.11-.15,.25-.15,.4,0,.15,.06,.29,.17,.39,.11,.1,.25,.17,.4,.17,.15,0,.29-.05,.4-.15L12.63,13.27c.11-.11,.17-.25,.17-.4Z" />
    <path
        d="M15.74,.82s-.02-.01-.03-.02h0s-.04-.03-.05-.05h0c-.07-.07-.14-.12-.21-.18-.02-.01-.03-.02-.05-.03h0s-.06-.03-.06-.03l-.06-.04h0c-.06-.04-.11-.06-.15-.08-.19-.08-.4-.12-.61-.13h0s-.06,0-.09-.01c-.02,0-.04,0-.05,0H7.53c-.52,0-1.02,.21-1.39,.57-.37,.36-.57,.86-.57,1.37v7.49c.41,.08,.8,.22,1.16,.41V2.19c0-.21,.09-.42,.24-.56,.15-.15,.35-.23,.57-.23h6.88V6.57c0,.51,.21,1.01,.57,1.37,.37,.36,.87,.57,1.39,.57h5.22v11.2c0,.21-.09,.42-.24,.56-.15,.15-.35,.23-.57,.23h-5.28c-.02,.4-.11,.78-.24,1.14h5.52c.52,0,1.02-.2,1.39-.57,.37-.36,.57-.86,.57-1.37V8.57c0-.51-.21-1.01-.57-1.37L15.74,.82Zm.63,6.55c-.21,0-.42-.08-.57-.23-.15-.15-.24-.35-.24-.56V2.27l5.14,5.1h-4.34Z" />
</svg>