<svg width="40" height="40" viewBox="0 0 40 40" xmlns="http://www.w3.org/2000/svg">
    <path fill-rule="evenodd" clip-rule="evenodd"
        d="M12.5 16C12.5 15.7239 12.7239 15.5 13 15.5H27C27.2761 15.5 27.5 15.7239 27.5 16C27.5 16.2761 27.2761 16.5 27 16.5H13C12.7239 16.5 12.5 16.2761 12.5 16Z" />
    <path fill-rule="evenodd" clip-rule="evenodd"
        d="M12.5 20C12.5 19.7239 12.7239 19.5 13 19.5H27C27.2761 19.5 27.5 19.7239 27.5 20C27.5 20.2761 27.2761 20.5 27 20.5H13C12.7239 20.5 12.5 20.2761 12.5 20Z" />
    <path fill-rule="evenodd" clip-rule="evenodd"
        d="M12.5 24C12.5 23.7239 12.7239 23.5 13 23.5H27C27.2761 23.5 27.5 23.7239 27.5 24C27.5 24.2761 27.2761 24.5 27 24.5H13C12.7239 24.5 12.5 24.2761 12.5 24Z" />
</svg>