<svg width="41" height="40" viewBox="0 0 41 40" xmlns="http://www.w3.org/2000/svg">

    <path fill-rule="evenodd" clip-rule="evenodd"
        d="M17.5406 16.271C17.3454 16.0757 17.0288 16.0757 16.8335 16.271C16.6383 16.4662 16.6383 16.7828 16.8335 16.9781L19.855 19.9995L16.833 23.0214C16.6378 23.2167 16.6378 23.5333 16.833 23.7286C17.0283 23.9238 17.3449 23.9238 17.5402 23.7286L20.5621 20.7066L23.5839 23.7285C23.7792 23.9237 24.0958 23.9237 24.291 23.7285C24.4863 23.5332 24.4863 23.2166 24.291 23.0214L21.2692 19.9995L24.2906 16.9781C24.4858 16.7829 24.4858 16.4663 24.2906 16.271C24.0953 16.0758 23.7787 16.0758 23.5835 16.271L20.5621 19.2924L17.5406 16.271Z" />

</svg>