<svg width="40" height="40" viewBox="0 0 40 40" xmlns="http://www.w3.org/2000/svg">
    <path
        d="M25.5 15H15C14.8674 15 14.7402 15.0527 14.6464 15.1464C14.5527 15.2402 14.5 15.3674 14.5 15.5V21.5C14.5009 22.2954 14.8173 23.0579 15.3797 23.6203C15.9421 24.1827 16.7046 24.4991 17.5 24.5H21C21.7954 24.4991 22.5579 24.1827 23.1203 23.6203C23.6827 23.0579 23.9991 22.2954 24 21.5V19H24.5625C25.0762 18.9994 25.5687 18.7951 25.9319 18.4319C26.2951 18.0687 26.4994 17.5762 26.5 17.0625V16C26.5 15.7348 26.3946 15.4804 26.2071 15.2929C26.0196 15.1054 25.7652 15 25.5 15ZM25.5 17.0625C25.5 17.3111 25.4012 17.5496 25.2254 17.7254C25.0496 17.9012 24.8111 18 24.5625 18H24V16H25.5V17.0625ZM24.5 25.5H14C13.8674 25.5 13.7402 25.5527 13.6464 25.6464C13.5527 25.7402 13.5 25.8674 13.5 26C13.5 26.1326 13.5527 26.2598 13.6464 26.3536C13.7402 26.4473 13.8674 26.5 14 26.5H24.5C24.6326 26.5 24.7598 26.4473 24.8536 26.3536C24.9473 26.2598 25 26.1326 25 26C25 25.8674 24.9473 25.7402 24.8536 25.6464C24.7598 25.5527 24.6326 25.5 24.5 25.5Z" />
</svg>