<svg width="40" height="40" viewBox="0 0 40 40" xmlns="http://www.w3.org/2000/svg">
    <path
        d="M24.9987 19.3333C24.9987 18.694 24.5454 18.1593 23.9447 18.0307C24.1847 17.63 24.332 17.1667 24.332 16.6667C24.332 15.196 23.136 14 21.6654 14C20.6547 14 19.784 14.5713 19.332 15.4027C18.88 14.5713 18.0094 14 16.9987 14C15.528 14 14.332 15.196 14.332 16.6667C14.332 17.268 14.54 17.8173 14.8767 18.264C14.7084 18.387 14.5714 18.5479 14.4768 18.7337C14.3821 18.9194 14.3326 19.1249 14.332 19.3333V24.6667C14.332 25.402 14.93 26 15.6654 26H23.6654C24.4007 26 24.9987 25.402 24.9987 24.6667V22.9087L27.6654 24.242V19.5753L24.9987 20.9087V19.3333ZM21.6654 15.3333C22.4007 15.3333 22.9987 15.9313 22.9987 16.6667C22.9987 17.402 22.4007 18 21.6654 18C20.93 18 20.332 17.402 20.332 16.6667C20.332 15.9313 20.93 15.3333 21.6654 15.3333ZM16.9987 15.3333C17.734 15.3333 18.332 15.9313 18.332 16.6667C18.332 17.402 17.734 18 16.9987 18C16.2634 18 15.6654 17.402 15.6654 16.6667C15.6654 15.9313 16.2634 15.3333 16.9987 15.3333Z" />
</svg>