<svg  viewBox="0 0 60 60" fill="none" xmlns="http://www.w3.org/2000/svg">
    <path d="M30.2445 29.9554L19.1641 18.875" stroke="currentColor" stroke-width="0.857143" />
    <path opacity="0.24" d="M41.3226 41.0414L30.2422 29.9609" stroke="currentColor" stroke-width="0.44661" />
    <path opacity="0.24" d="M30.2438 29.9554L41.3242 18.875" stroke="currentColor" stroke-width="0.44661" />
    <path opacity="0.24" d="M19.1617 41.0414L30.2422 29.9609" stroke="currentColor" stroke-width="0.44661" />
    <path d="M17.0689 19.25C16.6208 19.25 16.2425 19.151 15.934 18.953C15.6256 18.753 15.3922 18.4768 15.2338 18.1246C15.0754 17.7724 14.9962 17.3659 14.9962 16.9053C14.9962 16.4447 15.0754 16.0383 15.2338 15.6861C15.3922 15.3339 15.6256 15.0588 15.934 14.8608C16.2425 14.6607 16.6208 14.5606 17.0689 14.5606C17.592 14.5606 18.0193 14.6951 18.3507 14.9639C18.682 15.2307 18.9092 15.5892 19.0322 16.0394L18.5632 16.1613C18.4674 15.8049 18.2954 15.5225 18.0474 15.3141C17.7994 15.1057 17.4732 15.0014 17.0689 15.0014C16.7167 15.0014 16.4238 15.0817 16.1904 15.2422C15.957 15.4026 15.7809 15.6267 15.6621 15.9143C15.5454 16.1998 15.4849 16.5302 15.4807 16.9053C15.4787 17.2805 15.536 17.6108 15.6527 17.8964C15.7715 18.1819 15.9486 18.4059 16.1842 18.5685C16.4217 18.729 16.7167 18.8092 17.0689 18.8092C17.4732 18.8092 17.7994 18.705 18.0474 18.4966C18.2954 18.2861 18.4674 18.0037 18.5632 17.6494L19.0322 17.7713C18.9092 18.2215 18.682 18.581 18.3507 18.8499C18.0193 19.1167 17.592 19.25 17.0689 19.25Z" fill="currentColor" />
    <path d="M42.5549 19.1562V14.6544H44.2931C44.5453 14.6544 44.7651 14.7065 44.9527 14.8107C45.1403 14.9149 45.2862 15.0556 45.3904 15.2328C45.4946 15.4079 45.5467 15.6017 45.5467 15.8143C45.5467 16.056 45.4821 16.2717 45.3529 16.4614C45.2237 16.649 45.0507 16.7792 44.8339 16.8522L44.8277 16.699C45.1194 16.7824 45.3487 16.9283 45.5154 17.1367C45.6822 17.3451 45.7655 17.5973 45.7655 17.8932C45.7655 18.1538 45.7103 18.3789 45.5998 18.5685C45.4894 18.7561 45.3341 18.9009 45.134 19.0031C44.934 19.1052 44.7016 19.1562 44.4369 19.1562H42.5549ZM43.0176 18.7154H44.3243C44.5077 18.7154 44.6724 18.6831 44.8183 18.6185C44.9642 18.5518 45.0788 18.4581 45.1622 18.3372C45.2476 18.2163 45.2903 18.0704 45.2903 17.8995C45.2903 17.7328 45.2518 17.5827 45.1747 17.4493C45.0976 17.3159 44.9923 17.2096 44.8589 17.1304C44.7276 17.0491 44.5776 17.0085 44.4087 17.0085H43.0176V18.7154ZM43.0176 16.574H44.2899C44.4338 16.574 44.5651 16.5416 44.6839 16.477C44.8027 16.4103 44.8964 16.3197 44.9652 16.2051C45.0361 16.0904 45.0715 15.9581 45.0715 15.808C45.0715 15.5954 44.9975 15.4224 44.8495 15.2891C44.7037 15.1557 44.5171 15.089 44.2899 15.089H43.0176V16.574Z" fill="currentColor" />
    <path d="M16.6914 47.3438C16.385 47.3438 16.1193 47.299 15.8942 47.2094C15.6712 47.1197 15.4878 47.002 15.344 46.8561C15.2002 46.7081 15.0928 46.5487 15.022 46.3778L15.4409 46.1339C15.4909 46.2756 15.5701 46.4049 15.6785 46.5216C15.7869 46.6383 15.9265 46.731 16.0974 46.7998C16.2683 46.8686 16.4715 46.903 16.707 46.903C16.9509 46.903 17.1572 46.8644 17.326 46.7873C17.4969 46.7102 17.6261 46.6018 17.7137 46.4622C17.8012 46.3225 17.845 46.16 17.845 45.9745C17.845 45.7702 17.796 45.6118 17.698 45.4993C17.6001 45.3867 17.4688 45.3075 17.3041 45.2617C17.1395 45.2138 16.9561 45.1867 16.7539 45.1804C16.6018 45.1742 16.4934 45.17 16.4288 45.1679C16.3642 45.1658 16.3214 45.1648 16.3006 45.1648C16.2798 45.1648 16.26 45.1648 16.2412 45.1648V44.7209C16.2558 44.7209 16.2944 44.7209 16.3569 44.7209C16.4194 44.7209 16.4861 44.7209 16.557 44.7209C16.6278 44.7188 16.6841 44.7167 16.7258 44.7146C17.0238 44.7 17.2583 44.6219 17.4292 44.4801C17.6001 44.3384 17.6855 44.1467 17.6855 43.9049C17.6855 43.6485 17.5949 43.4495 17.4136 43.3078C17.2343 43.1661 17.0019 43.0952 16.7164 43.0952C16.4475 43.0952 16.2204 43.1598 16.0349 43.289C15.8515 43.4162 15.7014 43.5871 15.5847 43.8017L15.2095 43.5235C15.3513 43.2692 15.5513 43.0608 15.8098 42.8982C16.0682 42.7357 16.3746 42.6544 16.7289 42.6544C16.9186 42.6544 17.0999 42.6804 17.2729 42.7325C17.4479 42.7846 17.6022 42.8618 17.7356 42.9639C17.871 43.066 17.9773 43.1952 18.0544 43.3515C18.1336 43.5058 18.1732 43.6871 18.1732 43.8955C18.1732 44.1394 18.119 44.352 18.0107 44.5333C17.9044 44.7146 17.7668 44.8511 17.598 44.9428C17.8273 45.0116 18.0065 45.1325 18.1357 45.3055C18.267 45.4784 18.3327 45.7046 18.3327 45.9839C18.3327 46.259 18.2649 46.4987 18.1295 46.7029C17.994 46.9072 17.8023 47.0656 17.5542 47.1781C17.3083 47.2886 17.0207 47.3438 16.6914 47.3438Z" fill="currentColor" />
    <path d="M42.5549 47.25V42.7482H43.0144V44.7709H44.2399V45.2273H43.0144V47.25H42.5549ZM45.8593 47.3438C45.5613 47.3438 45.2987 47.2823 45.0715 47.1593C44.8464 47.0364 44.6588 46.8676 44.5088 46.6529C44.3587 46.4361 44.2451 46.186 44.168 45.9026C44.093 45.6191 44.0555 45.318 44.0555 44.9991C44.0555 44.6781 44.093 44.377 44.168 44.0956C44.2451 43.8142 44.3587 43.5662 44.5088 43.3515C44.6588 43.1348 44.8464 42.9649 45.0715 42.842C45.2987 42.719 45.5613 42.6575 45.8593 42.6575C46.1595 42.6575 46.4221 42.719 46.6471 42.842C46.8743 42.9649 47.0629 43.1348 47.213 43.3515C47.3631 43.5662 47.4756 43.8142 47.5506 44.0956C47.6278 44.377 47.6663 44.6781 47.6663 44.9991C47.6663 45.3284 47.6278 45.6358 47.5506 45.9213C47.4756 46.2048 47.3631 46.4538 47.213 46.6685C47.0629 46.8811 46.8743 47.0468 46.6471 47.1656C46.4221 47.2844 46.1595 47.3438 45.8593 47.3438ZM45.8593 46.903C46.0803 46.903 46.272 46.853 46.4346 46.7529C46.5992 46.6529 46.7357 46.5153 46.8441 46.3403C46.9546 46.1652 47.0369 45.963 47.0911 45.7338C47.1474 45.5024 47.1765 45.2575 47.1786 44.9991C47.1807 44.7406 47.1536 44.4968 47.0973 44.2675C47.0431 44.0383 46.9608 43.8361 46.8504 43.661C46.742 43.486 46.6044 43.3495 46.4377 43.2515C46.273 43.1515 46.0803 43.1014 45.8593 43.1014C45.6405 43.1014 45.4487 43.1515 45.2841 43.2515C45.1215 43.3495 44.985 43.486 44.8746 43.661C44.7662 43.8361 44.6839 44.0383 44.6276 44.2675C44.5734 44.4968 44.5453 44.7406 44.5432 44.9991C44.5411 45.2575 44.5671 45.5024 44.6213 45.7338C44.6755 45.963 44.7578 46.1652 44.8683 46.3403C44.9788 46.5153 45.1163 46.6529 45.281 46.7529C45.4477 46.853 45.6405 46.903 45.8593 46.903Z" fill="currentColor" />
</svg>
