<svg width="6" height="6" viewBox="0 0 6 6" xmlns="http://www.w3.org/2000/svg">
    <path fill-rule="evenodd" clip-rule="evenodd"
        d="M5.96206 0.308609C5.93802 0.250506 5.90256 0.196016 5.85567 0.148574C5.85426 0.147151 5.85285 0.145738 5.85143 0.144332C5.76112 0.0550934 5.63699 0 5.5 0H5.49991H0.5C0.223858 0 0 0.223858 0 0.5C0 0.776142 0.223858 1 0.5 1H4.29289L0.146447 5.14645C-0.0488155 5.34171 -0.0488155 5.65829 0.146447 5.85355C0.341709 6.04882 0.658291 6.04882 0.853553 5.85355L5 1.70711V5.5C5 5.77614 5.22386 6 5.5 6C5.77614 6 6 5.77614 6 5.5V0.500346C6 0.499231 6 0.498116 5.99999 0.497001C5.99961 0.432871 5.98697 0.368801 5.96206 0.308609Z" />
</svg>