<svg width="16" height="16" viewBox="0 0 16 16" xmlns="http://www.w3.org/2000/svg">
    <path
        d="M2.66927 13.3307C2.3026 13.3307 1.98883 13.2003 1.72794 12.9394C1.46705 12.6785 1.33638 12.3645 1.33594 11.9974V3.9974C1.33594 3.63073 1.4666 3.31695 1.72794 3.05606C1.98927 2.79517 2.30305 2.66451 2.66927 2.66406H13.3359C13.7026 2.66406 14.0166 2.79473 14.2779 3.05606C14.5393 3.3174 14.6697 3.63117 14.6693 3.9974V11.9974C14.6693 12.3641 14.5388 12.6781 14.2779 12.9394C14.017 13.2007 13.703 13.3312 13.3359 13.3307H2.66927ZM8.0026 8.66406L13.3359 5.33073V3.9974L8.0026 7.33073L2.66927 3.9974V5.33073L8.0026 8.66406Z" />
</svg>