<svg width="16" height="16" viewBox="0 0 16 16" xmlns="http://www.w3.org/2000/svg">
    <path fill-rule="evenodd" clip-rule="evenodd"
        d="M4.72716 4.27291C4.5319 4.07765 4.21532 4.07765 4.02005 4.27291C3.82479 4.46818 3.82479 4.78476 4.02005 4.98002L7.03955 7.99951L4.01957 11.0195C3.82431 11.2148 3.82431 11.5313 4.01957 11.7266C4.21483 11.9219 4.53141 11.9219 4.72668 11.7266L7.74665 8.70662L10.7705 11.7304C10.9657 11.9257 11.2823 11.9257 11.4776 11.7304C11.6728 11.5352 11.6728 11.2186 11.4776 11.0233L8.45376 7.99951L11.4771 4.97619C11.6723 4.78093 11.6723 4.46435 11.4771 4.26908C11.2818 4.07382 10.9652 4.07382 10.77 4.26908L7.74665 7.29241L4.72716 4.27291Z" />
</svg>