<svg xmlns="http://www.w3.org/2000/svg" viewBox="0 0 40 40">
    <path
        d="M20,27.75c-.15,0-.31-.06-.42-.18l-5.89-5.89c-.81-.81-1.25-1.88-1.25-3.02s.44-2.21,1.25-3.02c.81-.81,1.88-1.25,3.02-1.25s2.21,.44,3.02,1.25l.28,.28,.28-.28c.4-.4,.86-.71,1.38-.93,1.04-.43,2.23-.43,3.27,0,.52,.21,.99,.53,1.38,.93,0,0,0,0,0,0,.4,.4,.71,.86,.92,1.38,.22,.52,.33,1.07,.33,1.63s-.11,1.11-.33,1.63c-.21,.52-.53,.99-.92,1.38l-5.89,5.89c-.12,.12-.27,.18-.42,.18Zm-3.3-12.15c-.82,0-1.59,.32-2.17,.9-.58,.58-.9,1.35-.9,2.17s.32,1.59,.9,2.17l5.47,5.47,5.47-5.47c.29-.29,.51-.62,.66-.99,.16-.37,.23-.77,.23-1.17s-.08-.8-.23-1.17c-.15-.37-.38-.71-.67-1-.29-.29-.62-.51-1-.66-.75-.31-1.6-.31-2.35,0-.38,.15-.71,.38-1,.67l-.71,.71c-.23,.23-.61,.23-.85,0l-.71-.71c-.58-.58-1.35-.9-2.17-.9Z" />
</svg>