<svg width="14" height="14" viewBox="0 0 14 14" xmlns="http://www.w3.org/2000/svg">

    <path fill-rule="evenodd" clip-rule="evenodd"
        d="M0.4375 2.47145H6.95715C6.92816 2.33036 6.91326 2.18674 6.91266 2.0427L6.91272 2.03042C6.91286 1.88466 6.92762 1.73929 6.9568 1.59648H0.4375C0.195809 1.59648 0 1.79226 0 2.03398C0 2.2757 0.195781 2.4715 0.4375 2.47145ZM6.27329 7.00214V7.00761C6.27104 7.75642 5.65999 8.36553 4.91148 8.36553C4.16366 8.3655 3.55258 7.75705 3.54938 7.00887L3.54941 7.00119C3.55034 6.25107 4.16106 5.64133 4.91148 5.64133C5.66128 5.6413 6.27167 6.25077 6.27329 7.00023V7.00214ZM13.5625 6.56593H7.04315C7.07226 6.70823 7.08707 6.85309 7.08734 6.99834V7.0101C7.08695 7.15484 7.0721 7.29917 7.04301 7.44096L13.5625 7.44093C13.8042 7.44093 14 7.24518 14 7.00346C14 6.76171 13.8042 6.56593 13.5625 6.56593ZM2.77949 6.56593H0.4375C0.195809 6.56593 0 6.76174 0 7.00346C0 7.24515 0.195781 7.44096 0.4375 7.44096L2.77985 7.44093C2.75084 7.29983 2.73594 7.1562 2.73536 7.01215L2.73539 6.99987C2.73552 6.85411 2.75029 6.70874 2.77949 6.56593ZM9.08852 13.335C8.33872 13.335 7.72833 12.7255 7.72671 11.9761V11.9687C7.72898 11.2199 8.34001 10.6108 9.08849 10.6108C9.83637 10.6108 10.4474 11.2193 10.4506 11.9674L10.4506 11.9751C10.4497 12.7252 9.83891 13.335 9.08852 13.335ZM13.5625 11.5354H11.2205C11.2496 11.6777 11.2644 11.8225 11.2646 11.9678V11.9795C11.2642 12.1243 11.2494 12.2686 11.2203 12.4104H13.5625C13.8042 12.4104 14 12.2146 14 11.9729C14 11.7312 13.8042 11.5354 13.5625 11.5354ZM6.9568 11.5354H0.4375C0.195809 11.5354 0 11.7312 0 11.9729C0 12.2146 0.195781 12.4104 0.4375 12.4104H6.95715C6.92816 12.2693 6.91326 12.1257 6.91266 11.9816L6.91272 11.9693C6.91285 11.8236 6.92762 11.6782 6.9568 11.5354ZM7.72671 2.03526V2.02979C7.72898 1.28096 8.34001 0.671875 9.08849 0.671875C9.83637 0.671848 10.4474 1.28036 10.4506 2.02854L10.4506 2.03619C10.4493 2.78598 9.83891 3.39608 9.08849 3.39608C8.33872 3.39608 7.7283 2.78661 7.72671 2.03718V2.03526ZM11.2203 2.4715L13.5625 2.47145C13.8042 2.47145 14 2.2757 14 2.03398C14 1.79223 13.8042 1.59648 13.5625 1.59648H11.2205C11.2496 1.73877 11.2644 1.88362 11.2646 2.02886V2.04062C11.2643 2.18537 11.2494 2.32971 11.2203 2.4715Z" />

</svg>