<svg width="60" height="60" viewBox="0 0 60 60" xmlns="http://www.w3.org/2000/svg">
    <path
        d="M23.0611 21.3893L24.433 20.0174C24.466 19.9842 24.4891 19.9424 24.4996 19.8967C24.51 19.851 24.5075 19.8033 24.4922 19.7591C24.4768 19.7148 24.4494 19.6757 24.413 19.6462C24.3766 19.6167 24.3326 19.5981 24.2861 19.5924L19.2799 19.0018C19.1205 18.983 18.983 19.1174 19.0018 19.2799L19.5924 24.2861C19.6174 24.4924 19.8705 24.5799 20.0174 24.433L21.383 23.0674L25.5611 27.2424C25.658 27.3393 25.8174 27.3393 25.9143 27.2424L27.2393 25.9205C27.3361 25.8236 27.3361 25.6643 27.2393 25.5674L23.0611 21.3893ZM34.083 27.2424C34.1799 27.3393 34.3393 27.3393 34.4361 27.2424L38.6143 23.0674L39.9799 24.433C40.0131 24.466 40.0549 24.4891 40.1006 24.4996C40.1462 24.51 40.1939 24.5075 40.2382 24.4922C40.2825 24.4768 40.3216 24.4494 40.351 24.413C40.3805 24.3766 40.3992 24.3326 40.4049 24.2861L40.9955 19.283C41.0143 19.1236 40.8799 18.9861 40.7174 19.0049L35.7111 19.5955C35.5049 19.6205 35.4174 19.8736 35.5643 20.0205L36.9361 21.3924L32.758 25.5643C32.7115 25.6112 32.6854 25.6747 32.6854 25.7408C32.6854 25.8069 32.7115 25.8704 32.758 25.9174L34.083 27.2424ZM40.4049 35.7174C40.3799 35.5111 40.1268 35.4236 39.9799 35.5705L38.6143 36.9361L34.4361 32.7611C34.3891 32.7146 34.3257 32.6885 34.2596 32.6885C34.1934 32.6885 34.13 32.7146 34.083 32.7611L32.758 34.083C32.7115 34.13 32.6854 34.1934 32.6854 34.2596C32.6854 34.3257 32.7115 34.3891 32.758 34.4361L36.9361 38.6143L35.5643 39.9861C35.5312 40.0193 35.5081 40.0612 35.4977 40.1068C35.4872 40.1525 35.4898 40.2002 35.5051 40.2444C35.5204 40.2887 35.5478 40.3278 35.5842 40.3573C35.6207 40.3868 35.6646 40.4054 35.7111 40.4111L40.7174 41.0018C40.8768 41.0205 41.0143 40.8861 40.9955 40.7236L40.4049 35.7174ZM25.9143 32.7611C25.8673 32.7146 25.8038 32.6885 25.7377 32.6885C25.6716 32.6885 25.6081 32.7146 25.5611 32.7611L21.383 36.9361L20.0174 35.5705C19.9842 35.5375 19.9424 35.5144 19.8967 35.5039C19.851 35.4935 19.8033 35.4961 19.7591 35.5114C19.7148 35.5267 19.6757 35.5541 19.6462 35.5905C19.6167 35.6269 19.5981 35.6709 19.5924 35.7174L19.0018 40.7205C18.983 40.8799 19.1174 41.0174 19.2799 40.9986L24.2861 40.408C24.4924 40.383 24.5799 40.1299 24.433 39.983L23.0611 38.6143L27.2393 34.4393C27.3361 34.3424 27.3361 34.183 27.2393 34.0861L25.9143 32.7611Z" />
</svg>