<svg xmlns="http://www.w3.org/2000/svg" xmlns:xlink="http://www.w3.org/1999/xlink" viewBox="0 0 40 40">

    <path
        d="M26.8,18.81c-.32-.32-.74-.49-1.18-.49h-3.94v-3.93c0-.44-.18-.87-.49-1.18-.63-.63-1.74-.63-2.37,0-.32,.32-.49,.74-.49,1.19v3.93h-3.93c-.45,0-.87,.17-1.18,.49-.32,.32-.49,.74-.49,1.19s.17,.87,.49,1.19c.31,.31,.74,.49,1.18,.49h3.93v3.94c0,.45,.17,.87,.49,1.18,.32,.32,.74,.49,1.19,.49s.87-.17,1.19-.49c.31-.31,.49-.74,.49-1.18v-3.94h3.94c.44,0,.87-.18,1.19-.49,.32-.32,.49-.74,.49-1.19s-.18-.87-.49-1.18Z" />

</svg>