<svg xmlns="http://www.w3.org/2000/svg" viewBox="0 0 16 15">

    <path fill="currentColor"
        d="M8.07,14.13c-.13,0-.26-.05-.35-.15L2.41,8.68c-.72-.72-1.11-1.67-1.11-2.69s.4-1.97,1.11-2.69c1.44-1.44,3.94-1.44,5.38,0l.28,.28,.28-.28c.35-.35,.77-.63,1.23-.82,.93-.38,1.98-.38,2.91,0,.46,.19,.88,.47,1.23,.82h0c.36,.36,.63,.77,.82,1.23,.19,.46,.29,.95,.29,1.45s-.1,.99-.29,1.45c-.19,.46-.47,.88-.82,1.23l-5.3,5.3c-.09,.09-.22,.15-.35,.15Z" />
    <path
        d="M8.07,14.13c-.13,0-.26-.05-.35-.15L2.41,8.68c-.72-.72-1.11-1.67-1.11-2.69s.4-1.97,1.11-2.69c1.44-1.44,3.94-1.44,5.38,0l.28,.28,.28-.28c.35-.35,.77-.63,1.23-.82,.93-.38,1.98-.38,2.91,0,.46,.19,.88,.47,1.23,.82h0c.36,.36,.63,.77,.82,1.23,.19,.46,.29,.95,.29,1.45s-.1,.99-.29,1.45c-.19,.46-.47,.88-.82,1.23l-5.3,5.3c-.09,.09-.22,.15-.35,.15ZM5.1,3.2c-.75,0-1.45,.29-1.98,.82-.53,.53-.82,1.23-.82,1.98s.29,1.45,.82,1.98l4.95,4.95,4.95-4.95c.26-.26,.47-.57,.61-.91,.14-.34,.21-.7,.21-1.07s-.07-.73-.21-1.07c-.14-.34-.34-.65-.61-.91h0c-.26-.26-.57-.47-.91-.61-.68-.28-1.46-.28-2.14,0-.34,.14-.65,.35-.91,.61l-.64,.64c-.2,.2-.51,.2-.71,0l-.64-.64c-.53-.53-1.23-.82-1.98-.82Z" />
</svg>