<svg viewBox="0 0 28 28" fill="none" xmlns="http://www.w3.org/2000/svg">
    <path d="M24.3151 7.12265C23.7192 6.52649 23.0117 6.05357 22.233 5.73092C21.4543 5.40826 20.6197 5.24219 19.7768 5.24219C18.9339 5.24219 18.0992 5.40826 17.3205 5.73092C16.5418 6.05357 15.8343 6.52649 15.2384 7.12265L14.0018 8.35932L12.7651 7.12265C11.5615 5.91901 9.92897 5.24281 8.22677 5.24281C6.52456 5.24281 4.89207 5.91901 3.68843 7.12265C2.48479 8.32629 1.80859 9.95878 1.80859 11.661C1.80859 13.3632 2.48479 14.9957 3.68843 16.1993L4.9251 17.436L14.0018 26.5127L23.0784 17.436L24.3151 16.1993C24.9113 15.6034 25.3842 14.8959 25.7068 14.1172C26.0295 13.3385 26.1956 12.5039 26.1956 11.661C26.1956 10.8181 26.0295 9.98344 25.7068 9.20474C25.3842 8.42603 24.9113 7.71853 24.3151 7.12265Z" stroke="currentColor" stroke-opacity="0.3" stroke-width="1.2" stroke-linecap="round" stroke-linejoin="round"/>
</svg>
