<svg width="16" height="16" viewBox="0 0 16 16" fill="none" xmlns="http://www.w3.org/2000/svg">
<path fill-rule="evenodd" clip-rule="evenodd" d="M3.19844 13.2016V2.80156H2.99844C2.83931 2.80156 2.6867 2.73835 2.57417 2.62583C2.46165 2.5133 2.39844 2.36069 2.39844 2.20156C2.39844 2.04243 2.46165 1.88982 2.57417 1.7773C2.6867 1.66478 2.83931 1.60156 2.99844 1.60156H12.9984C13.1576 1.60156 13.3102 1.66478 13.4227 1.7773C13.5352 1.88982 13.5984 2.04243 13.5984 2.20156C13.5984 2.36069 13.5352 2.5133 13.4227 2.62583C13.3102 2.73835 13.1576 2.80156 12.9984 2.80156H12.7984V13.2016H12.9984C13.1576 13.2016 13.3102 13.2648 13.4227 13.3773C13.5352 13.4898 13.5984 13.6424 13.5984 13.8016C13.5984 13.9607 13.5352 14.1133 13.4227 14.2258C13.3102 14.3383 13.1576 14.4016 12.9984 14.4016H10.1984C10.0393 14.4016 9.8867 14.3383 9.77417 14.2258C9.66165 14.1133 9.59844 13.9607 9.59844 13.8016V11.8016C9.59844 11.6424 9.53522 11.4898 9.4227 11.3773C9.31018 11.2648 9.15757 11.2016 8.99844 11.2016H6.99844C6.83931 11.2016 6.6867 11.2648 6.57417 11.3773C6.46165 11.4898 6.39844 11.6424 6.39844 11.8016V13.8016C6.39844 13.9607 6.33522 14.1133 6.2227 14.2258C6.11018 14.3383 5.95757 14.4016 5.79844 14.4016H2.99844C2.83931 14.4016 2.6867 14.3383 2.57417 14.2258C2.46165 14.1133 2.39844 13.9607 2.39844 13.8016C2.39844 13.6424 2.46165 13.4898 2.57417 13.3773C2.6867 13.2648 2.83931 13.2016 2.99844 13.2016H3.19844ZM5.59844 4.40156C5.59844 4.29548 5.64058 4.19373 5.7156 4.11872C5.79061 4.04371 5.89235 4.00156 5.99844 4.00156H6.79844C6.90452 4.00156 7.00627 4.04371 7.08128 4.11872C7.1563 4.19373 7.19844 4.29548 7.19844 4.40156V5.20156C7.19844 5.30765 7.1563 5.40939 7.08128 5.48441C7.00627 5.55942 6.90452 5.60156 6.79844 5.60156H5.99844C5.89235 5.60156 5.79061 5.55942 5.7156 5.48441C5.64058 5.40939 5.59844 5.30765 5.59844 5.20156V4.40156ZM5.99844 7.20156C5.89235 7.20156 5.79061 7.2437 5.7156 7.31872C5.64058 7.39373 5.59844 7.49548 5.59844 7.60156V8.40156C5.59844 8.50765 5.64058 8.60939 5.7156 8.68441C5.79061 8.75942 5.89235 8.80156 5.99844 8.80156H6.79844C6.90452 8.80156 7.00627 8.75942 7.08128 8.68441C7.1563 8.60939 7.19844 8.50765 7.19844 8.40156V7.60156C7.19844 7.49548 7.1563 7.39373 7.08128 7.31872C7.00627 7.2437 6.90452 7.20156 6.79844 7.20156H5.99844ZM8.79844 4.40156C8.79844 4.29548 8.84058 4.19373 8.91559 4.11872C8.99061 4.04371 9.09235 4.00156 9.19844 4.00156H9.99844C10.1045 4.00156 10.2063 4.04371 10.2813 4.11872C10.3563 4.19373 10.3984 4.29548 10.3984 4.40156V5.20156C10.3984 5.30765 10.3563 5.40939 10.2813 5.48441C10.2063 5.55942 10.1045 5.60156 9.99844 5.60156H9.19844C9.09235 5.60156 8.99061 5.55942 8.91559 5.48441C8.84058 5.40939 8.79844 5.30765 8.79844 5.20156V4.40156ZM9.19844 7.20156C9.09235 7.20156 8.99061 7.2437 8.91559 7.31872C8.84058 7.39373 8.79844 7.49548 8.79844 7.60156V8.40156C8.79844 8.50765 8.84058 8.60939 8.91559 8.68441C8.99061 8.75942 9.09235 8.80156 9.19844 8.80156H9.99844C10.1045 8.80156 10.2063 8.75942 10.2813 8.68441C10.3563 8.60939 10.3984 8.50765 10.3984 8.40156V7.60156C10.3984 7.49548 10.3563 7.39373 10.2813 7.31872C10.2063 7.2437 10.1045 7.20156 9.99844 7.20156H9.19844Z" fill="currentColor"/>
</svg>
