<svg width="40" height="40" viewBox="0 0 40 40" fill="none" xmlns="http://www.w3.org/2000/svg">
<path d="M19.7752 15.2752L21.0252 14.0252C21.3502 13.7002 21.7361 13.4423 22.1607 13.2664C22.5854 13.0905 23.0405 13 23.5002 13C23.9598 13 24.415 13.0905 24.8396 13.2664C25.2643 13.4423 25.6502 13.7002 25.9752 14.0252C26.3002 14.3502 26.558 14.7361 26.7339 15.1607C26.9098 15.5854 27.0004 16.0405 27.0004 16.5002C27.0004 16.9598 26.9098 17.415 26.7339 17.8396C26.558 18.2643 26.3002 18.6502 25.9752 18.9752L23.4752 21.4752C23.1502 21.8002 22.7643 22.0581 22.3397 22.234C21.915 22.4099 21.4598 22.5004 21.0002 22.5004C20.5405 22.5004 20.0854 22.4099 19.6607 22.234C19.236 22.0581 18.8502 21.8002 18.5252 21.4752C18.3928 21.3329 18.3207 21.1449 18.324 20.9505C18.3274 20.7562 18.4059 20.5708 18.5432 20.4332C18.6808 20.2959 18.8662 20.2174 19.0605 20.214C19.2549 20.2107 19.4429 20.2828 19.5852 20.4152C19.7708 20.6014 19.9913 20.7491 20.2341 20.8499C20.477 20.9507 20.7373 21.0026 21.0002 21.0026C21.2631 21.0026 21.5234 20.9507 21.7662 20.8499C22.009 20.7491 22.2296 20.6014 22.4152 20.4152L24.9152 17.9152C25.2722 17.5362 25.4676 17.0331 25.4598 16.5125C25.452 15.9919 25.2418 15.4949 24.8737 15.1267C24.5055 14.7586 24.0084 14.5483 23.4878 14.5406C22.9673 14.5328 22.4641 14.7282 22.0852 15.0852L20.8352 16.3352C20.6929 16.4676 20.5049 16.5397 20.3105 16.5363C20.1162 16.533 19.9308 16.4544 19.7932 16.3172C19.6559 16.1796 19.5774 15.9941 19.574 15.7998C19.5707 15.6055 19.6428 15.4174 19.7752 15.2752ZM15.0852 24.9152C15.2708 25.1014 15.4913 25.2491 15.7341 25.3499C15.977 25.4507 16.2373 25.5026 16.5002 25.5026C16.7631 25.5026 17.0234 25.4507 17.2662 25.3499C17.509 25.2491 17.7296 25.1014 17.9152 24.9152L19.1652 23.6652C19.3074 23.5328 19.4955 23.4607 19.6898 23.464C19.8841 23.4674 20.0696 23.5459 20.2072 23.6832C20.3444 23.8208 20.423 24.0062 20.4263 24.2005C20.4297 24.3949 20.3576 24.5829 20.2252 24.7252L18.9752 25.9752C18.6502 26.3002 18.2643 26.558 17.8396 26.7339C17.415 26.9098 16.9598 27.0004 16.5002 27.0004C16.0405 27.0004 15.5854 26.9098 15.1607 26.7339C14.7361 26.558 14.3502 26.3002 14.0252 25.9752C13.7002 25.6502 13.4423 25.2643 13.2664 24.8396C13.0905 24.415 13 23.9598 13 23.5002C13 23.0405 13.0905 22.5854 13.2664 22.1607C13.4423 21.7361 13.7002 21.3502 14.0252 21.0252L16.5252 18.5252C16.8502 18.2001 17.236 17.9423 17.6607 17.7664C18.0854 17.5905 18.5405 17.4999 19.0002 17.4999C19.4598 17.4999 19.915 17.5905 20.3397 17.7664C20.7643 17.9423 21.1502 18.2001 21.4752 18.5252C21.6076 18.6674 21.6797 18.8555 21.6763 19.0498C21.673 19.2441 21.5944 19.4296 21.4572 19.5672C21.3196 19.7044 21.1341 19.783 20.9398 19.7863C20.7455 19.7897 20.5574 19.7176 20.4152 19.5852C20.2296 19.399 20.009 19.2513 19.7662 19.1505C19.5234 19.0497 19.2631 18.9978 19.0002 18.9978C18.7373 18.9978 18.477 19.0497 18.2341 19.1505C17.9913 19.2513 17.7708 19.399 17.5852 19.5852L15.0852 22.0852C14.899 22.2708 14.7513 22.4913 14.6505 22.7341C14.5497 22.977 14.4978 23.2373 14.4978 23.5002C14.4978 23.7631 14.5497 24.0234 14.6505 24.2662C14.7513 24.509 14.899 24.7296 15.0852 24.9152Z" fill="currentColor"/>
</svg>
