<svg width="16" height="16" viewBox="0 0 16 16" xmlns="http://www.w3.org/2000/svg">
    <path
        d="M5.80813 1.33594H2.50813C1.85643 1.33594 1.32812 1.86424 1.32812 2.51594V5.81594C1.32812 6.46763 1.85643 6.99594 2.50813 6.99594H5.80813C6.45982 6.99594 6.98812 6.46763 6.98812 5.81594V2.51594C6.98812 1.86424 6.45982 1.33594 5.80813 1.33594Z" />
    <path
        d="M13.48 1.33594H10.18C9.5283 1.33594 9 1.86424 9 2.51594V5.81594C9 6.46763 9.5283 6.99594 10.18 6.99594H13.48C14.1317 6.99594 14.66 6.46763 14.66 5.81594V2.51594C14.66 1.86424 14.1317 1.33594 13.48 1.33594Z" />
    <path
        d="M13.48 9H10.18C9.5283 9 9 9.5283 9 10.18V13.48C9 14.1317 9.5283 14.66 10.18 14.66H13.48C14.1317 14.66 14.66 14.1317 14.66 13.48V10.18C14.66 9.5283 14.1317 9 13.48 9Z" />
    <path
        d="M5.80813 9H2.50813C1.85643 9 1.32812 9.5283 1.32812 10.18V13.48C1.32812 14.1317 1.85643 14.66 2.50813 14.66H5.80813C6.45982 14.66 6.98812 14.1317 6.98812 13.48V10.18C6.98812 9.5283 6.45982 9 5.80813 9Z" />
</svg>