<svg width="17" height="16" viewBox="0 0 17 16" xmlns="http://www.w3.org/2000/svg">
    <path
        d="M8.5 1C6.95068 1.00165 5.46532 1.58164 4.36979 2.61273C3.27425 3.64381 2.65801 5.04178 2.65625 6.49995C2.65625 11.2062 7.96875 14.7605 8.1952 14.9093C8.28452 14.9681 8.39094 14.9997 8.5 14.9997C8.60906 14.9997 8.71548 14.9681 8.8048 14.9093C9.03125 14.7605 14.3438 11.2062 14.3438 6.49995C14.342 5.04178 13.7257 3.64381 12.6302 2.61273C11.5347 1.58164 10.0493 1.00165 8.5 1ZM8.5 4.49997C8.92029 4.49997 9.33113 4.61727 9.68059 4.83703C10.03 5.05679 10.3024 5.36914 10.4632 5.73459C10.6241 6.10004 10.6662 6.50217 10.5842 6.89013C10.5022 7.27809 10.2998 7.63445 10.0026 7.91415C9.70541 8.19385 9.32678 8.38433 8.91457 8.4615C8.50236 8.53867 8.07509 8.49907 7.6868 8.34769C7.2985 8.19632 6.96663 7.93998 6.73313 7.61108C6.49963 7.28219 6.375 6.89551 6.375 6.49995C6.375 5.96952 6.59888 5.46082 6.9974 5.08575C7.39591 4.71068 7.93641 4.49997 8.5 4.49997Z" />
</svg>