<svg width="16" height="16" viewBox="0 0 16 16" xmlns="http://www.w3.org/2000/svg">
<path d="M9.77011 14.6925V3.48964L6.46182 1.46679C6.34811 1.39307 6.21411 1.34621 6.08696 1.3125V12.6699L9.46182 14.5585C9.55996 14.613 9.66322 14.6578 9.77011 14.6922M1.79439 14.4914C1.96868 14.4914 2.13611 14.4379 2.35725 14.3171L5.16954 12.8039V1.43364C5.04896 1.49364 4.92182 1.56079 4.79468 1.6345L1.62039 3.44936C1.21868 3.67679 1.03125 3.99821 1.03125 4.44707V13.7214C1.03125 14.2171 1.31896 14.4916 1.79468 14.4916M10.6878 14.6791C10.7547 14.6591 10.8215 14.6322 10.8887 14.5854L14.3907 12.5968C14.7858 12.3756 14.9735 12.0539 14.9735 11.6054V2.31764C14.9735 1.82193 14.6921 1.55421 14.2101 1.55421C14.0427 1.55421 13.8687 1.60107 13.6541 1.72164L10.6878 3.3685V14.6791Z" fill="currentColor"/>
</svg>
