<svg width="14" height="14" viewBox="0 0 14 14" xmlns="http://www.w3.org/2000/svg">
    <path fill-rule="evenodd" clip-rule="evenodd"
        d="M2 2H5.45455V5.33333H2V2ZM1 1H2H5.45455H6.45455V2V5.33333V6.33333H5.45455H2H1V5.33333V2V1ZM8.5459 2H12.0004V5.33333H8.5459V2ZM7.5459 1H8.5459H12.0004H13.0004V2V5.33333V6.33333H12.0004H8.5459H7.5459V5.33333V2V1ZM5.45455 8.66664H2V12H5.45455V8.66664ZM2 7.66664H1V8.66664V12V13H2H5.45455H6.45455V12V8.66664V7.66664H5.45455H2ZM8.5459 8.66664H12.0004V12H8.5459V8.66664ZM7.5459 7.66664H8.5459H12.0004H13.0004V8.66664V12V13H12.0004H8.5459H7.5459V12V8.66664V7.66664Z" />
</svg>