<svg width="60" height="60" viewBox="0 0 60 60" xmlns="http://www.w3.org/2000/svg">
    <path fill-rule="evenodd" clip-rule="evenodd"
        d="M36.7872 24.5303C37.0801 24.2374 37.0801 23.7626 36.7872 23.4697C36.4943 23.1768 36.0194 23.1768 35.7265 23.4697L30.1284 29.0678L24.5303 23.4697C24.2374 23.1768 23.7626 23.1768 23.4697 23.4697C23.1768 23.7626 23.1768 24.2374 23.4697 24.5303L29.0678 30.1284L23.47 35.7262C23.1771 36.0191 23.1771 36.494 23.47 36.7868C23.7629 37.0797 24.2378 37.0797 24.5306 36.7868L30.1284 31.1891L35.7262 36.7868C36.0191 37.0797 36.494 37.0797 36.7868 36.7868C37.0797 36.494 37.0797 36.0191 36.7868 35.7262L31.1891 30.1284L36.7872 24.5303Z" />
</svg>