<svg width="48" height="48" viewBox="0 0 48 48" xmlns="http://www.w3.org/2000/svg">
    <path
        d="M24.0055 24.2307C26.1956 24.2301 27.9696 22.586 27.9689 20.5594C27.9682 18.5321 26.1921 16.89 24.0027 16.8906C21.8133 16.8913 20.0386 18.5353 20.0393 20.562C20.0421 22.588 21.8168 24.2294 24.0055 24.2307ZM24.0055 19.0422C24.9126 19.0422 25.6481 19.7229 25.6481 20.5626C25.6481 21.4023 24.9126 22.0824 24.0055 22.0824C23.0984 22.0824 22.3629 21.4017 22.3629 20.562C22.3643 19.7229 23.0991 19.0428 24.0055 19.0422ZM25.6085 27.2252C26.4245 27.0539 27.2031 26.755 27.9117 26.3424C28.4514 26.0199 28.6068 25.3542 28.2585 24.8546C27.9159 24.3628 27.2108 24.2144 26.6725 24.5211C25.0398 25.466 22.967 25.466 21.3343 24.5211C20.7924 24.2065 20.0767 24.3569 19.7355 24.8579C19.3928 25.3594 19.5539 26.0239 20.0965 26.341C20.0972 26.341 20.0979 26.3417 20.0979 26.3417C20.8058 26.7537 21.5844 27.0526 22.3996 27.2245L20.1827 29.2767C19.7411 29.7083 19.7616 30.3897 20.2286 30.7985C20.6772 31.1908 21.3781 31.1908 21.8267 30.7985L24.0041 28.7816L26.1829 30.7985C26.6364 31.2176 27.3705 31.2176 27.8241 30.7985C28.2769 30.3786 28.2769 29.6991 27.8241 29.2793L25.6085 27.2252Z" />
</svg>