<svg width="32" height="32" viewBox="0 0 32 32" xmlns="http://www.w3.org/2000/svg">
    <path
        d="M6.03285 30C5.31325 29.9779 4.66665 29.5245 4.36421 28.8389C3.84277 27.7994 3.88448 26.5498 4.4685 25.5434C5.71998 23.4866 8.16035 21.7615 11.5289 20.545L11.6436 20.5008L11.6958 20.3902C12.8325 17.9795 13.8233 15.5024 14.6784 12.9589L14.7306 12.8152L14.6576 12.6825C14.0527 11.6983 13.573 10.6367 13.2288 9.53081C12.1442 5.75987 13.062 2.81833 14.5742 2.15482C14.8036 2.05529 15.0539 2 15.3042 2C15.7839 2.01106 16.2532 2.19905 16.6078 2.54187C16.9415 2.86256 17.2231 3.22749 17.4317 3.64771C18.0887 4.91943 17.7654 7.8831 16.5244 12.0079C16.5035 12.0853 16.4722 12.1627 16.4514 12.2401C16.4305 12.3175 16.3992 12.406 16.3784 12.4834L16.3471 12.6272L16.4201 12.7488L16.4931 12.8594L16.5557 12.9589C17.9323 14.9826 19.4549 16.8957 21.1027 18.6651L21.1861 18.7646H21.3217H22.2916C22.7713 18.7646 23.1989 18.7646 23.5743 18.7978C26.9638 19.0079 29.1747 19.8705 29.8109 21.2306C30.1029 21.9052 30.0507 22.6904 29.6961 23.3318C29.2581 24.2054 28.4655 24.8025 27.5373 24.9352C27.4122 24.9573 27.2871 24.9573 27.1723 24.9573C26.0356 24.9573 24.6694 24.2828 23.3241 23.0663L23.2719 23.0221C23.2719 23.0221 23.1885 22.9336 23.0633 22.812C22.6462 22.4139 21.791 21.5735 20.696 20.4123L20.6021 20.3128H20.4665C19.215 20.3681 17.9636 20.5118 16.733 20.7441C15.3876 20.9652 14.0631 21.2859 12.7595 21.7062L12.6344 21.7393L12.5718 21.861C12.0086 23.0553 11.3933 24.2054 10.7467 25.2891C8.86952 28.4629 7.32604 30 6.03285 30V30ZM9.78727 22.9337C7.87877 23.8957 6.49172 25.0458 5.67826 26.3839C5.52183 26.6603 5.4384 26.97 5.42797 27.2796C5.42797 27.5229 5.48011 27.7662 5.5844 27.9763C5.71998 28.297 5.88684 28.4518 6.0537 28.4518H6.07456C6.26228 28.4297 7.34689 28.109 9.57869 24.3381C9.77684 24.0174 9.97499 23.6967 10.1523 23.376L10.6529 22.4913L9.78727 22.9337ZM24.2418 21.8831C24.659 22.2923 26.0982 23.4423 27.2141 23.4423H27.3809C27.8398 23.3539 28.2361 23.0332 28.4447 22.5798C28.5594 22.3807 28.5802 22.1374 28.5072 21.9163C28.2361 21.2749 26.5675 20.5229 23.4909 20.3349H22.667L23.5222 21.1864C23.9498 21.6066 24.1271 21.8057 24.2522 21.8942L24.2418 21.8831ZM15.5232 14.9052C15.0017 16.3428 14.3969 17.8357 13.7398 19.3397L13.4895 19.9258L14.0944 19.7709C15.0017 19.5276 15.9195 19.3397 16.8268 19.1959C17.4317 19.0964 18.0679 19.0079 18.7249 18.9415L19.3089 18.8863L18.9126 18.4107C18.3807 17.8025 17.7028 16.9842 17.0145 16.0995L15.7213 14.3855L15.5232 14.9052ZM14.9705 3.68089C14.3656 4.21169 13.7294 6.1248 14.5846 9.09953C14.6993 9.47551 14.8245 9.8515 14.9809 10.2164L15.3146 10.9684L15.5336 10.1722C16.0968 8.08215 16.66 5.38389 16.1385 4.41074C15.9716 4.09005 15.6379 3.54818 15.2729 3.54818H14.9705V3.68089Z" />
    <path fill-rule="evenodd" clip-rule="evenodd"
        d="M5.76274 28.2854C5.75047 28.2706 5.73832 28.2548 5.7263 28.238C5.71249 28.2187 5.69885 28.1981 5.6854 28.1761C5.65026 28.1187 5.61646 28.0521 5.5844 27.9763C5.48011 27.7662 5.42797 27.5229 5.42797 27.2796C5.4384 26.97 5.52183 26.6603 5.67826 26.3839C5.69368 26.3585 5.7093 26.3332 5.72513 26.308C5.73053 26.2994 5.73597 26.2908 5.74142 26.2822C6.2825 25.4291 7.05957 24.6535 8.05882 23.9554C8.19159 23.8626 8.32829 23.7713 8.46887 23.6812C8.47653 23.6763 8.48419 23.6714 8.49187 23.6665C8.56007 23.6231 8.62919 23.5799 8.69921 23.5371C8.97294 23.3697 9.26051 23.2071 9.56172 23.0495C9.56407 23.0483 9.56642 23.047 9.56877 23.0458C9.64083 23.0081 9.71366 22.9708 9.78727 22.9337L10.6529 22.4913L10.1523 23.376C10.1284 23.4192 10.1041 23.4624 10.0795 23.5056C10.0788 23.5068 10.0781 23.5081 10.0774 23.5093C9.92011 23.7855 9.74944 24.0617 9.57877 24.3379C9.54121 24.4014 9.50389 24.464 9.46698 24.5255C9.46601 24.5272 9.46503 24.5288 9.46405 24.5304C9.36254 24.6996 9.26348 24.8614 9.16684 25.0163C8.99069 25.2987 8.8226 25.5578 8.66241 25.7958C7.04552 28.1974 6.2345 28.433 6.07456 28.4518H6.0537C5.95453 28.4518 5.85535 28.3971 5.76274 28.2854ZM4.53649 29.152C4.47085 29.0542 4.41305 28.9496 4.36421 28.8389C4.32968 28.77 4.29761 28.7003 4.26801 28.6297C4.25649 28.6022 4.24534 28.5746 4.23457 28.547C4.0764 28.1404 3.99859 27.7098 4.00002 27.2796C4.00007 27.2636 4.00024 27.2476 4.00051 27.2315C4.00974 26.6899 4.14456 26.1504 4.40272 25.6621C4.40987 25.6486 4.41712 25.6351 4.42446 25.6217C4.43878 25.5954 4.45346 25.5694 4.4685 25.5434C5.21507 24.3164 6.38474 23.2074 7.92216 22.2541C8.44248 21.9315 9.00492 21.6266 9.60733 21.3411C9.72918 21.2833 9.85267 21.2264 9.97777 21.1702C10.4701 20.9492 10.9875 20.7405 11.5289 20.545L11.6436 20.5008L11.6958 20.3902C11.7198 20.3392 11.7438 20.2882 11.7677 20.2371C11.9039 19.9464 12.0379 19.6548 12.1699 19.3622C12.2572 19.1685 12.3436 18.9744 12.4291 18.7799C12.4307 18.7763 12.4323 18.7727 12.4339 18.7691C13.0616 17.3405 13.6401 15.889 14.1714 14.4149C14.1741 14.4076 14.1767 14.4002 14.1794 14.3929C14.2422 14.2185 14.3043 14.0437 14.3658 13.8687C14.4538 13.6179 14.5406 13.3665 14.626 13.1145C14.6435 13.0626 14.661 13.0108 14.6784 12.9589L14.7306 12.8152L14.6576 12.6825C14.4298 12.3118 14.2198 11.9302 14.028 11.5394C13.9073 11.2932 13.7937 11.0434 13.6876 10.7904C13.6853 10.7848 13.683 10.7793 13.6807 10.7738C13.5108 10.3671 13.36 9.95217 13.2288 9.53081C13.2273 9.5254 13.2257 9.52 13.2242 9.51461C13.2221 9.50721 13.2199 9.49982 13.2178 9.49244C12.4517 6.79912 12.7077 4.53268 13.4705 3.22331C13.6229 2.96163 13.7956 2.73818 13.9844 2.55719C14.1671 2.38202 14.3649 2.24662 14.5742 2.15482C14.6776 2.10994 14.7853 2.07406 14.8953 2.04818C15.0293 2.01667 15.1667 2 15.3042 2C15.7839 2.01106 16.2532 2.19905 16.6078 2.54187C16.941 2.86207 17.2223 3.22638 17.4307 3.64579C17.4311 3.64643 17.4314 3.64707 17.4317 3.64771C17.4411 3.66582 17.4502 3.68428 17.4592 3.70308C17.4618 3.70854 17.4644 3.71402 17.4669 3.71954C18.0007 4.86599 17.8111 7.25535 16.9376 10.5505C16.937 10.553 16.9363 10.5554 16.9357 10.5579C16.8668 10.8176 16.7936 11.0831 16.7162 11.3539C16.6549 11.5685 16.591 11.7865 16.5244 12.0079C16.5139 12.0466 16.5009 12.0853 16.4879 12.124C16.4748 12.1627 16.4618 12.2014 16.4514 12.2401C16.4409 12.2788 16.4279 12.3203 16.4149 12.3618C16.4018 12.4032 16.3888 12.4447 16.3784 12.4834L16.3471 12.6272L16.4201 12.7488L16.4931 12.8594L16.5557 12.9589C16.6655 13.1204 16.7763 13.2811 16.8879 13.4412C16.8977 13.4552 16.9075 13.4692 16.9173 13.4832C17.324 14.0646 17.7428 14.6365 18.1732 15.1981C18.1776 15.2038 18.182 15.2096 18.1865 15.2154C18.7734 15.9803 19.3819 16.7261 20.0107 17.4505C20.0183 17.4592 20.0258 17.4679 20.0334 17.4766C20.1689 17.6325 20.3054 17.7874 20.4427 17.9413C20.5749 18.0894 20.708 18.2365 20.8418 18.3827C20.9284 18.4772 21.0154 18.5713 21.1027 18.6651L21.1861 18.7646H22.2916C22.7713 18.7646 23.1989 18.7646 23.5743 18.7978C25.919 18.9431 27.6998 19.4007 28.7854 20.1193C29.2691 20.4394 29.6148 20.8114 29.8109 21.2306C29.8273 21.2687 29.8427 21.307 29.8569 21.3457C29.8707 21.3829 29.8834 21.4204 29.8952 21.4582C30.0718 22.0263 30.0222 22.6494 29.769 23.189C29.7501 23.2293 29.73 23.2691 29.7089 23.3084C29.7047 23.3162 29.7004 23.324 29.6961 23.3318C29.2783 24.1652 28.5377 24.747 27.6646 24.914C27.6225 24.922 27.5801 24.9291 27.5373 24.9352C27.5222 24.9379 27.507 24.9403 27.4918 24.9423C27.382 24.9573 27.2731 24.9573 27.1723 24.9573C26.246 24.9573 25.1673 24.5094 24.0718 23.6854C23.8375 23.5091 23.6024 23.3157 23.3679 23.1058C23.3533 23.0927 23.3387 23.0796 23.3241 23.0663L23.2719 23.0221C23.2719 23.0221 23.245 22.9935 23.1987 22.9466C23.1895 22.9372 23.1795 22.927 23.1688 22.9163C23.1653 22.9127 23.1617 22.9091 23.158 22.9055C23.1581 22.9055 23.158 22.9054 23.158 22.9055C23.1304 22.8778 23.0984 22.8461 23.0633 22.812C22.9191 22.6743 22.7224 22.4837 22.4816 22.2453C22.4793 22.243 22.477 22.2407 22.4747 22.2385C22.2329 21.999 21.9469 21.7116 21.625 21.3814C21.3414 21.0905 21.0298 20.7663 20.696 20.4123L20.6021 20.3128H20.4665C20.1807 20.3254 19.8949 20.3427 19.6094 20.3645C19.5563 20.3686 19.5032 20.3728 19.4501 20.3772C19.2583 20.393 19.0667 20.4109 18.8753 20.4309C18.8722 20.4313 18.8691 20.4316 18.866 20.4319C18.5865 20.4612 18.3074 20.495 18.029 20.5331C17.595 20.5927 17.1627 20.663 16.733 20.7441C16.1804 20.8349 15.6313 20.9426 15.0857 21.067C14.8836 21.1131 14.682 21.1615 14.4809 21.2122C14.4754 21.2136 14.4699 21.215 14.4644 21.2163C14.2627 21.2673 14.0615 21.3206 13.8608 21.3762C13.8202 21.3875 13.7797 21.3988 13.7392 21.4102C13.4364 21.4956 13.1347 21.5863 12.8342 21.6822C12.8093 21.6902 12.7844 21.6981 12.7595 21.7062L12.6344 21.7393L12.5718 21.861C12.3578 22.3147 12.1364 22.7621 11.9085 23.2018C11.7539 23.5001 11.5964 23.7949 11.4363 24.0859C11.434 24.0901 11.4317 24.0944 11.4293 24.0986C11.2431 24.4368 11.0534 24.7697 10.8607 25.0968C10.8559 25.105 10.8511 25.1131 10.8463 25.1213C10.8132 25.1774 10.78 25.2333 10.7467 25.2891C10.4605 25.773 10.1821 26.2188 9.91108 26.627C8.40468 28.8959 7.12887 30 6.03285 30C5.42944 29.9815 4.87736 29.6597 4.53649 29.152ZM14.0944 19.7709C14.2266 19.7355 14.359 19.7012 14.4916 19.6681C14.4953 19.6672 14.4989 19.6663 14.5025 19.6654C14.5832 19.6452 14.6639 19.6255 14.7447 19.6063C14.9347 19.5609 15.125 19.5178 15.3153 19.4769C15.82 19.3684 16.325 19.2754 16.8268 19.1959C17.0525 19.1588 17.2826 19.1232 17.5165 19.0897C17.6197 19.0749 17.7237 19.0605 17.8283 19.0466C17.9536 19.03 18.0799 19.014 18.207 18.9988C18.2198 18.9972 18.2326 18.9957 18.2454 18.9942C18.4039 18.9754 18.5638 18.9578 18.7249 18.9415L19.3089 18.8863L18.9126 18.4107C18.8271 18.313 18.7379 18.2098 18.6454 18.1018C18.6434 18.0994 18.6414 18.0971 18.6394 18.0947C18.4801 17.9086 18.3114 17.7083 18.1361 17.4967C17.7814 17.0685 17.3996 16.5944 17.0145 16.0995L15.7213 14.3855L15.5232 14.9052C15.5079 14.9475 15.4925 14.9898 15.477 15.0321C15.3544 15.3678 15.2273 15.7064 15.0961 16.0473C14.825 16.7519 14.5365 17.4666 14.2341 18.1865C14.1224 18.4524 14.0088 18.7189 13.8935 18.9859C13.8915 18.9905 13.8896 18.995 13.8876 18.9996C13.8591 19.0656 13.8305 19.1316 13.8017 19.1977C13.7811 19.245 13.7605 19.2923 13.7398 19.3397L13.4895 19.9258L14.0944 19.7709ZM15.9584 8.43849C16.2914 6.90424 16.4916 5.37268 16.2143 4.58501C16.1922 4.52204 16.1669 4.46382 16.1385 4.41074C16.1273 4.38919 16.1153 4.36664 16.1026 4.34332C15.9849 4.12688 15.8059 3.84433 15.5983 3.68089C15.4955 3.59992 15.3857 3.54818 15.2729 3.54818H14.9705V3.68089C14.4105 4.17224 13.8238 5.84806 14.418 8.45399C14.4657 8.66321 14.521 8.87844 14.5846 9.09953C14.5855 9.10237 14.5863 9.10522 14.5872 9.10806C14.5902 9.11788 14.5932 9.1277 14.5962 9.13751C14.6846 9.42529 14.7795 9.71284 14.8902 9.99522C14.8907 9.99656 14.8913 9.99791 14.8918 9.99926C14.9204 10.072 14.95 10.1444 14.9809 10.2164L15.3146 10.9684L15.5336 10.1722C15.553 10.1004 15.5723 10.0278 15.5917 9.95461C15.5926 9.95113 15.5935 9.94764 15.5944 9.94415C15.6983 9.55002 15.8009 9.13796 15.8953 8.72274C15.8971 8.71446 15.899 8.70618 15.9009 8.69791C15.9204 8.61152 15.9396 8.525 15.9584 8.43849ZM24.2526 21.8936C24.2526 21.8936 24.2526 21.8937 24.2526 21.8936C24.2563 21.8972 24.2601 21.9009 24.2639 21.9046C24.272 21.9124 24.2805 21.9204 24.2892 21.9286C24.3002 21.939 24.3117 21.9497 24.3237 21.9607C24.3357 21.9718 24.3482 21.9831 24.3611 21.9948C24.3609 21.9946 24.3613 21.995 24.3611 21.9948C24.507 22.1262 24.7127 22.2963 24.9547 22.4728C25.5871 22.9338 26.472 23.4423 27.2141 23.4423H27.3809C27.8055 23.3605 28.1764 23.0799 28.3948 22.6793C28.4041 22.6622 28.4131 22.6448 28.4219 22.6273C28.4297 22.6116 28.4373 22.5958 28.4447 22.5798C28.5594 22.3807 28.5802 22.1374 28.5072 21.9163C28.4986 21.8958 28.4885 21.8752 28.477 21.8545C28.4702 21.8422 28.4628 21.8299 28.455 21.8176C28.3637 21.6738 28.2042 21.5263 27.9764 21.3824C27.4 21.0183 26.3865 20.6768 24.9339 20.4758C24.7326 20.4479 24.5228 20.4228 24.3046 20.4006C24.3015 20.4003 24.2985 20.4 24.2954 20.3997C24.0389 20.3738 23.7707 20.352 23.4909 20.3349H22.667L23.5222 21.1864C23.6718 21.3334 23.7907 21.4533 23.8875 21.5509C23.965 21.629 24.0283 21.6929 24.0818 21.7448C24.085 21.748 24.0883 21.7512 24.0915 21.7542C24.1403 21.8015 24.1808 21.8384 24.2165 21.8671C24.2238 21.8729 24.2308 21.8784 24.2377 21.8836C24.2384 21.8841 24.239 21.8846 24.2397 21.8851C24.2397 21.885 24.2397 21.8851 24.2397 21.8851C24.2439 21.8882 24.2485 21.8907 24.2526 21.8936L24.2418 21.8831C24.2453 21.8866 24.2489 21.8901 24.2526 21.8936Z" />
</svg>