<svg viewBox="0 0 20 20" fill="none" xmlns="http://www.w3.org/2000/svg">
<path d="M15.3802 11.2135H11.2135V15.3802C11.2135 15.6012 11.1257 15.8132 10.9695 15.9695C10.8132 16.1257 10.6012 16.2135 10.3802 16.2135C10.1592 16.2135 9.94723 16.1257 9.79095 15.9695C9.63467 15.8132 9.54688 15.6012 9.54688 15.3802V11.2135H5.38021C5.15919 11.2135 4.94723 11.1257 4.79095 10.9695C4.63467 10.8132 4.54688 10.6012 4.54688 10.3802C4.54688 10.1592 4.63467 9.94723 4.79095 9.79095C4.94723 9.63467 5.15919 9.54688 5.38021 9.54688H9.54688V5.38021C9.54688 5.15919 9.63467 4.94723 9.79095 4.79095C9.94723 4.63467 10.1592 4.54687 10.3802 4.54688C10.6012 4.54687 10.8132 4.63467 10.9695 4.79095C11.1257 4.94723 11.2135 5.15919 11.2135 5.38021V9.54688H15.3802C15.6012 9.54688 15.8132 9.63467 15.9695 9.79095C16.1257 9.94723 16.2135 10.1592 16.2135 10.3802C16.2135 10.6012 16.1257 10.8132 15.9695 10.9695C15.8132 11.1257 15.6012 11.2135 15.3802 11.2135Z" fill="currentColor"/>
</svg>
