<svg viewBox="0 0 40 40" fill="none" xmlns="http://www.w3.org/2000/svg">
	<path d="M16 17.9948V13.3281H24V17.9948" stroke="currentColor" stroke-linecap="round" stroke-linejoin="round" />
	<path d="M15.9987 24H14.6654C14.3117 24 13.9726 23.8595 13.7226 23.6095C13.4725 23.3594 13.332 23.0203 13.332 22.6667V19.3333C13.332 18.9797 13.4725 18.6406 13.7226 18.3905C13.9726 18.1405 14.3117 18 14.6654 18H25.332C25.6857 18 26.0248 18.1405 26.2748 18.3905C26.5249 18.6406 26.6654 18.9797 26.6654 19.3333V22.6667C26.6654 23.0203 26.5249 23.3594 26.2748 23.6095C26.0248 23.8595 25.6857 24 25.332 24H23.9987" stroke="currentColor" stroke-linecap="round" stroke-linejoin="round" />
	<path d="M24 21.3281H16V26.6615H24V21.3281Z" stroke="currentColor" stroke-linecap="round" stroke-linejoin="round" />
</svg>
