<svg width="15" height="14" viewBox="0 0 15 14" xmlns="http://www.w3.org/2000/svg">

    <path fill-rule="evenodd" clip-rule="evenodd"
        d="M4.22814 3.27291C4.03288 3.07765 3.71629 3.07765 3.52103 3.27291C3.32577 3.46818 3.32577 3.78476 3.52103 3.98002L6.54053 6.99951L3.52054 10.0195C3.32528 10.2148 3.32528 10.5313 3.52054 10.7266C3.71581 10.9219 4.03239 10.9219 4.22765 10.7266L7.24763 7.70662L10.2714 10.7304C10.4667 10.9257 10.7833 10.9257 10.9785 10.7304C11.1738 10.5352 11.1738 10.2186 10.9785 10.0233L7.95474 6.99951L10.9781 3.97619C11.1733 3.78093 11.1733 3.46435 10.9781 3.26908C10.7828 3.07382 10.4662 3.07382 10.271 3.26908L7.24763 6.29241L4.22814 3.27291Z" />

</svg>