<svg width="24" height="24" viewBox="0 0 24 24" xmlns="http://www.w3.org/2000/svg">
    <path fill-rule="evenodd" clip-rule="evenodd"
        d="M18.7859 6.53033C19.0788 6.23744 19.0788 5.76256 18.7859 5.46967C18.493 5.17678 18.0181 5.17678 17.7252 5.46967L12.1276 11.0673L6.53001 5.46967C6.23712 5.17678 5.76224 5.17678 5.46935 5.46967C5.17646 5.76256 5.17646 6.23744 5.46935 6.53033L11.067 12.1279L5.46869 17.7262C5.1758 18.0191 5.1758 18.494 5.46869 18.7868C5.76159 19.0797 6.23646 19.0797 6.52935 18.7868L12.1276 13.1886L17.7259 18.7868C18.0188 19.0797 18.4936 19.0797 18.7865 18.7868C19.0794 18.494 19.0794 18.0191 18.7865 17.7262L13.1883 12.1279L18.7859 6.53033Z" />
</svg>