<svg width="40" height="41" viewBox="0 0 40 41" xmlns="http://www.w3.org/2000/svg">
    <path
        d="M26.5646 23.1515V18.6766L20.7871 21.9949C20.5718 22.1213 20.3445 22.1845 20.1053 22.1845C19.866 22.1845 19.6388 22.1213 19.4234 21.9949L13.3589 18.5059C13.2273 18.4301 13.1345 18.3352 13.0804 18.2215C13.0263 18.1077 12.9995 17.9813 13 17.8422C13 17.7032 13.027 17.5768 13.0811 17.463C13.1352 17.3492 13.2278 17.2544 13.3589 17.1786L19.4234 13.6896C19.5311 13.6264 19.6419 13.5789 19.7557 13.547C19.8696 13.5152 19.9861 13.4995 20.1053 13.5C20.2249 13.5 20.3416 13.5159 20.4555 13.5478C20.5694 13.5797 20.6799 13.6269 20.7871 13.6896L27.6232 17.6337C27.7428 17.6969 27.8356 17.7886 27.9017 17.909C27.9677 18.0293 28.0005 18.1588 28 18.2973V23.1515C28 23.3664 27.9311 23.5467 27.7933 23.6923C27.6555 23.8379 27.4852 23.9105 27.2823 23.91C27.0789 23.91 26.9086 23.8372 26.7713 23.6915C26.634 23.5459 26.5651 23.3659 26.5646 23.1515ZM19.4234 26.5457L15.8349 24.4978C15.5957 24.3587 15.4103 24.1691 15.2787 23.9289C15.1471 23.6888 15.0813 23.4296 15.0813 23.1515V20.2693L19.4234 22.7533C19.6388 22.8797 19.866 22.9429 20.1053 22.9429C20.3445 22.9429 20.5718 22.8797 20.7871 22.7533L25.1292 20.2693V23.1515C25.1292 23.4296 25.0634 23.6888 24.9318 23.9289C24.8002 24.1691 24.6148 24.3587 24.3756 24.4978L20.7871 26.5457C20.6794 26.6089 20.5689 26.6564 20.4555 26.6883C20.3421 26.7201 20.2254 26.7358 20.1053 26.7353C19.9856 26.7353 19.8689 26.7196 19.755 26.6883C19.6411 26.6569 19.5306 26.6094 19.4234 26.5457Z" />
</svg>