<svg width="18" height="18" viewBox="0 0 18 18" xmlns="http://www.w3.org/2000/svg">
    <path
        d="M9.72 13.99C4.25 13.99 1.13 10.24 1 4H3.74C3.83 8.58 5.85 10.52 7.45 10.92V4H10.03V7.95C11.61 7.78 13.27 5.98 13.83 4H16.41C16.199 5.02688 15.7783 5.99918 15.1744 6.85607C14.5704 7.71296 13.7962 8.43601 12.9 8.98C13.9003 9.47706 14.7839 10.1806 15.4923 11.0442C16.2008 11.9078 16.7181 12.9118 17.01 13.99H14.17C13.9079 13.0535 13.3753 12.2152 12.6388 11.5801C11.9024 10.9451 10.9948 10.5415 10.03 10.42V13.99H9.72V13.99Z" />
</svg>