<svg width="18" height="18" viewBox="0 0 18 18" xmlns="http://www.w3.org/2000/svg">
    <path
        d="M9.00001 2C12.8661 2 16 5.1339 16 9C16 12.8661 12.8661 16 9.00001 16C7.76295 16.002 6.54767 15.6746 5.47901 15.0515L2.00281 16L2.94921 12.5224C2.32557 11.4534 1.99794 10.2376 2.00001 9C2.00001 5.1339 5.13391 2 9.00001 2ZM6.61441 5.71L6.47441 5.7156C6.38377 5.72112 6.29519 5.74493 6.21401 5.7856C6.13807 5.8286 6.06875 5.88235 6.00821 5.9452C5.92421 6.0243 5.87661 6.0929 5.82551 6.1594C5.56659 6.49603 5.42719 6.90932 5.42931 7.334C5.43071 7.677 5.52031 8.0109 5.66031 8.3231C5.94661 8.9545 6.41771 9.62299 7.03931 10.2425C7.18911 10.3916 7.33611 10.5414 7.49431 10.6807C8.26668 11.3607 9.18708 11.8511 10.1823 12.1129L10.5799 12.1738C10.7094 12.1808 10.8389 12.171 10.9691 12.1647C11.173 12.1542 11.372 12.099 11.5522 12.003C11.6439 11.9558 11.7333 11.9044 11.8203 11.849C11.8203 11.849 11.8504 11.8294 11.9078 11.786C12.0023 11.716 12.0604 11.6663 12.1388 11.5844C12.1969 11.5242 12.2473 11.4535 12.2858 11.373C12.3404 11.2589 12.395 11.0412 12.4174 10.8599C12.4342 10.7213 12.4293 10.6457 12.4272 10.5988C12.4244 10.5239 12.3621 10.4462 12.2942 10.4133L11.8868 10.2306C11.8868 10.2306 11.2778 9.96529 10.9054 9.79589C10.8664 9.77888 10.8247 9.76915 10.7822 9.76719C10.7343 9.76228 10.6859 9.76766 10.6403 9.783C10.5946 9.79833 10.5528 9.82326 10.5176 9.85609C10.5141 9.85469 10.4672 9.89459 9.9611 10.5078C9.93206 10.5468 9.89204 10.5763 9.84617 10.5925C9.80029 10.6087 9.75062 10.6109 9.7035 10.5988C9.6579 10.5866 9.61323 10.5711 9.5698 10.5526C9.483 10.5162 9.4529 10.5022 9.3934 10.477C8.99165 10.3017 8.61969 10.0648 8.29091 9.77489C8.20271 9.69789 8.12081 9.61389 8.03681 9.53269C7.76142 9.26896 7.52141 8.9706 7.32281 8.6451L7.28151 8.5786C7.25184 8.53391 7.22786 8.48571 7.21011 8.4351C7.18351 8.3322 7.25281 8.2496 7.25281 8.2496C7.25281 8.2496 7.42291 8.0634 7.50201 7.9626C7.57901 7.8646 7.64411 7.7694 7.68611 7.7015C7.76871 7.5685 7.79461 7.432 7.75121 7.3263C7.55521 6.8475 7.35221 6.3708 7.14361 5.8976C7.10231 5.8038 6.97981 5.7366 6.86851 5.7233C6.83071 5.7191 6.79291 5.7149 6.75511 5.7121C6.6611 5.70743 6.5669 5.70836 6.47301 5.7149L6.61441 5.71Z" />
</svg>