<svg width="18" height="18" viewBox="0 0 18 18" xmlns="http://www.w3.org/2000/svg">
    <path
        d="M8.74708 3.68458L10.1533 2.27833C10.519 1.91268 10.9531 1.62263 11.4308 1.42474C11.9086 1.22685 12.4206 1.125 12.9377 1.125C13.4548 1.125 13.9668 1.22685 14.4446 1.42474C14.9223 1.62263 15.3564 1.91268 15.7221 2.27833C16.0877 2.64398 16.3778 3.07806 16.5757 3.55581C16.7736 4.03355 16.8754 4.54559 16.8754 5.0627C16.8754 5.57981 16.7736 6.09185 16.5757 6.56959C16.3778 7.04734 16.0877 7.48143 15.7221 7.84708L12.9096 10.6596C12.5439 11.0252 12.1099 11.3153 11.6321 11.5132C11.1544 11.7111 10.6423 11.813 10.1252 11.813C9.60809 11.813 9.09604 11.7111 8.61829 11.5132C8.14055 11.3153 7.70646 11.0252 7.34083 10.6596C7.19187 10.4995 7.11075 10.288 7.11453 10.0694C7.1183 9.85076 7.20668 9.64213 7.36108 9.48733C7.51588 9.33293 7.72451 9.24455 7.94312 9.24078C8.16172 9.237 8.37328 9.31812 8.53333 9.46708C8.74214 9.67654 8.99024 9.84274 9.26341 9.95613C9.53657 10.0695 9.82943 10.1279 10.1252 10.1279C10.421 10.1279 10.7138 10.0695 10.987 9.95613C11.2602 9.84274 11.5083 9.67654 11.7171 9.46708L14.5296 6.65458C14.9312 6.22826 15.151 5.66224 15.1423 5.07659C15.1336 4.49093 14.897 3.93171 14.4829 3.51754C14.0687 3.10338 13.5095 2.86685 12.9238 2.85812C12.3382 2.8494 11.7721 3.06918 11.3458 3.47083L9.93958 4.87708C9.77953 5.02604 9.56797 5.10715 9.34937 5.10338C9.13076 5.0996 8.92213 5.01122 8.76733 4.85683C8.61293 4.70202 8.52455 4.49339 8.52078 4.27479C8.517 4.05618 8.59812 3.84462 8.74708 3.68458ZM3.47083 14.5296C3.67964 14.739 3.92774 14.9052 4.20091 15.0186C4.47407 15.132 4.76693 15.1904 5.0627 15.1904C5.35847 15.1904 5.65133 15.132 5.9245 15.0186C6.19766 14.9052 6.44576 14.739 6.65458 14.5296L8.06083 13.1233C8.22087 12.9744 8.43243 12.8932 8.65103 12.897C8.86964 12.9008 9.07827 12.9892 9.23308 13.1436C9.38747 13.2984 9.47585 13.507 9.47962 13.7256C9.4834 13.9442 9.40229 14.1558 9.25333 14.3158L7.84708 15.7221C7.48143 16.0877 7.04734 16.3778 6.56959 16.5757C6.09185 16.7736 5.57981 16.8754 5.0627 16.8754C4.54559 16.8754 4.03355 16.7736 3.55581 16.5757C3.07806 16.3778 2.64398 16.0877 2.27833 15.7221C1.91268 15.3564 1.62263 14.9223 1.42474 14.4446C1.22685 13.9668 1.125 13.4548 1.125 12.9377C1.125 12.4206 1.22685 11.9086 1.42474 11.4308C1.62263 10.9531 1.91268 10.519 2.27833 10.1533L5.09083 7.34083C5.45646 6.97515 5.89055 6.68508 6.36829 6.48718C6.84604 6.28928 7.35809 6.18742 7.8752 6.18742C8.39231 6.18742 8.90436 6.28928 9.38211 6.48718C9.85986 6.68508 10.2939 6.97515 10.6596 7.34083C10.8085 7.50087 10.8897 7.71243 10.8859 7.93104C10.8821 8.14964 10.7937 8.35827 10.6393 8.51308C10.4845 8.66747 10.2759 8.75585 10.0573 8.75963C9.83868 8.7634 9.62712 8.68229 9.46708 8.53333C9.25826 8.32386 9.01016 8.15767 8.737 8.04427C8.46383 7.93087 8.17097 7.8725 7.8752 7.8725C7.57943 7.8725 7.28657 7.93087 7.01341 8.04427C6.74024 8.15767 6.49214 8.32386 6.28333 8.53333L3.47083 11.3458C3.26136 11.5546 3.09517 11.8027 2.98177 12.0759C2.86837 12.3491 2.81 12.6419 2.81 12.9377C2.81 13.2335 2.86837 13.5263 2.98177 13.7995C3.09517 14.0727 3.26136 14.3208 3.47083 14.5296Z" />
</svg>