<svg width="18" height="18" viewBox="0 0 18 18" xmlns="http://www.w3.org/2000/svg">
    <path
        d="M9.00619 9.25759C11.4701 9.25685 13.4658 7.40728 13.465 5.12732C13.4642 2.84663 11.4661 0.999265 9.00301 1C6.53993 1.00074 4.5434 2.85031 4.5442 5.13027C4.54738 7.40949 6.54391 9.25612 9.00619 9.25759ZM9.00619 3.42048C10.0267 3.42048 10.8541 4.18635 10.8541 5.131C10.8541 6.07565 10.0267 6.84079 9.00619 6.84079C7.98567 6.84079 7.15829 6.07492 7.15829 5.13027C7.15988 4.18635 7.98647 3.42122 9.00619 3.42048ZM10.8096 12.6264C11.7276 12.4336 12.6034 12.0974 13.4006 11.6332C14.0079 11.2705 14.1827 10.5215 13.7909 9.95946C13.4054 9.4062 12.6122 9.2392 12.0066 9.58425C10.1698 10.6473 7.83784 10.6473 6.00106 9.58425C5.39145 9.23037 4.58632 9.39958 4.20243 9.96313C3.81696 10.5274 3.99817 11.2749 4.60858 11.6317C4.60937 11.6317 4.61016 11.6325 4.61016 11.6325C5.40655 12.096 6.28242 12.4322 7.19962 12.6257L4.70554 14.9343C4.20879 15.4199 4.23184 16.1865 4.7572 16.6463C5.2619 17.0877 6.05034 17.0877 6.55504 16.6463L9.0046 14.3774L11.4558 16.6463C11.966 17.1179 12.7918 17.1179 13.3021 16.6463C13.8115 16.174 13.8115 15.4096 13.3021 14.9373L10.8096 12.6264Z" />
</svg>