<svg viewBox="0 0 40 40" xmlns="http://www.w3.org/2000/svg">
<path d="M22.8594 22.7148C22.3527 22.7148 21.8994 22.9148 21.5527 23.2281L16.7994 20.4615C16.8327 20.3081 16.8594 20.1548 16.8594 19.9948C16.8594 19.8348 16.8327 19.6815 16.7994 19.5281L21.4994 16.7881C21.8594 17.1215 22.3327 17.3281 22.8594 17.3281C23.966 17.3281 24.8594 16.4348 24.8594 15.3281C24.8594 14.2215 23.966 13.3281 22.8594 13.3281C21.7527 13.3281 20.8594 14.2215 20.8594 15.3281C20.8594 15.4881 20.886 15.6415 20.9194 15.7948L16.2194 18.5348C15.8594 18.2015 15.386 17.9948 14.8594 17.9948C13.7527 17.9948 12.8594 18.8881 12.8594 19.9948C12.8594 21.1015 13.7527 21.9948 14.8594 21.9948C15.386 21.9948 15.8594 21.7881 16.2194 21.4548L20.966 24.2281C20.9327 24.3681 20.9127 24.5148 20.9127 24.6615C20.9127 25.7348 21.786 26.6081 22.8594 26.6081C23.9327 26.6081 24.806 25.7348 24.806 24.6615C24.806 23.5881 23.9327 22.7148 22.8594 22.7148Z"/>
</svg>

