<svg width="40" height="40" viewBox="0 0 40 40" xmlns="http://www.w3.org/2000/svg">

    <path fill-rule="evenodd" clip-rule="evenodd"
        d="M18.9742 14.1906C19.0935 14.0474 19.2415 13.9309 19.4086 13.8485C19.5757 13.766 19.7582 13.7196 19.9444 13.712C20.1306 13.7045 20.3163 13.7361 20.4895 13.8047C20.6628 13.8733 20.8197 13.9775 20.9502 14.1106L21.0222 14.1906L23.6435 17.3359H25.6335C25.7734 17.3356 25.9118 17.3649 26.0396 17.4218C26.1674 17.4787 26.2818 17.5619 26.3752 17.6661C26.4686 17.7702 26.5389 17.893 26.5816 18.0262C26.6243 18.1594 26.6383 18.3002 26.6228 18.4392L26.5615 18.9499L26.4948 19.4432L26.4402 19.8126L26.3768 20.2092L26.3048 20.6259L26.2235 21.0579L26.1328 21.4986C26.0848 21.7206 26.0335 21.9432 25.9782 22.1646C25.8306 22.7499 25.6453 23.3251 25.4235 23.8866L25.2762 24.2466L25.1335 24.5719L24.9988 24.8612L24.9362 24.9906L24.7702 25.3172C24.5568 25.7239 24.1542 25.9639 23.7282 25.9986L23.6215 26.0026H16.3682C16.1351 26.0044 15.9059 25.9428 15.7051 25.8244C15.5043 25.7061 15.3394 25.5354 15.2282 25.3306L15.0735 25.0306L14.9535 24.7839C14.9321 24.7385 14.911 24.6929 14.8902 24.6472L14.7568 24.3479C14.4525 23.6409 14.2054 22.9105 14.0182 22.1639C13.982 22.0189 13.9473 21.8736 13.9142 21.7279L13.8195 21.2959L13.7348 20.8732L13.6602 20.4646L13.5935 20.0732L13.5355 19.7039L13.4862 19.3619L13.4262 18.9066L13.3822 18.5359C13.3783 18.5019 13.3745 18.4679 13.3708 18.4339C13.3569 18.3029 13.3691 18.1704 13.4069 18.0442C13.4447 17.918 13.5072 17.8005 13.5909 17.6988C13.6745 17.597 13.7776 17.5129 13.8942 17.4514C14.0107 17.3899 14.1383 17.3522 14.2695 17.3406L14.3602 17.3359H16.3528L18.9742 14.1906ZM18.6388 20.4839C18.5937 20.3266 18.4924 20.1914 18.354 20.104C18.2157 20.0166 18.05 19.9831 17.8886 20.01C17.7272 20.0368 17.5813 20.1221 17.4787 20.2496C17.3761 20.377 17.3239 20.5378 17.3322 20.7012L17.3408 20.7786L17.6742 22.7786L17.6908 22.8546C17.7359 23.0119 17.8373 23.1471 17.9756 23.2345C18.114 23.3218 18.2796 23.3553 18.4411 23.3285C18.6025 23.3016 18.7484 23.2163 18.851 23.0889C18.9536 22.9614 19.0057 22.8006 18.9975 22.6372L18.9888 22.5599L18.6555 20.5599L18.6388 20.4839ZM22.1075 20.0119C21.9464 19.985 21.781 20.0182 21.6427 20.1052C21.5045 20.1922 21.403 20.327 21.3575 20.4839L21.3408 20.5599L21.0075 22.5599C20.9797 22.7276 21.017 22.8997 21.1118 23.0408C21.2066 23.1819 21.3518 23.2815 21.5176 23.3191C21.6834 23.3568 21.8573 23.3296 22.0038 23.2433C22.1502 23.1569 22.2582 23.0179 22.3055 22.8546L22.3222 22.7786L22.6555 20.7786C22.6844 20.6042 22.6429 20.4256 22.5402 20.2818C22.4374 20.138 22.2818 20.041 22.1075 20.0119ZM19.9982 15.0439L18.0882 17.3359H21.9082L19.9982 15.0439Z" />

</svg>