<svg width="70" height="70" viewBox="0 0 70 70" xmlns="http://www.w3.org/2000/svg">
    <path fill-rule="evenodd" clip-rule="evenodd"
        d="M31.9796 33.0924C33.1885 31.4066 33.3724 29.3478 33.1885 27.9688L31.7017 28.167C31.8512 29.288 31.685 30.9292 30.7606 32.2183C30.0185 33.2532 28.7179 34.1576 26.4427 34.3164H25V34.3198C24.9964 34.3196 24.9928 34.3194 24.9892 34.3192L24.9881 34.3377L24.9011 34.3426L24.9444 35.0796L24.9011 35.8166L24.9881 35.8214L24.9892 35.84C25.0529 35.8363 25.1161 35.833 25.1786 35.8302C25.5422 35.8446 25.8913 35.8442 26.2264 35.8301C28.636 35.9451 29.9953 36.8736 30.7606 37.9409C31.685 39.23 31.8512 40.8712 31.7017 41.9922L33.1885 42.1904C33.3724 40.8114 33.1885 38.7526 31.9796 37.0668C31.6498 36.6068 31.251 36.1847 30.776 35.8164H47V34.3164H30.8098C31.27 33.9544 31.6577 33.5414 31.9796 33.0924Z" />
</svg>