<svg width="70" height="70" viewBox="0 0 70 70" xmlns="http://www.w3.org/2000/svg">
    <path fill-rule="evenodd" clip-rule="evenodd"
        d="M38.0204 33.0924C36.8115 31.4066 36.6276 29.3478 36.8115 27.9688L38.2983 28.167C38.1488 29.288 38.315 30.9292 39.2394 32.2183C39.9815 33.2532 41.2821 34.1576 43.5573 34.3164H45V34.3198C45.0036 34.3196 45.0072 34.3194 45.0108 34.3192L45.0119 34.3377L45.0989 34.3426L45.0556 35.0796L45.0989 35.8166L45.0119 35.8214L45.0108 35.84C44.9471 35.8363 44.8839 35.833 44.8214 35.8302C44.4578 35.8446 44.1087 35.8442 43.7736 35.8301C41.364 35.9451 40.0047 36.8736 39.2394 37.9409C38.315 39.23 38.1488 40.8712 38.2983 41.9922L36.8115 42.1904C36.6276 40.8114 36.8115 38.7526 38.0204 37.0668C38.3502 36.6068 38.749 36.1847 39.224 35.8164H23V34.3164H39.1902C38.73 33.9544 38.3423 33.5414 38.0204 33.0924Z" />
</svg>