<svg width="16" height="16" viewBox="0 0 16 16" xmlns="http://www.w3.org/2000/svg">
    <path
        d="M4.19561 2.86721C4.32062 2.74223 4.49016 2.67202 4.66694 2.67202C4.84371 2.67202 5.01325 2.74223 5.13827 2.86721L7.80494 5.53388C7.92638 5.65961 7.99357 5.82801 7.99205 6.00281C7.99054 6.17761 7.92042 6.34482 7.79682 6.46842C7.67321 6.59203 7.506 6.66214 7.33121 6.66366C7.15641 6.66518 6.98801 6.59798 6.86227 6.47654L5.33361 4.94788V12.6719C5.33361 12.8487 5.26337 13.0183 5.13834 13.1433C5.01332 13.2683 4.84375 13.3385 4.66694 13.3385C4.49013 13.3385 4.32056 13.2683 4.19553 13.1433C4.07051 13.0183 4.00027 12.8487 4.00027 12.6719V4.94788L2.4716 6.47654C2.34587 6.59798 2.17747 6.66518 2.00267 6.66366C1.82787 6.66214 1.66066 6.59203 1.53706 6.46842C1.41345 6.34482 1.34334 6.17761 1.34182 6.00281C1.3403 5.82801 1.4075 5.65961 1.52894 5.53388L4.19561 2.86721ZM10.6669 11.0625V3.33854C10.6669 3.16173 10.7372 2.99216 10.8622 2.86714C10.9872 2.74211 11.1568 2.67187 11.3336 2.67188C11.5104 2.67187 11.68 2.74211 11.805 2.86714C11.93 2.99216 12.0003 3.16173 12.0003 3.33854V11.0625L13.5289 9.53388C13.6547 9.41244 13.8231 9.34524 13.9979 9.34676C14.1727 9.34828 14.3399 9.41839 14.4635 9.542C14.5871 9.6656 14.6572 9.83281 14.6587 10.0076C14.6602 10.1824 14.593 10.3508 14.4716 10.4765L11.8049 13.1432C11.6799 13.2682 11.5104 13.3384 11.3336 13.3384C11.1568 13.3384 10.9873 13.2682 10.8623 13.1432L8.19561 10.4765C8.07417 10.3508 8.00697 10.1824 8.00849 10.0076C8.01001 9.83281 8.08012 9.6656 8.20373 9.542C8.32733 9.41839 8.49454 9.34828 8.66934 9.34676C8.84414 9.34524 9.01254 9.41244 9.13827 9.53388L10.6669 11.0625Z" />
</svg>