<svg width="40" height="40" viewBox="0 0 40 40" xmlns="http://www.w3.org/2000/svg">
    <path fill-rule="evenodd" clip-rule="evenodd"
        d="M18.7471 26.6582C18.7517 26.7718 18.7533 26.8856 18.7521 26.9993C17.7541 26.8029 16.8098 26.3957 15.9828 25.8036C15.1558 25.2116 14.4652 24.4492 13.9577 23.5678C13.4481 22.6875 13.1332 21.7083 13.0339 20.696C12.9347 19.6837 13.0536 18.6619 13.3826 17.6995C13.4411 17.7323 13.5631 17.803 13.6765 17.8743C14.0014 18.083 14.3122 18.3128 14.607 18.5622C15.367 19.2008 16.346 20.2119 17.2022 21.6947C18.0578 23.1768 18.4445 24.5304 18.6165 25.5072C18.6851 25.8876 18.7287 26.2721 18.7471 26.6582ZM21.5271 13.3418C21.5228 13.2279 21.5214 13.1139 21.5228 13C22.5208 13.1964 23.4651 13.6043 24.2921 14.1964C25.1191 14.7884 25.8097 15.5508 26.3172 16.4322C26.8267 17.3124 27.1416 18.2915 27.2408 19.3037C27.34 20.3158 27.2212 21.3374 26.8923 22.2998C26.8338 22.2677 26.7118 22.197 26.5984 22.125C26.3722 21.9808 26.0475 21.7561 25.6679 21.4371C24.9079 20.7985 23.9289 19.7874 23.0727 18.3053C22.2171 16.8225 21.8304 15.4696 21.6584 14.492C21.5721 14.0033 21.5392 13.6094 21.5271 13.3418ZM25.9196 22.971C26.0198 23.035 26.1218 23.0962 26.2254 23.1544L26.3556 23.23C25.7416 24.4141 24.8005 25.397 23.6441 26.0619C22.4902 26.7302 21.1686 27.0533 19.8365 26.9928V26.8423C19.8372 26.7583 19.8372 26.638 19.8302 26.4861C19.8169 26.1816 19.7805 25.749 19.6874 25.2192C19.4998 24.1609 19.0848 22.7135 18.1742 21.1372C17.2643 19.5603 16.2186 18.4775 15.3955 17.786C14.9839 17.4402 14.6276 17.1924 14.3708 17.0286C14.242 16.9475 14.1384 16.8873 14.0649 16.8453L13.9326 16.7732C14.5464 15.5877 15.4878 14.6035 16.6448 13.9378C17.8011 13.2682 19.1255 12.9453 20.4601 13.0076C20.4599 13.0159 20.4591 13.0322 20.4582 13.0517C20.4565 13.0864 20.4543 13.1311 20.4538 13.158C20.4527 13.2766 20.4548 13.3952 20.4601 13.5136C20.4802 13.9386 20.5281 14.3618 20.6036 14.7805C20.7905 15.8395 21.2056 17.2862 22.1155 18.8632C23.0261 20.4394 24.0718 21.5229 24.8949 22.2137C25.2195 22.4883 25.5618 22.7413 25.9196 22.971Z" />
</svg>