<svg width="16" height="16" viewBox="0 0 16 16" xmlns="http://www.w3.org/2000/svg">

    <path fill-rule="evenodd" clip-rule="evenodd"
        d="M15.165 1.29481C15.1564 1.17952 15.1081 1.06664 15.0199 0.978478C14.8767 0.835249 14.6682 0.797082 14.4901 0.863975L1.16784 5.52678C0.974335 5.59451 0.841783 5.77349 0.833426 5.97833C0.825069 6.18317 0.942601 6.37235 1.12994 6.45562L6.95421 9.04418L9.54277 14.8684C9.62603 15.0558 9.81522 15.1733 10.0201 15.165C10.2249 15.1566 10.4039 15.0241 10.4716 14.8306L15.1347 1.50736C15.1602 1.43916 15.1703 1.36652 15.165 1.29481ZM12.7635 2.52779L2.68855 6.05401L7.22227 8.069L12.7635 2.52779ZM7.92938 8.7761L13.4706 3.23486L9.94438 13.3098L7.92938 8.7761Z" />

</svg>