<svg width="48" height="48" viewBox="0 0 48 48" xmlns="http://www.w3.org/2000/svg">
    <path fill-rule="evenodd" clip-rule="evenodd"
        d="M17.8035 23.6479C21.3819 22.0223 23.7641 20.9421 24.9603 20.418C28.3649 18.9314 29.0806 18.6748 29.5407 18.6641C29.6429 18.6641 29.8679 18.6855 30.0212 18.8138C30.1439 18.9207 30.1746 19.0598 30.195 19.1667C30.2155 19.2737 30.2359 19.4983 30.2155 19.6694C30.0315 21.7014 29.234 26.6318 28.825 28.8991C28.6512 29.8616 28.3138 30.1825 27.9867 30.2145C27.271 30.2787 26.7291 29.7226 26.0441 29.252C24.9603 28.5141 24.3571 28.0542 23.3041 27.3269C22.0874 26.4927 22.8746 26.0328 23.5699 25.2842C23.7539 25.0917 26.8927 22.0971 26.954 21.8297C26.9643 21.7977 26.9643 21.6693 26.8927 21.6052C26.8211 21.541 26.7189 21.5624 26.6371 21.5838C26.5246 21.6052 24.807 22.803 21.4637 25.1666C20.973 25.5195 20.5334 25.6906 20.1346 25.6799C19.695 25.6692 18.8566 25.4232 18.2227 25.2093C17.4559 24.9527 16.8425 24.8136 16.8936 24.3644C16.9243 24.1291 17.231 23.8939 17.8035 23.6479Z" />
</svg>