<svg width="40" height="40" viewBox="0 0 40 40" xmlns="http://www.w3.org/2000/svg">
    <path fill-rule="evenodd" clip-rule="evenodd"
        d="M15.0207 22.3552C15.6334 21.7426 16.4643 21.3984 17.3306 21.3984H22.664C23.5303 21.3984 24.3612 21.7426 24.9738 22.3552C25.5865 22.9678 25.9306 23.7987 25.9306 24.6651V25.9984C25.9306 26.3298 25.662 26.5984 25.3306 26.5984C24.9993 26.5984 24.7306 26.3298 24.7306 25.9984V24.6651C24.7306 24.117 24.5129 23.5913 24.1253 23.2038C23.7377 22.8162 23.2121 22.5984 22.664 22.5984H17.3306C16.7825 22.5984 16.2569 22.8162 15.8693 23.2038C15.4817 23.5913 15.264 24.117 15.264 24.6651V25.9984C15.264 26.3298 14.9953 26.5984 14.664 26.5984C14.3326 26.5984 14.064 26.3298 14.064 25.9984V24.6651C14.064 23.7987 14.4081 22.9678 15.0207 22.3552Z" />
    <path fill-rule="evenodd" clip-rule="evenodd"
        d="M20.0025 14.5984C18.8611 14.5984 17.9358 15.5237 17.9358 16.6651C17.9358 17.8065 18.8611 18.7318 20.0025 18.7318C21.1439 18.7318 22.0692 17.8065 22.0692 16.6651C22.0692 15.5237 21.1439 14.5984 20.0025 14.5984ZM16.7358 16.6651C16.7358 14.861 18.1984 13.3984 20.0025 13.3984C21.8066 13.3984 23.2692 14.861 23.2692 16.6651C23.2692 18.4692 21.8066 19.9318 20.0025 19.9318C18.1984 19.9318 16.7358 18.4692 16.7358 16.6651Z" />
</svg>