<svg width="40" height="40" viewBox="0 0 40 40" xmlns="http://www.w3.org/2000/svg">
    <path
        d="M20.0035 13.7812C23.44 13.7812 26.2257 16.5669 26.2257 20.0035C26.2257 23.44 23.44 26.2257 20.0035 26.2257C18.9039 26.2275 17.8236 25.9365 16.8737 25.3826L13.7837 26.2257L14.625 23.1345C14.0706 22.1843 13.7794 21.1036 13.7813 20.0035C13.7813 16.5669 16.5669 13.7812 20.0035 13.7812ZM17.8829 17.079L17.7585 17.084C17.6779 17.0889 17.5992 17.1101 17.527 17.1462C17.4595 17.1844 17.3979 17.2322 17.3441 17.2881C17.2694 17.3584 17.2271 17.4194 17.1817 17.4785C16.9516 17.7777 16.8276 18.1451 16.8295 18.5226C16.8308 18.8275 16.9104 19.1243 17.0349 19.4018C17.2893 19.963 17.7081 20.5572 18.2606 21.1079C18.3938 21.2404 18.5245 21.3736 18.6651 21.4974C19.3516 22.1019 20.1698 22.5378 21.0544 22.7705L21.4078 22.8246C21.5229 22.8308 21.6381 22.8221 21.7538 22.8165C21.935 22.8072 22.1119 22.7581 22.2721 22.6728C22.3536 22.6308 22.4331 22.5852 22.5104 22.5359C22.5104 22.5359 22.5372 22.5185 22.5882 22.4799C22.6722 22.4177 22.7238 22.3735 22.7935 22.3007C22.8452 22.2472 22.89 22.1844 22.9242 22.1128C22.9727 22.0114 23.0213 21.8179 23.0412 21.6567C23.0561 21.5335 23.0517 21.4663 23.0499 21.4246C23.0474 21.358 22.992 21.289 22.9317 21.2597L22.5695 21.0973C22.5695 21.0973 22.0282 20.8615 21.6972 20.7109C21.6625 20.6958 21.6254 20.6872 21.5877 20.6854C21.5451 20.6811 21.5021 20.6858 21.4615 20.6995C21.4209 20.7131 21.3837 20.7353 21.3525 20.7644C21.3493 20.7632 21.3077 20.7987 20.8578 21.3437C20.832 21.3784 20.7964 21.4047 20.7556 21.4191C20.7148 21.4335 20.6707 21.4354 20.6288 21.4246C20.5883 21.4138 20.5486 21.4 20.51 21.3836C20.4328 21.3512 20.4061 21.3388 20.3532 21.3164C19.9961 21.1605 19.6654 20.95 19.3732 20.6923C19.2948 20.6238 19.222 20.5492 19.1473 20.477C18.9025 20.2425 18.6892 19.9773 18.5126 19.688L18.4759 19.6289C18.4496 19.5892 18.4282 19.5463 18.4125 19.5013C18.3888 19.4099 18.4504 19.3364 18.4504 19.3364C18.4504 19.3364 18.6016 19.1709 18.6719 19.0813C18.7404 18.9942 18.7982 18.9096 18.8356 18.8492C18.909 18.731 18.932 18.6097 18.8934 18.5157C18.7192 18.0901 18.5388 17.6664 18.3533 17.2458C18.3166 17.1624 18.2077 17.1027 18.1088 17.0908C18.0752 17.0871 18.0416 17.0834 18.008 17.0809C17.9245 17.0767 17.8407 17.0776 17.7573 17.0834L17.8829 17.079Z" />
</svg>