<svg xmlns="http://www.w3.org/2000/svg" viewBox="0 0 60 60" fill="white">

    <path
        d="M25,28.25c-2.07,0-3.75-1.68-3.75-3.75s1.68-3.75,3.75-3.75,3.75,1.68,3.75,3.75-1.68,3.75-3.75,3.75Zm0-6c-1.24,0-2.25,1.01-2.25,2.25s1.01,2.25,2.25,2.25,2.25-1.01,2.25-2.25-1.01-2.25-2.25-2.25Z" />
    <path
        d="M27,40.25h-4.66c-.4,0-.79-.08-1.15-.25-.36-.17-.68-.41-.94-.71-.26-.3-.45-.66-.56-1.04-.11-.38-.13-.78-.07-1.17l.49-3.15c.14-.88,.59-1.69,1.27-2.27,.68-.58,1.55-.9,2.44-.9h4.18c.41,0,.75,.34,.75,.75s-.34,.75-.75,.75h-4.18c-.54,0-1.06,.19-1.46,.54-.41,.35-.68,.83-.76,1.36l-.49,3.15c-.03,.18-.02,.36,.03,.53s.14,.34,.25,.47c.12,.14,.27,.25,.43,.32,.16,.07,.34,.11,.52,.11h4.66c.41,0,.75,.34,.75,.75s-.34,.75-.75,.75Z" />
    <path
        d="M37.66,40.25h-5.33c-.4,0-.79-.09-1.15-.25-.36-.16-.68-.41-.94-.71-.26-.3-.45-.66-.56-1.04-.11-.39-.13-.78-.07-1.18l.49-3.16c.14-.88,.59-1.69,1.27-2.27,.68-.58,1.55-.9,2.44-.9h2.36c.89,0,1.76,.32,2.44,.9,.68,.58,1.13,1.39,1.27,2.27l.49,3.15c.06,.39,.04,.79-.07,1.18-.11,.38-.3,.74-.56,1.04-.26,.3-.58,.55-.94,.71-.35,.16-.75,.25-1.15,.25Zm-3.84-8c-.54,0-1.06,.19-1.46,.54-.41,.35-.68,.83-.76,1.36l-.49,3.16c-.03,.18-.02,.36,.03,.53,.05,.17,.14,.34,.25,.47,.12,.14,.26,.25,.42,.32,.17,.08,.34,.12,.52,.12h5.33c.18,0,.36-.04,.52-.11,.16-.08,.31-.19,.43-.32,.12-.13,.2-.3,.25-.47,.05-.17,.06-.35,.03-.53h0s-.49-3.16-.49-3.16c-.08-.53-.35-1.01-.76-1.36-.41-.35-.93-.54-1.46-.54h-2.36Z" />
    <path
        d="M35,28.25c-2.07,0-3.75-1.68-3.75-3.75s1.68-3.75,3.75-3.75,3.75,1.68,3.75,3.75-1.68,3.75-3.75,3.75Zm0-6c-1.24,0-2.25,1.01-2.25,2.25s1.01,2.25,2.25,2.25,2.25-1.01,2.25-2.25-1.01-2.25-2.25-2.25Z" />
</svg>