<svg width="60" height="61" viewBox="0 0 60 61" fill="none" xmlns="http://www.w3.org/2000/svg">
    <path fill-rule="evenodd" clip-rule="evenodd"
        d="M24 24.625C23.6685 24.625 23.3505 24.7567 23.1161 24.9911C22.8817 25.2255 22.75 25.5435 22.75 25.875V34.125H37.25V25.875C37.25 25.5435 37.1183 25.2255 36.8839 24.9911C36.6495 24.7567 36.3315 24.625 36 24.625H24ZM22.0555 23.9305C22.5712 23.4147 23.2707 23.125 24 23.125H36C36.7293 23.125 37.4288 23.4147 37.9445 23.9305C38.4603 24.4462 38.75 25.1457 38.75 25.875V34.875C38.75 35.2892 38.4142 35.625 38 35.625H22C21.5858 35.625 21.25 35.2892 21.25 34.875V25.875C21.25 25.1457 21.5397 24.4462 22.0555 23.9305Z"
        fill="white" />
    <path fill-rule="evenodd" clip-rule="evenodd"
        d="M19.25 37.875C19.25 37.4608 19.5858 37.125 20 37.125H40C40.4142 37.125 40.75 37.4608 40.75 37.875C40.75 38.2892 40.4142 38.625 40 38.625H20C19.5858 38.625 19.25 38.2892 19.25 37.875Z"
        fill="white" />
</svg>