<svg width="60" height="60" viewBox="0 0 60 60" fill="none" xmlns="http://www.w3.org/2000/svg">
    <path fill-rule="evenodd" clip-rule="evenodd"
        d="M29.6706 19.8262C29.8784 19.7246 30.1216 19.7246 30.3294 19.8262L38.1402 23.6451C38.1403 23.6451 38.1401 23.6451 38.1402 23.6451C38.3589 23.752 38.5504 23.9079 38.6992 24.1005C38.8482 24.2931 38.9508 24.5175 38.9991 24.7562C39.5441 27.4538 39.2903 30.2522 38.2686 32.8077C37.2469 35.3632 35.5017 37.5651 33.2471 39.1434L31.577 40.3115C31.1148 40.6348 30.5645 40.8082 30.0005 40.8082C29.4366 40.8082 28.8863 40.6349 28.4242 40.3116C28.4241 40.3116 28.4242 40.3116 28.4242 40.3116L26.7542 39.1436C24.4994 37.5654 22.7538 35.3634 21.7319 32.8079C20.71 30.2524 20.4559 27.4543 21.0009 24.7565C21.0494 24.5176 21.1524 24.2924 21.3017 24.0997C21.4508 23.9072 21.6422 23.7517 21.861 23.645C21.8613 23.6449 21.8607 23.6451 21.861 23.645L29.6706 19.8262ZM30 21.3349L22.5195 24.9928L22.5182 24.9934C22.5062 24.9992 22.4957 25.0078 22.4875 25.0183C22.4793 25.0289 22.4737 25.0412 22.471 25.0543C21.9839 27.4659 22.2112 29.9665 23.1247 32.251C24.0382 34.5354 25.5984 36.5037 27.6141 37.9146L29.2839 39.0824C29.4939 39.2294 29.7442 39.3082 30.0005 39.3082C30.2569 39.3082 30.507 39.2294 30.7171 39.0825L32.3869 37.9146C34.4024 36.5036 35.9624 34.5353 36.8758 32.2508C37.7891 29.9665 38.0161 27.4653 37.5289 25.0538C37.5263 25.0407 37.5207 25.0284 37.5125 25.0179C37.5043 25.0073 37.4938 24.9988 37.4818 24.9929L30 21.3349Z"
        fill="white" />
</svg>