<svg width="60" height="60" viewBox="0 0 60 60" fill="none" xmlns="http://www.w3.org/2000/svg">
    <path
        d="M23.3385 36.6693C22.8802 36.6693 22.488 36.5062 22.1619 36.1801C21.8358 35.854 21.6724 35.4615 21.6719 35.0026V25.0026C21.6719 24.5443 21.8352 24.152 22.1619 23.8259C22.4885 23.4998 22.8808 23.3365 23.3385 23.3359H36.6719C37.1302 23.3359 37.5227 23.4993 37.8494 23.8259C38.176 24.1526 38.3391 24.5448 38.3385 25.0026V35.0026C38.3385 35.4609 38.1755 35.8534 37.8494 36.1801C37.5233 36.5068 37.1308 36.6698 36.6719 36.6693H23.3385ZM30.0052 30.8359L36.6719 26.6693V25.0026L30.0052 29.1693L23.3385 25.0026V26.6693L30.0052 30.8359Z"
        fill="#CF000C" />
</svg>