<svg xmlns="http://www.w3.org/2000/svg" viewBox="0 0 60 61" fill="white">
    <path
        d="M36.07,41.63c-.35,0-.7-.11-1.01-.33l-4.89-3.1c-.14-.1-.23-.08-.32-.02l-4.95,3.14c-.6,.42-1.43,.41-2.04-.06-.61-.46-.84-1.23-.58-1.95l1.3-5.52c.04-.12,.04-.17,.03-.21-.01-.05-.04-.08-.08-.11l-3.66-3.29c-.55-.42-.78-1.17-.53-1.88,.24-.71,.89-1.17,1.65-1.17h5.09c.05,0,.1-.01,.14-.04,.04-.03,.07-.07,.09-.11l2.06-5.72s0,0,0-.01c.26-.68,.9-1.12,1.63-1.12h0c.73,0,1.37,.44,1.63,1.12l2.07,5.75c.03,.08,.12,.14,.22,.14h5.09c.76,0,1.4,.46,1.65,1.17,.24,.71,.01,1.46-.58,1.92l-3.58,3.22c-.08,.06-.11,.1-.12,.15-.01,.04-.01,.09,0,.14l1.34,5.68c.23,.64,0,1.4-.6,1.87-.32,.24-.69,.36-1.06,.36Zm-9.99-13h-5.08c-.14,0-.2,.09-.23,.16-.03,.1,0,.18,.08,.24l3.66,3.29c.25,.19,.45,.49,.56,.84,.1,.34,.09,.72-.03,1.06l-1.3,5.52c-.06,.18-.03,.26,.05,.33,.05,.04,.16,.1,.29,0l4.95-3.14c.54-.38,1.39-.4,1.98,.02l4.89,3.1c.16,.11,.27,.06,.32,.01,.09-.07,.11-.15,.08-.25l-1.35-5.68c-.1-.26-.11-.64,0-.98,.1-.35,.31-.65,.6-.88l3.58-3.22c.13-.1,.15-.18,.12-.28-.02-.07-.08-.16-.23-.16h-5.09c-.72,0-1.37-.45-1.63-1.12l-2.07-5.75c-.04-.12-.16-.14-.22-.14h0c-.08,0-.18,.03-.22,.15l-2.07,5.73c-.13,.34-.35,.62-.65,.82-.29,.2-.64,.33-.99,.3Z" />
</svg>