<svg width="22" height="22" viewBox="0 0 22 22" fill="none" xmlns="http://www.w3.org/2000/svg">
    <path
        d="M5.66667 2C5.35725 2 5.0605 2.11853 4.84171 2.3295C4.62292 2.54048 4.5 2.82663 4.5 3.125V18.875C4.5 19.1734 4.62292 19.4595 4.84171 19.6705C5.0605 19.8815 5.35725 20 5.66667 20H9.16667V16.0625C9.16667 15.9133 9.22812 15.7702 9.33752 15.6648C9.44692 15.5593 9.59529 15.5 9.75 15.5H13.25C13.4047 15.5 13.5531 15.5593 13.6625 15.6648C13.7719 15.7702 13.8333 15.9133 13.8333 16.0625V20H17.3333C17.6428 20 17.9395 19.8815 18.1583 19.6705C18.3771 19.4595 18.5 19.1734 18.5 18.875V3.125C18.5 2.82663 18.3771 2.54048 18.1583 2.3295C17.9395 2.11853 17.6428 2 17.3333 2H5.66667ZM6.83333 4.8125C6.83333 4.66332 6.89479 4.52024 7.00419 4.41475C7.11358 4.30926 7.26196 4.25 7.41667 4.25H8.58333C8.73804 4.25 8.88642 4.30926 8.99581 4.41475C9.10521 4.52024 9.16667 4.66332 9.16667 4.8125V5.9375C9.16667 6.08668 9.10521 6.22976 8.99581 6.33525C8.88642 6.44074 8.73804 6.5 8.58333 6.5H7.41667C7.26196 6.5 7.11358 6.44074 7.00419 6.33525C6.89479 6.22976 6.83333 6.08668 6.83333 5.9375V4.8125ZM10.3333 4.8125C10.3333 4.66332 10.3948 4.52024 10.5042 4.41475C10.6136 4.30926 10.762 4.25 10.9167 4.25H12.0833C12.238 4.25 12.3864 4.30926 12.4958 4.41475C12.6052 4.52024 12.6667 4.66332 12.6667 4.8125V5.9375C12.6667 6.08668 12.6052 6.22976 12.4958 6.33525C12.3864 6.44074 12.238 6.5 12.0833 6.5H10.9167C10.762 6.5 10.6136 6.44074 10.5042 6.33525C10.3948 6.22976 10.3333 6.08668 10.3333 5.9375V4.8125ZM14.4167 4.25H15.5833C15.738 4.25 15.8864 4.30926 15.9958 4.41475C16.1052 4.52024 16.1667 4.66332 16.1667 4.8125V5.9375C16.1667 6.08668 16.1052 6.22976 15.9958 6.33525C15.8864 6.44074 15.738 6.5 15.5833 6.5H14.4167C14.262 6.5 14.1136 6.44074 14.0042 6.33525C13.8948 6.22976 13.8333 6.08668 13.8333 5.9375V4.8125C13.8333 4.66332 13.8948 4.52024 14.0042 4.41475C14.1136 4.30926 14.262 4.25 14.4167 4.25ZM6.83333 8.1875C6.83333 8.03832 6.89479 7.89524 7.00419 7.78975C7.11358 7.68426 7.26196 7.625 7.41667 7.625H8.58333C8.73804 7.625 8.88642 7.68426 8.99581 7.78975C9.10521 7.89524 9.16667 8.03832 9.16667 8.1875V9.3125C9.16667 9.46168 9.10521 9.60476 8.99581 9.71025C8.88642 9.81574 8.73804 9.875 8.58333 9.875H7.41667C7.26196 9.875 7.11358 9.81574 7.00419 9.71025C6.89479 9.60476 6.83333 9.46168 6.83333 9.3125V8.1875ZM10.9167 7.625H12.0833C12.238 7.625 12.3864 7.68426 12.4958 7.78975C12.6052 7.89524 12.6667 8.03832 12.6667 8.1875V9.3125C12.6667 9.46168 12.6052 9.60476 12.4958 9.71025C12.3864 9.81574 12.238 9.875 12.0833 9.875H10.9167C10.762 9.875 10.6136 9.81574 10.5042 9.71025C10.3948 9.60476 10.3333 9.46168 10.3333 9.3125V8.1875C10.3333 8.03832 10.3948 7.89524 10.5042 7.78975C10.6136 7.68426 10.762 7.625 10.9167 7.625ZM13.8333 8.1875C13.8333 8.03832 13.8948 7.89524 14.0042 7.78975C14.1136 7.68426 14.262 7.625 14.4167 7.625H15.5833C15.738 7.625 15.8864 7.68426 15.9958 7.78975C16.1052 7.89524 16.1667 8.03832 16.1667 8.1875V9.3125C16.1667 9.46168 16.1052 9.60476 15.9958 9.71025C15.8864 9.81574 15.738 9.875 15.5833 9.875H14.4167C14.262 9.875 14.1136 9.81574 14.0042 9.71025C13.8948 9.60476 13.8333 9.46168 13.8333 9.3125V8.1875ZM7.41667 11H8.58333C8.73804 11 8.88642 11.0593 8.99581 11.1648C9.10521 11.2702 9.16667 11.4133 9.16667 11.5625V12.6875C9.16667 12.8367 9.10521 12.9798 8.99581 13.0852C8.88642 13.1907 8.73804 13.25 8.58333 13.25H7.41667C7.26196 13.25 7.11358 13.1907 7.00419 13.0852C6.89479 12.9798 6.83333 12.8367 6.83333 12.6875V11.5625C6.83333 11.4133 6.89479 11.2702 7.00419 11.1648C7.11358 11.0593 7.26196 11 7.41667 11ZM10.3333 11.5625C10.3333 11.4133 10.3948 11.2702 10.5042 11.1648C10.6136 11.0593 10.762 11 10.9167 11H12.0833C12.238 11 12.3864 11.0593 12.4958 11.1648C12.6052 11.2702 12.6667 11.4133 12.6667 11.5625V12.6875C12.6667 12.8367 12.6052 12.9798 12.4958 13.0852C12.3864 13.1907 12.238 13.25 12.0833 13.25H10.9167C10.762 13.25 10.6136 13.1907 10.5042 13.0852C10.3948 12.9798 10.3333 12.8367 10.3333 12.6875V11.5625ZM14.4167 11H15.5833C15.738 11 15.8864 11.0593 15.9958 11.1648C16.1052 11.2702 16.1667 11.4133 16.1667 11.5625V12.6875C16.1667 12.8367 16.1052 12.9798 15.9958 13.0852C15.8864 13.1907 15.738 13.25 15.5833 13.25H14.4167C14.262 13.25 14.1136 13.1907 14.0042 13.0852C13.8948 12.9798 13.8333 12.8367 13.8333 12.6875V11.5625C13.8333 11.4133 13.8948 11.2702 14.0042 11.1648C14.1136 11.0593 14.262 11 14.4167 11Z"
        fill="#CF000C" />
</svg>