<svg width="160" height="14" viewBox="0 0 160 14" fill="none" xmlns="http://www.w3.org/2000/svg">
    <g clip-path="url(#clip0_3477_94628)">
        <path
            d="M1.0258 2.90147H3.2275L3.71538 0.277344H7.15555L6.66767 2.90147H8.59417L9.06954 0.277344H12.5097L12.0218 2.90147H13.7357L13.6606 5.73344H11.4839L11.0211 8.20167H12.7724L12.6974 11.0466H10.4831L9.99526 13.6967H6.55509L7.04297 11.0466H5.11647L4.62859 13.6967H1.21344L1.70132 11.0466H0L0.0750583 8.20167H2.22673L2.68959 5.73344H0.963248L1.03831 2.90147H1.0258ZM5.6669 8.21466H7.59339L8.05625 5.74643H6.12976L5.6669 8.21466Z"
            fill="#CF000C" />
        <path
            d="M33.0749 0.277344L34.2884 5.66849L37.6535 0.277344H41.3063L33.0374 13.6967H29.3721L31.9241 9.53971L29.4096 0.277344H33.0749Z"
            fill="#020202" />
        <path
            d="M42.4199 0.277344H47.4488C50.2885 0.277344 51.602 1.29062 51.602 3.09633C51.602 4.72016 50.7138 6.16213 49.3128 6.66877C50.4636 7.01952 51.1392 7.91588 51.1392 9.11102C51.1392 9.31887 51.1267 9.52672 51.0891 9.74757C50.6513 12.1119 48.9625 13.7227 45.2346 13.7227H39.918L42.4199 0.277344ZM47.5364 9.17598C47.5364 8.50046 47.061 8.24065 46.0352 8.24065H44.4965L44.0212 10.8258H45.5598C46.7232 10.8258 47.3112 10.488 47.4989 9.52672C47.5114 9.40981 47.5364 9.29289 47.5364 9.17598ZM48.0743 3.97969C48.0743 3.36913 47.6239 3.17427 46.7232 3.17427H45.4473L45.0219 5.46063H46.2979C47.3487 5.46063 47.8741 5.14886 48.0368 4.30446C48.0493 4.18755 48.0743 4.07063 48.0743 3.97969Z"
            fill="#020202" />
        <path
            d="M62.7118 0.277344L64.4631 13.7097H60.6602L60.435 11.4883H56.1317L55.1184 13.7097H51.3154L58.0957 0.277344H62.7118ZM57.5578 8.42251H60.1848L59.7595 3.70689L57.5578 8.42251Z"
            fill="#020202" />
        <path
            d="M71.7192 9.37084H70.4682L69.6676 13.7097H66.0898L68.6043 0.277344H73.4455C76.2477 0.277344 78.0616 1.40753 78.0616 3.77184C78.0616 4.09661 78.0241 4.44736 77.949 4.82409C77.3736 7.8899 74.9342 9.37084 71.7192 9.37084ZM74.3838 4.34343C74.3838 3.49904 73.7958 3.14829 72.77 3.14829H71.6316L71.0187 6.4869H72.1696C73.3705 6.4869 74.1086 6.00624 74.3337 4.8111C74.3713 4.64222 74.3838 4.48633 74.3838 4.33044"
            fill="#020202" />
        <path
            d="M96.0123 3.30418H92.4346L92.9975 0.277344H103.756L103.18 3.30418H99.6026L97.6511 13.6967H94.0733L96.0123 3.30418Z"
            fill="#020202" />
        <path
            d="M108.496 9.37084H107.245L106.444 13.7097H102.866L105.381 0.277344H110.222C113.024 0.277344 114.838 1.40753 114.838 3.77184C114.838 4.09661 114.8 4.44736 114.725 4.82409C114.15 7.8899 111.711 9.37084 108.496 9.37084ZM111.16 4.34343C111.16 3.49904 110.572 3.14829 109.546 3.14829H108.408L107.795 6.4869H108.946C110.147 6.4869 110.885 6.00624 111.11 4.8111C111.148 4.64222 111.16 4.48633 111.16 4.33044"
            fill="#020202" />
        <path
            d="M115.438 8.74674C115.438 3.70635 118.879 0.0429688 123.207 0.0429688C126.535 0.0429688 128.361 2.0955 128.361 5.26523C128.361 10.2926 124.908 13.93 120.605 13.93C117.302 13.93 115.451 11.8905 115.451 8.74674M124.708 5.71991C124.708 4.08308 123.958 3.10877 122.644 3.10877C120.83 3.10877 119.141 5.16131 119.141 8.29207C119.141 9.90291 119.879 10.8642 121.193 10.8642C122.969 10.8642 124.721 8.85067 124.721 5.71991"
            fill="#020202" />
        <path
            d="M131.477 0.277344H134.968L133.604 7.57812L139.108 0.277344H142.624L140.109 13.6967H136.619L137.982 6.36998L132.478 13.6967H128.963L131.477 0.277344Z"
            fill="#020202" />
        <path
            d="M147.253 3.30418H143.675L144.25 0.277344H154.996L154.421 3.30418H150.843L148.904 13.6967H145.314L147.253 3.30418Z"
            fill="#020202" />
        <path
            d="M86.6299 0.0429688C89.357 0.0429688 92.0341 1.56288 91.8589 5.21327H88.6815C88.4938 3.66738 87.443 3.26466 86.0294 3.26466C83.8152 3.26466 82.4141 5.20028 82.0013 7.34374C81.651 9.29235 82.8019 10.7213 84.6658 10.7213C86.092 10.7213 87.3304 10.0328 87.9559 8.55188H91.2585C90.045 12.4361 86.8676 13.969 84.0779 13.969C80.7128 13.969 77.798 11.5917 78.5986 6.95402C79.5119 2.19943 83.1146 0.0559595 86.6174 0.0559595"
            fill="#020202" />
        <path
            d="M23.8455 0.0429688C26.5726 0.0429688 29.2497 1.56288 29.0746 5.21327H25.8971C25.7095 3.66738 24.6586 3.26466 23.245 3.26466C21.0308 3.26466 19.6297 5.20028 19.2169 7.34374C18.8666 9.29235 20.0175 10.7213 21.8815 10.7213C23.3076 10.7213 24.5461 10.0328 25.1715 8.55188H28.4741C27.2607 12.4361 24.0832 13.969 21.281 13.969C17.9159 13.969 15.0011 11.5917 15.8018 6.95402C16.715 2.19943 20.3178 0.0559595 23.8205 0.0559595"
            fill="#020202" />
        <path
            d="M157.092 13.877C158.312 13.877 159.301 12.8517 159.301 11.587C159.301 10.3222 158.312 9.29688 157.092 9.29688C155.871 9.29688 154.882 10.3222 154.882 11.587C154.882 12.8517 155.871 13.877 157.092 13.877Z"
            fill="#CF000C" />
    </g>
    <defs>
        <clipPath id="clip0_3477_94628">
            <rect width="160" height="13.913" fill="white" transform="translate(0 0.0429688)" />
        </clipPath>
    </defs>
</svg>