<svg width="71" height="77" viewBox="0 0 71 77" fill="none" xmlns="http://www.w3.org/2000/svg"
    vector-effect="non-scaling-stroke">
    <g opacity="0.4" clip-path="url(#clip0_5076_80419)">
        <path d="M70.3713 75.6462H0.629643V28.4988L34.7315 1.51499L70.3713 28.507V75.6462Z" stroke="white"
            stroke-width="1.25929" />
        <path
            d="M26.7779 39.753L26.7779 39.753C26.0056 40.4928 25.6296 41.3711 25.6296 42.4244C25.6296 43.4768 26.0051 44.3599 26.7779 45.1083C27.5536 45.8432 28.5205 46.2191 29.724 46.2191C30.9287 46.2191 31.8906 45.8426 32.6572 45.1084L26.7779 39.753ZM26.7779 39.753C27.5543 39.0092 28.5212 38.6296 29.724 38.6296C30.9269 38.6296 31.8881 39.0091 32.6551 39.7509L32.655 39.7509M26.7779 39.753L32.655 39.7509M32.655 39.7509L32.6595 39.7551M32.655 39.7509L32.6595 39.7551M32.6595 39.7551C33.4398 40.4954 33.8184 41.3731 33.8184 42.4244M32.6595 39.7551L33.8184 42.4244M38.3299 48.9043L38.3298 48.9043C37.5575 49.644 37.1816 50.5224 37.1816 51.5756C37.1816 52.6281 37.557 53.5111 38.3298 54.2596C39.1055 54.9945 40.0724 55.3704 41.276 55.3704C42.4806 55.3704 43.4426 54.9939 44.2092 54.2596L38.3299 48.9043ZM38.3299 48.9043C39.1063 48.1604 40.0731 47.7809 41.276 47.7809C42.4788 47.7809 43.4401 48.1604 44.207 48.9022L44.207 48.9022M38.3299 48.9043L44.207 48.9022M44.207 48.9022L44.2114 48.9064M44.207 48.9022L44.2114 48.9064M44.2114 48.9064C44.9917 49.6467 45.3704 50.5244 45.3704 51.5756M44.2114 48.9064L45.3704 51.5756M33.8184 42.4244C33.8184 43.4758 33.4396 44.3589 32.6573 45.1083L33.8184 42.4244ZM45.3704 51.5756C45.3704 52.627 44.9915 53.5101 44.2092 54.2596L45.3704 51.5756ZM30.6646 55.1939L39.3066 38.8061H40.3354L31.6934 55.1939H30.6646ZM27.5052 40.2586C26.944 40.8687 26.6549 41.6 26.6549 42.4244C26.6549 43.2487 26.944 43.98 27.5052 44.5901C28.0884 45.2241 28.8456 45.5372 29.724 45.5372C30.6024 45.5372 31.3597 45.2241 31.9428 44.5901C32.504 43.98 32.7931 43.2487 32.7931 42.4244C32.7931 41.6 32.504 40.8687 31.9428 40.2586C31.3597 39.6247 30.6024 39.3115 29.724 39.3115C28.8456 39.3115 28.0884 39.6247 27.5052 40.2586ZM39.0572 49.4099C38.496 50.02 38.2069 50.7513 38.2069 51.5756C38.2069 52.4 38.496 53.1313 39.0572 53.7414C39.6403 54.3753 40.3976 54.6885 41.276 54.6885C42.1544 54.6885 42.9116 54.3753 43.4948 53.7414C44.056 53.1313 44.3451 52.4 44.3451 51.5756C44.3451 50.7513 44.056 50.02 43.4948 49.4099C42.9116 48.7759 42.1544 48.4628 41.276 48.4628C40.3976 48.4628 39.6403 48.7759 39.0572 49.4099Z"
            stroke="white" stroke-width="1.25929" />
    </g>
    <defs>
        <clipPath id="clip0_5076_80419">
            <rect width="71.0009" height="75.5571" fill="white" transform="translate(0 0.71875)" />
        </clipPath>
    </defs>
</svg>