<svg width="468" height="204" viewBox="0 0 468 204" fill="none" xmlns="http://www.w3.org/2000/svg">
    <rect x="0.257812" width="467.743" height="204" rx="11.6571" fill="#F5F5F5" />
    <rect x="26.4844" y="26.2266" width="234.6" height="20.4" rx="2.91429" fill="#C7C7C7" />
    <rect x="306.258" y="74.3125" width="69.9429" height="14.5714" rx="2.91429" fill="#E0E0E0" />
    <rect x="306.258" y="100.547" width="113.657" height="14.5714" rx="2.91429" fill="#E0E0E0" />
    <rect x="306.258" y="126.773" width="113.657" height="14.5714" rx="2.91429" fill="#E0E0E0" />
    <rect x="26.4844" y="74.3125" width="196.714" height="14.5714" rx="2.91429" fill="#E0E0E0" />
    <rect x="26.4844" y="100.539" width="218.571" height="14.5714" rx="2.91429" fill="#E0E0E0" />
    <rect x="26.4844" y="126.773" width="215.657" height="14.5714" rx="2.91429" fill="#E0E0E0" />
    <rect x="26.4844" y="163.195" width="99.0857" height="14.5714" rx="2.91429" fill="#C7C7C7" />
    <rect x="274.203" y="74.3125" width="2.91429" height="67.0286" fill="#D9D9D9" />
    <path
        d="M439.072 29.0606C438.217 28.1622 437.203 27.4494 436.086 26.9631C434.969 26.4769 433.772 26.2266 432.564 26.2266C431.355 26.2266 430.158 26.4769 429.041 26.9631C427.925 27.4494 426.91 28.1622 426.056 29.0606L424.282 30.9245L422.509 29.0606C420.783 27.2466 418.442 26.2275 416.001 26.2275C413.56 26.2275 411.219 27.2466 409.493 29.0606C407.767 30.8747 406.797 33.335 406.797 35.9005C406.797 38.4659 407.767 40.9262 409.493 42.7403L411.266 44.6041L424.282 58.2837L437.298 44.6041L439.072 42.7403C439.927 41.8422 440.605 40.7759 441.067 39.6023C441.53 38.4287 441.768 37.1708 441.768 35.9005C441.768 34.6301 441.53 33.3722 441.067 32.1986C440.605 31.025 439.927 29.9587 439.072 29.0606Z"
        fill="#CF000C" />
    <g clip-path="url(#clip0_3477_117234)">
        <path
            d="M417.946 65.6152L414.594 61.8203L416.321 60.3844L419.876 59.8716L423.94 63.4613L424.549 61.7177L423.94 43.4613L425.667 41.8203H427.495L429.222 43.1536C429.222 43.1536 429.222 44.1793 429.222 44.487C429.222 44.7947 429.222 56.3844 429.222 56.3844L429.629 51.9742L431.356 51.0511L433.286 51.8716L434.708 53.2049C434.708 53.2049 435.216 56.2818 435.216 56.5895C435.216 56.8972 435.216 52.9998 435.216 52.9998L438.06 52.3844L439.889 53.9229V59.1536L440.702 55.0511L442.225 54.7434L444.257 55.2562L445.781 57.7177V62.4357L445.172 68.5895L444.257 72.9998L440.499 76.5895L434.302 78.2306L430.238 77.2049L425.159 72.5895L417.946 65.6152Z"
            fill="white" />
        <path
            d="M442.632 53.6174C441.921 53.6174 441.21 53.8225 440.702 54.2328C440.295 52.6943 438.975 51.5661 437.349 51.5661C436.537 51.5661 435.826 51.8738 435.216 52.2841C434.708 51.0533 433.489 50.1302 432.067 50.1302C431.356 50.1302 430.746 50.3353 430.238 50.643V44.2841C430.238 42.3353 428.714 40.7969 426.784 40.7969C424.854 40.7969 423.432 42.3353 423.432 44.2841V62.1302L421.502 60.2841C420.588 59.361 419.47 58.8482 418.149 58.8482C416.829 58.8482 415.711 59.361 414.797 60.2841C413.984 61.1046 413.984 62.4379 414.797 63.361L426.48 75.2584C428.613 77.6174 431.661 79.0533 434.81 79.0533C441.108 79.0533 446.188 73.8225 446.188 67.4635V61.4123V60.6943V57.2071C446.086 55.2584 444.562 53.6174 442.632 53.6174ZM444.562 60.5917V61.3097V67.361C444.562 72.8994 440.194 77.4123 434.81 77.4123C432.067 77.4123 429.426 76.1815 427.597 74.1302L415.813 62.1302C415.61 61.9251 415.61 61.5148 415.813 61.3097C416.422 60.6943 417.235 60.3866 418.048 60.3866C418.861 60.3866 419.673 60.6943 420.283 61.3097L423.635 64.4892C423.838 64.6943 424.245 64.7969 424.448 64.5917C424.753 64.4892 424.956 64.1815 424.956 63.8738V44.2841C424.956 43.2584 425.768 42.3353 426.784 42.3353C427.8 42.3353 428.613 43.1558 428.613 44.2841V53.7199V55.7712V56.4892C428.613 56.8994 428.918 57.3097 429.426 57.3097C429.934 57.3097 430.238 57.002 430.238 56.4892V55.7712V53.7199C430.238 52.6943 431.051 51.7712 432.067 51.7712C433.083 51.7712 433.895 52.5917 433.895 53.7199V55.1558V57.8225C433.895 58.2328 434.2 58.643 434.708 58.643C435.216 58.643 435.521 58.3353 435.521 57.8225V55.1558C435.521 54.1302 436.334 53.2071 437.349 53.2071C438.365 53.2071 439.178 54.0276 439.178 55.1558V59.2584C439.178 59.6687 439.483 60.0789 439.991 60.0789C440.397 60.0789 440.803 59.7712 440.803 59.2584V57.2071C440.803 56.1815 441.616 55.2584 442.632 55.2584C443.648 55.2584 444.461 56.0789 444.461 57.2071V60.5917H444.562Z"
            fill="#020202" />
    </g>
    <defs>
        <clipPath id="clip0_3477_117234">
            <rect width="32" height="38.1538" fill="white" transform="translate(414.086 40.7969)" />
        </clipPath>
    </defs>
</svg>