<svg width="18" height="18" viewBox="0 0 18 18" fill="none" xmlns="http://www.w3.org/2000/svg">
    <rect width="18" height="18" rx="3.6" fill="#FAE5E7" />
    <path
        d="M12.3831 6.61885C12.1876 6.42266 11.9556 6.26702 11.7001 6.16084C11.4447 6.05465 11.1709 6 10.8944 6C10.6178 6 10.344 6.05465 10.0886 6.16084C9.83315 6.26702 9.60105 6.42266 9.40558 6.61885L8.9999 7.02583L8.59422 6.61885C8.19937 6.22274 7.66384 6.00021 7.10544 6.00021C6.54704 6.00021 6.01152 6.22274 5.61667 6.61885C5.22182 7.01496 5 7.55221 5 8.11239C5 8.67258 5.22182 9.20982 5.61667 9.60594L6.02235 10.0129L8.9999 13L11.9774 10.0129L12.3831 9.60594C12.5787 9.40983 12.7338 9.177 12.8397 8.92073C12.9455 8.66446 13 8.38979 13 8.11239C13 7.835 12.9455 7.56032 12.8397 7.30405C12.7338 7.04779 12.5787 6.81495 12.3831 6.61885Z"
        fill="#CF000C" />
</svg>