<svg width="57" height="56" viewBox="0 0 57 56" fill="none" xmlns="http://www.w3.org/2000/svg">
    <path
        d="M28.5 21C26.9507 21.0017 25.4653 21.5816 24.3698 22.6127C23.2743 23.6438 22.658 25.0418 22.6562 26.5C22.6562 31.2062 27.9688 34.7605 28.1952 34.9093C28.2845 34.9681 28.3909 34.9997 28.5 34.9997C28.6091 34.9997 28.7155 34.9681 28.8048 34.9093C29.0312 34.7605 34.3438 31.2062 34.3438 26.5C34.342 25.0418 33.7257 23.6438 32.6302 22.6127C31.5347 21.5816 30.0493 21.0017 28.5 21ZM28.5 24.5C28.9203 24.5 29.3311 24.6173 29.6806 24.837C30.03 25.0568 30.3024 25.3691 30.4632 25.7346C30.6241 26.1 30.6662 26.5022 30.5842 26.8901C30.5022 27.2781 30.2998 27.6344 30.0026 27.9142C29.7054 28.1939 29.3268 28.3843 28.9146 28.4615C28.5024 28.5387 28.0751 28.4991 27.6868 28.3477C27.2985 28.1963 26.9666 27.94 26.7331 27.6111C26.4996 27.2822 26.375 26.8955 26.375 26.5C26.375 25.9695 26.5989 25.4608 26.9974 25.0857C27.3959 24.7107 27.9364 24.5 28.5 24.5Z"
        fill="#CF000C" />
</svg>