<svg width="60" height="60" viewBox="0 0 60 60" fill="none" xmlns="http://www.w3.org/2000/svg">

    <path fill-rule="evenodd" clip-rule="evenodd"
        d="M33.7945 38.4442C32.5945 38.4001 29.1936 37.9301 25.632 34.3692C22.0711 30.8076 21.602 27.4076 21.557 26.2067C21.4903 24.3767 22.892 22.5992 24.5111 21.9051C24.7061 21.8209 24.9196 21.7888 25.1307 21.812C25.3419 21.8353 25.5433 21.913 25.7153 22.0376C27.0486 23.0092 27.9686 24.4792 28.7586 25.6351C28.9325 25.889 29.0068 26.198 28.9674 26.5032C28.9281 26.8084 28.7778 27.0885 28.5453 27.2901L26.9195 28.4976C26.8409 28.5543 26.7856 28.6376 26.7639 28.732C26.7421 28.8264 26.7553 28.9255 26.8011 29.0109C27.1695 29.6801 27.8245 30.6767 28.5745 31.4267C29.3253 32.1767 30.3686 32.8751 31.0845 33.2851C31.1742 33.3354 31.2799 33.3495 31.3797 33.3244C31.4795 33.2993 31.5659 33.2369 31.6211 33.1501L32.6795 31.5392C32.874 31.2808 33.1611 31.1076 33.4805 31.056C33.7998 31.0045 34.1268 31.0785 34.3928 31.2626C35.5653 32.0742 36.9336 32.9784 37.9353 34.2609C38.07 34.4341 38.1557 34.6404 38.1834 34.8581C38.2111 35.0758 38.1798 35.2969 38.0928 35.4984C37.3953 37.1259 35.6303 38.5117 33.7945 38.4442Z"
        fill="#CF000C" />

</svg>