<svg width="60" height="61" viewBox="0 0 60 61" fill="none" xmlns="http://www.w3.org/2000/svg">
    <path
        d="M34.1719 23.2806C35.4288 24.0064 36.4743 25.0477 37.2051 26.3017C37.9358 27.5557 38.3263 28.9788 38.3381 30.4301C38.3498 31.8814 37.9823 33.3106 37.2719 34.5762C36.5615 35.8418 35.5329 36.9 34.2879 37.6459C33.0429 38.3918 31.6247 38.7997 30.1736 38.829C28.7226 38.8584 27.289 38.5083 26.0148 37.8133C24.7407 37.1184 23.6701 36.1027 22.9091 34.8669C22.1481 33.6311 21.723 32.2179 21.676 30.7673L21.6719 30.4973L21.676 30.2273C21.7227 28.7881 22.1415 27.3856 22.8916 26.1565C23.6417 24.9273 24.6974 23.9135 25.956 23.2139C27.2145 22.5142 28.6328 22.1526 30.0727 22.1643C31.5126 22.176 32.9249 22.5606 34.1719 23.2806ZM30.0052 25.4973C29.8011 25.4973 29.6041 25.5723 29.4516 25.7079C29.299 25.8435 29.2016 26.0304 29.1777 26.2331L29.1719 26.3306V30.4973L29.1794 30.6065C29.1984 30.7511 29.255 30.8881 29.3435 31.004L29.416 31.0873L31.916 33.5873L31.9944 33.6556C32.1405 33.769 32.3202 33.8306 32.5052 33.8306C32.6902 33.8306 32.8699 33.769 33.016 33.6556L33.0944 33.5865L33.1635 33.5081C33.2769 33.362 33.3385 33.1823 33.3385 32.9973C33.3385 32.8123 33.2769 32.6326 33.1635 32.4865L33.0944 32.4081L30.8385 30.1515V26.3306L30.8327 26.2331C30.8088 26.0304 30.7114 25.8435 30.5589 25.7079C30.4063 25.5723 30.2093 25.4973 30.0052 25.4973Z"
        fill="#CF000C" />
</svg>