<svg width="22" height="22" viewBox="0 0 22 22" fill="none" xmlns="http://www.w3.org/2000/svg">

    <path
        d="M8.75001 11.25V6.75H13.25V11.25H8.75001ZM2.00001 1.96875V10.875C2.00001 10.9745 2.03952 11.0698 2.10985 11.1402C2.18017 11.2105 2.27556 11.25 2.37501 11.25H7.25001V6.31031L2.64033 1.70063C2.58771 1.64795 2.52061 1.61212 2.44756 1.59772C2.37451 1.58331 2.29883 1.59097 2.23016 1.61973C2.16148 1.64849 2.10292 1.69704 2.06194 1.75919C2.02095 1.82135 1.99939 1.8943 2.00001 1.96875ZM19.625 6.75H14.75V11.6897L19.3597 16.2994C19.4123 16.3521 19.4794 16.3879 19.5525 16.4023C19.6255 16.4167 19.7012 16.409 19.7699 16.3803C19.8385 16.3515 19.8971 16.303 19.9381 16.2408C19.9791 16.1786 20.0006 16.1057 20 16.0312V7.125C20 7.02554 19.9605 6.93016 19.8902 6.85983C19.8199 6.78951 19.7245 6.75 19.625 6.75ZM13.25 0.375C13.25 0.275544 13.2105 0.180161 13.1402 0.109835C13.0699 0.039509 12.9745 1.16175e-07 12.875 1.16175e-07H3.96876C3.89455 -5.82853e-05 3.82199 0.0219034 3.76027 0.063105C3.69855 0.104307 3.65044 0.162895 3.62203 0.231454C3.59362 0.300012 3.5862 0.375458 3.60069 0.44824C3.61518 0.521022 3.65095 0.587867 3.70345 0.640313L8.31033 5.25H13.25V0.375ZM18.921 4.60969L15.3903 1.07906C15.3379 1.02656 15.271 0.990796 15.1983 0.976302C15.1255 0.961808 15.05 0.969234 14.9815 0.997642C14.9129 1.02605 14.8543 1.07416 14.8131 1.13588C14.7719 1.1976 14.75 1.27016 14.75 1.34438V5.25H18.6556C18.7299 5.25006 18.8024 5.2281 18.8641 5.1869C18.9259 5.14569 18.974 5.0871 19.0024 5.01855C19.0308 4.94999 19.0382 4.87454 19.0237 4.80176C19.0092 4.72898 18.9735 4.66213 18.921 4.60969ZM13.6897 12.75H8.75001V17.625C8.75001 17.7245 8.78952 17.8198 8.85985 17.8902C8.93017 17.9605 9.02556 18 9.12501 18H18.0313C18.1055 18.0001 18.178 17.9781 18.2398 17.9369C18.3015 17.8957 18.3496 17.8371 18.378 17.7685C18.4064 17.7 18.4138 17.6245 18.3993 17.5518C18.3848 17.479 18.3491 17.4121 18.2966 17.3597L13.6897 12.75ZM3.07908 13.3903L6.6097 16.9209C6.66215 16.9734 6.72899 17.0092 6.80177 17.0237C6.87456 17.0382 6.95 17.0308 7.01856 17.0024C7.08712 16.974 7.14571 16.9258 7.18691 16.8641C7.22811 16.8024 7.25007 16.7298 7.25001 16.6556V12.75H3.34439C3.27018 12.7499 3.19762 12.7719 3.13589 12.8131C3.07417 12.8543 3.02606 12.9129 2.99765 12.9815C2.96925 13.05 2.96182 13.1255 2.97631 13.1982C2.99081 13.271 3.02657 13.3379 3.07908 13.3903Z"
        fill="#CF000C" />

</svg>