<svg width="20" height="20" viewBox="0 0 20 20" fill="none" xmlns="http://www.w3.org/2000/svg">
    <path fill-rule="evenodd" clip-rule="evenodd"
        d="M10 3.25C6.27208 3.25 3.25 6.27208 3.25 10C3.25 13.7279 6.27208 16.75 10 16.75C13.7279 16.75 16.75 13.7279 16.75 10C16.75 6.27208 13.7279 3.25 10 3.25ZM1.75 10C1.75 5.44365 5.44365 1.75 10 1.75C14.5563 1.75 18.25 5.44365 18.25 10C18.25 14.5563 14.5563 18.25 10 18.25C5.44365 18.25 1.75 14.5563 1.75 10Z"
        fill="#FF6266" />
    <path fill-rule="evenodd" clip-rule="evenodd"
        d="M8.875 13.332C8.875 12.7107 9.37868 12.207 10 12.207H10.0083C10.6297 12.207 11.1333 12.7107 11.1333 13.332V13.3404C11.1333 13.9617 10.6297 14.4654 10.0083 14.4654H10C9.37868 14.4654 8.875 13.9617 8.875 13.3404V13.332Z"
        fill="#FF6266" />
    <path fill-rule="evenodd" clip-rule="evenodd"
        d="M10 5.91797C10.4142 5.91797 10.75 6.25376 10.75 6.66797V10.0013C10.75 10.4155 10.4142 10.7513 10 10.7513C9.58579 10.7513 9.25 10.4155 9.25 10.0013V6.66797C9.25 6.25376 9.58579 5.91797 10 5.91797Z"
        fill="#FF6266" />
</svg>