<svg width="449" height="543" viewBox="0 0 449 543" fill="none" xmlns="http://www.w3.org/2000/svg">
    <path
        d="M8.32962 336.341L53.0025 281.831L0.238977 218.397L70.0403 133.226L122.804 196.659L161.893 148.963L108.875 85.8393L178.677 0.667644L231.44 64.1009L266.214 21.6699L332.317 78.9502L288.152 132.841L337.7 192.604L373.236 149.244L439.649 206.778L394.722 261.598L448.106 325.539L378.305 410.711L324.921 346.769L285.832 394.465L339.216 458.407L269.922 542.959L216.538 479.018L182.018 521.139L115.605 463.604L159.263 410.333L109.714 350.57L74.6865 393.311L8.58345 336.031L8.32962 336.341ZM229.374 325.416L268.463 277.72L218.914 217.957L179.826 265.653L229.374 325.416Z"
        fill="url(#paint0_linear_5005_67102)" />
    <defs>
        <linearGradient id="paint0_linear_5005_67102" x1="418.462" y1="353.678" x2="42.9254" y2="166.188"
            gradientUnits="userSpaceOnUse">
            <stop offset="0.348984" stop-color="#6C6CE2" stop-opacity="0.14" />
            <stop offset="0.989096" stop-color="#4C4C9C" stop-opacity="0.81" />
        </linearGradient>
    </defs>
</svg>