<svg width="41" height="40" viewBox="0 0 41 40" fill="none" xmlns="http://www.w3.org/2000/svg">
    <g clip-path="url(#clip0_3477_102191)">
        <path
            d="M35.6726 13.8331H35.6116C34.7664 13.8361 33.954 14.1612 33.3401 14.7417C32.8608 13.3415 31.5897 12.3385 30.0964 12.3385C29.1714 12.3505 28.2924 12.743 27.6667 13.4239C27.1013 12.2309 25.9337 11.4309 24.5878 11.4309H24.5228C23.7483 11.4309 22.9943 11.6615 22.4795 12.12V3.63682C22.4795 1.63141 20.9245 0 19.0267 0C17.1309 0 15.5819 1.63007 15.5806 3.63414L15.5658 20.4114L14.548 19.1741C13.729 18.1543 12.5229 17.5209 11.2185 17.425C9.94034 17.3376 8.68294 17.7826 7.74424 18.6546L6.92418 19.3349C6.67518 19.5414 6.60413 19.8936 6.75326 20.1801L14.7283 35.4915C16.1791 38.2788 18.9389 40 21.9306 40H30.8755C35.4115 40 39.1056 36.0793 39.1103 31.2471C39.1123 29.0882 39.1147 27.4823 39.116 26.1743C39.1207 22.6524 39.1224 21.3357 39.1133 17.4589C39.1087 15.4588 37.5654 13.8331 35.6726 13.8331ZM37.7433 26.1776C37.742 27.4856 37.7397 29.0869 37.7376 31.2458C37.7336 35.3216 34.6555 38.6273 30.8755 38.6273H21.9306C19.4523 38.6273 17.159 37.1893 15.9455 34.8581L8.22616 20.033L8.633 19.6986C8.64172 19.6912 8.65077 19.6848 8.65914 19.6768C9.3217 19.0534 10.2138 18.7334 11.1217 18.794C12.049 18.8651 12.9056 19.3185 13.4857 20.0458L15.7173 22.7627C15.9013 22.9865 16.2059 23.0706 16.4787 22.9731C16.7515 22.8756 16.9338 22.6172 16.9342 22.3273L16.9472 3.63548C16.9479 2.38813 17.8873 1.37302 19.0274 1.37302C20.1671 1.37302 21.1069 2.38847 21.1069 3.63682V14.9086C21.1069 14.9474 21.1052 14.9863 21.1052 15.0255C21.1052 15.0426 21.1069 15.0587 21.1069 15.0751V19.8953C21.1069 20.2743 21.4142 20.5816 21.7932 20.5816C22.1722 20.5816 22.4795 20.2743 22.4795 19.8953V14.9317C22.4795 13.7272 23.4115 12.8036 24.5228 12.8036H24.5878C25.7279 12.8036 26.6834 13.7778 26.6834 15.0265V19.4355C26.6834 19.8145 26.9907 20.1218 27.3697 20.1218C27.7488 20.1218 28.0561 19.8145 28.0561 19.4355V15.9759C28.0561 14.7276 28.9717 13.7118 30.1185 13.7118C31.2589 13.7118 32.1742 14.7276 32.1742 15.9759V19.2398C32.1742 19.6188 32.4815 19.9261 32.8605 19.9261C33.2395 19.9261 33.5468 19.6188 33.5468 19.2398V17.4726C33.5468 16.2239 34.4711 15.2058 35.6116 15.2058H35.6726C36.81 15.2058 37.738 16.2199 37.7407 17.4646C37.7497 21.339 37.748 22.6574 37.7433 26.1776Z"
            fill="white" />
        <path
            d="M24.8817 6.79558H33.777L32.1821 8.39046C32.0045 8.56305 31.9334 8.81775 31.9965 9.05703C32.0595 9.29665 32.2465 9.48365 32.4861 9.54666C32.7254 9.60932 32.9801 9.53828 33.1526 9.36066L35.9091 6.60456C36.1772 6.33645 36.1772 5.90179 35.9091 5.63402L33.1526 2.87792C32.8842 2.6125 32.4519 2.61384 32.1851 2.8806C31.918 3.1477 31.9167 3.58002 32.1821 3.84845L33.7566 5.42289H24.8817C24.5026 5.42289 24.1953 5.7302 24.1953 6.10924C24.1953 6.48827 24.5026 6.79558 24.8817 6.79558Z"
            fill="white" />
        <path
            d="M4.2255 6.79558H13.0417C13.4208 6.79558 13.7281 6.48827 13.7281 6.10924C13.7281 5.7302 13.4208 5.42289 13.0417 5.42289H4.24594L5.82038 3.84845C6.0858 3.58002 6.08446 3.1477 5.81736 2.8806C5.5506 2.61384 5.11828 2.6125 4.84984 2.87792L2.0934 5.63402C1.82564 5.90213 1.82564 6.33679 2.0934 6.60456L4.84984 9.36066C5.02277 9.53593 5.27646 9.60497 5.5144 9.54163C5.75235 9.47863 5.93801 9.29263 6.00135 9.05469C6.06469 8.81674 5.99565 8.56339 5.82038 8.39013L4.2255 6.79558Z"
            fill="white" />
    </g>
    <defs>
        <clipPath id="clip0_3477_102191">
            <rect width="40" height="40" fill="white" transform="translate(0.5)" />
        </clipPath>
    </defs>
</svg>