<svg width="235" height="120" viewBox="0 0 235 120" fill="none" xmlns="http://www.w3.org/2000/svg">
<g clip-path="url(#clip0_3828_125658)">
<path d="M132.676 13.8331H132.615C131.77 13.8361 130.958 14.1612 130.344 14.7417C129.865 13.3415 128.594 12.3385 127.1 12.3385C126.175 12.3505 125.296 12.743 124.671 13.4239C124.105 12.2309 122.938 11.4309 121.592 11.4309H121.527C120.752 11.4309 119.998 11.6615 119.483 12.12V3.63682C119.483 1.63141 117.928 0 116.031 0C114.135 0 112.586 1.63007 112.584 3.63414L112.57 20.4114L111.552 19.1741C110.733 18.1543 109.527 17.5209 108.222 17.425C106.944 17.3376 105.687 17.7826 104.748 18.6546L103.928 19.3349C103.679 19.5414 103.608 19.8936 103.757 20.1801L111.732 35.4915C113.183 38.2788 115.943 40 118.935 40H127.879C132.415 40 136.11 36.0793 136.114 31.2471C136.116 29.0882 136.119 27.4823 136.12 26.1743C136.125 22.6524 136.126 21.3357 136.117 17.4589C136.113 15.4588 134.569 13.8331 132.676 13.8331ZM134.747 26.1776C134.746 27.4856 134.744 29.0869 134.742 31.2458C134.738 35.3216 131.659 38.6273 127.879 38.6273H118.935C116.456 38.6273 114.163 37.1893 112.949 34.8581L105.23 20.033L105.637 19.6986C105.646 19.6912 105.655 19.6848 105.663 19.6768C106.326 19.0534 107.218 18.7334 108.126 18.7941C109.053 18.8651 109.909 19.3185 110.49 20.0458L112.721 22.7626C112.905 22.9865 113.21 23.0706 113.483 22.9731C113.755 22.8756 113.938 22.6172 113.938 22.3273L113.951 3.63548C113.952 2.38813 114.891 1.37302 116.031 1.37302C117.171 1.37302 118.111 2.38847 118.111 3.63682V14.9086C118.111 14.9474 118.109 14.9863 118.109 15.0255C118.109 15.0426 118.111 15.0587 118.111 15.0751V19.8953C118.111 20.2743 118.418 20.5816 118.797 20.5816C119.176 20.5816 119.483 20.2743 119.483 19.8953V14.9317C119.483 13.7272 120.415 12.8036 121.527 12.8036H121.592C122.732 12.8036 123.687 13.7778 123.687 15.0265V19.4355C123.687 19.8145 123.995 20.1218 124.374 20.1218C124.753 20.1218 125.06 19.8145 125.06 19.4355V15.9759C125.06 14.7276 125.976 13.7118 127.122 13.7118C128.263 13.7118 129.178 14.7276 129.178 15.9759V19.2398C129.178 19.6188 129.485 19.9261 129.864 19.9261C130.243 19.9261 130.551 19.6188 130.551 19.2398V17.4726C130.551 16.2239 131.475 15.2058 132.615 15.2058H132.676C133.814 15.2058 134.742 16.2199 134.745 17.4646C134.754 21.339 134.752 22.6574 134.747 26.1776Z" fill="white"/>
<path d="M121.882 6.79558H130.777L129.182 8.39046C129.004 8.56305 128.933 8.81775 128.996 9.05703C129.059 9.29665 129.246 9.48365 129.486 9.54666C129.725 9.60932 129.98 9.53828 130.153 9.36066L132.909 6.60456C133.177 6.33645 133.177 5.90179 132.909 5.63402L130.153 2.87792C129.884 2.6125 129.452 2.61384 129.185 2.8806C128.918 3.1477 128.917 3.58002 129.182 3.84845L130.757 5.42289H121.882C121.503 5.42289 121.195 5.7302 121.195 6.10924C121.195 6.48827 121.503 6.79558 121.882 6.79558Z" fill="white"/>
<path d="M101.224 6.79558H110.04C110.419 6.79558 110.726 6.48827 110.726 6.10924C110.726 5.7302 110.419 5.42289 110.04 5.42289H101.244L102.818 3.84845C103.084 3.58002 103.083 3.1477 102.815 2.8806C102.549 2.61384 102.116 2.6125 101.848 2.87792L99.0915 5.63402C98.8237 5.90213 98.8237 6.33679 99.0915 6.60456L101.848 9.36066C102.021 9.53593 102.275 9.60497 102.512 9.54163C102.75 9.47863 102.936 9.29263 102.999 9.05469C103.063 8.81674 102.994 8.56339 102.818 8.39013L101.224 6.79558Z" fill="white"/>
</g>
<path d="M50.0902 62.8V74H48.6342V65.408L43.0342 74H41.5862V62.8H43.0422V71.392L48.6422 62.8H50.0902ZM56.5017 74.192C55.659 74.192 54.8937 73.9973 54.2057 73.608C53.5177 73.2187 52.9817 72.6933 52.5977 72.032C52.2137 71.3707 52.0217 70.6453 52.0217 69.856C52.0217 69.0667 52.2137 68.3413 52.5977 67.68C52.9817 67.0187 53.5177 66.4933 54.2057 66.104C54.8937 65.7147 55.659 65.52 56.5017 65.52C57.659 65.52 58.6644 65.8853 59.5177 66.616L58.7577 67.76C58.0537 67.136 57.3017 66.824 56.5017 66.824C55.659 66.824 54.947 67.12 54.3657 67.712C53.7897 68.2987 53.5017 69.0133 53.5017 69.856C53.5017 70.6987 53.7897 71.416 54.3657 72.008C54.947 72.5947 55.659 72.888 56.5017 72.888C57.3657 72.888 58.1364 72.5547 58.8137 71.888L59.6697 72.952C58.8164 73.7787 57.7604 74.192 56.5017 74.192ZM68.8589 65.712V74H67.4029V67.016H62.8349V74H61.3789V65.712H68.8589ZM72.9594 72.008C73.5408 72.5947 74.2528 72.888 75.0954 72.888C75.9381 72.888 76.6474 72.5947 77.2234 72.008C77.8048 71.416 78.0954 70.6987 78.0954 69.856C78.0954 69.0133 77.8048 68.2987 77.2234 67.712C76.6474 67.12 75.9381 66.824 75.0954 66.824C74.2528 66.824 73.5408 67.12 72.9594 67.712C72.3834 68.2987 72.0954 69.0133 72.0954 69.856C72.0954 70.6987 72.3834 71.416 72.9594 72.008ZM72.7994 66.104C73.4874 65.7147 74.2528 65.52 75.0954 65.52C75.9381 65.52 76.7034 65.7147 77.3914 66.104C78.0794 66.4933 78.6154 67.0187 78.9994 67.68C79.3834 68.3413 79.5754 69.0667 79.5754 69.856C79.5754 70.6453 79.3834 71.3707 78.9994 72.032C78.6154 72.6933 78.0794 73.2187 77.3914 73.608C76.7034 73.9973 75.9381 74.192 75.0954 74.192C74.2528 74.192 73.4874 73.9973 72.7994 73.608C72.1114 73.2187 71.5754 72.6933 71.1914 72.032C70.8074 71.3707 70.6154 70.6453 70.6154 69.856C70.6154 69.0667 70.8074 68.3413 71.1914 67.68C71.5754 67.0187 72.1114 66.4933 72.7994 66.104ZM81.8558 71.608V65.712H88.6638V74H87.2078V67.016H83.3118V71.72C83.3118 72.392 83.1011 72.9493 82.6798 73.392C82.2585 73.8347 81.7225 74.056 81.0718 74.056C80.7891 74.056 80.5545 74.0373 80.3678 74V72.712C80.4531 72.7173 80.5945 72.72 80.7918 72.72C81.1065 72.72 81.3625 72.6187 81.5598 72.416C81.7571 72.2133 81.8558 71.944 81.8558 71.608ZM94.3319 74H91.0039V65.712H92.4599V68.384H94.3319C95.1746 68.384 95.8839 68.656 96.4599 69.2C97.0413 69.744 97.3319 70.408 97.3319 71.192C97.3319 71.976 97.0439 72.64 96.4679 73.184C95.8919 73.728 95.1799 74 94.3319 74ZM95.8759 71.192C95.8759 70.7547 95.7133 70.3867 95.3879 70.088C95.0679 69.7893 94.6759 69.64 94.2119 69.64H92.4599V72.744H94.2119C94.6813 72.744 95.0759 72.5973 95.3959 72.304C95.7159 72.0053 95.8759 71.6347 95.8759 71.192ZM103.372 71.544C103.372 71.1493 103.191 70.8187 102.828 70.552C102.471 70.28 102.026 70.144 101.492 70.144H100.308V68.936H101.54C101.967 68.936 102.322 68.8347 102.604 68.632C102.892 68.424 103.036 68.1653 103.036 67.856C103.036 67.552 102.892 67.296 102.604 67.088C102.322 66.88 101.967 66.776 101.54 66.776C101.167 66.776 100.834 66.8587 100.54 67.024C100.247 67.184 100.023 67.4133 99.8683 67.712L98.7003 66.992C98.9456 66.528 99.3136 66.168 99.8043 65.912C100.295 65.6507 100.874 65.52 101.54 65.52C102.378 65.52 103.079 65.736 103.644 66.168C104.21 66.5947 104.492 67.1227 104.492 67.752C104.492 68.1413 104.367 68.4987 104.116 68.824C103.866 69.144 103.519 69.376 103.076 69.52C103.562 69.6533 103.975 69.9147 104.316 70.304C104.658 70.6933 104.828 71.1387 104.828 71.64C104.828 72.36 104.506 72.9653 103.86 73.456C103.22 73.9467 102.431 74.192 101.492 74.192C100.799 74.192 100.18 74.064 99.6363 73.808C99.0976 73.5467 98.6656 73.1867 98.3403 72.728L99.3403 71.904C99.8843 72.592 100.602 72.936 101.492 72.936C102.02 72.936 102.466 72.8027 102.828 72.536C103.191 72.264 103.372 71.9333 103.372 71.544ZM107.242 77.712L108.714 73.968L105.474 65.712H106.994L109.458 72.12L111.922 65.712H113.442L108.762 77.712H107.242ZM122.312 65.712V74H120.904V67.76L116.216 74H114.832V65.712H116.24V71.952L120.928 65.712H122.312ZM120.368 63.976C119.872 64.44 119.272 64.672 118.568 64.672C117.864 64.672 117.261 64.44 116.76 63.976C116.264 63.5067 115.997 62.9147 115.96 62.2H117.256C117.272 62.6 117.4 62.9307 117.64 63.192C117.885 63.4533 118.195 63.584 118.568 63.584C118.941 63.584 119.248 63.4533 119.488 63.192C119.733 62.9307 119.864 62.6 119.88 62.2H121.176C121.139 62.9147 120.869 63.5067 120.368 63.976ZM126.509 67.016H123.837V65.712H130.637V67.016H127.965V74H126.509V67.016ZM132.76 70.312C132.84 71.064 133.157 71.6907 133.712 72.192C134.272 72.688 134.946 72.936 135.736 72.936C136.749 72.936 137.621 72.536 138.352 71.736L139.352 72.664C138.914 73.16 138.389 73.5387 137.776 73.8C137.162 74.0613 136.496 74.192 135.776 74.192C135.114 74.192 134.501 74.08 133.936 73.856C133.37 73.6267 132.893 73.3173 132.504 72.928C132.12 72.5387 131.818 72.08 131.6 71.552C131.381 71.0187 131.272 70.4533 131.272 69.856C131.272 69.264 131.381 68.7013 131.6 68.168C131.824 67.6347 132.128 67.1733 132.512 66.784C132.901 66.3947 133.368 66.088 133.912 65.864C134.456 65.6347 135.037 65.52 135.656 65.52C136.461 65.52 137.186 65.7067 137.832 66.08C138.482 66.4533 138.986 66.9573 139.344 67.592C139.701 68.2213 139.88 68.9147 139.88 69.672C139.88 69.8853 139.856 70.0987 139.808 70.312H132.76ZM135.656 66.776C134.973 66.776 134.365 66.9973 133.832 67.44C133.298 67.8827 132.96 68.4373 132.816 69.104H138.352C138.24 68.4267 137.936 67.8693 137.44 67.432C136.944 66.9947 136.349 66.776 135.656 66.776ZM155.995 74L153.211 70.184H152.211V74H150.755V70.184H149.755L146.971 74H145.291L148.547 69.552L145.723 65.712H147.451L149.763 68.928H150.755V65.712H152.211V68.928H153.203L155.515 65.712H157.243L154.419 69.552L157.675 74H155.995ZM159.51 70.312C159.59 71.064 159.907 71.6907 160.462 72.192C161.022 72.688 161.696 72.936 162.486 72.936C163.499 72.936 164.371 72.536 165.102 71.736L166.102 72.664C165.664 73.16 165.139 73.5387 164.526 73.8C163.912 74.0613 163.246 74.192 162.526 74.192C161.864 74.192 161.251 74.08 160.686 73.856C160.12 73.6267 159.643 73.3173 159.254 72.928C158.87 72.5387 158.568 72.08 158.35 71.552C158.131 71.0187 158.022 70.4533 158.022 69.856C158.022 69.264 158.131 68.7013 158.35 68.168C158.574 67.6347 158.878 67.1733 159.262 66.784C159.651 66.3947 160.118 66.088 160.662 65.864C161.206 65.6347 161.787 65.52 162.406 65.52C163.211 65.52 163.936 65.7067 164.582 66.08C165.232 66.4533 165.736 66.9573 166.094 67.592C166.451 68.2213 166.63 68.9147 166.63 69.672C166.63 69.8853 166.606 70.0987 166.558 70.312H159.51ZM162.406 66.776C161.723 66.776 161.115 66.9973 160.582 67.44C160.048 67.8827 159.71 68.4373 159.566 69.104H165.102C164.99 68.4267 164.686 67.8693 164.19 67.432C163.694 66.9947 163.099 66.776 162.406 66.776ZM172.299 74.192C171.456 74.192 170.691 73.9973 170.003 73.608C169.315 73.2187 168.779 72.6933 168.395 72.032C168.011 71.3707 167.819 70.6453 167.819 69.856C167.819 69.0667 168.011 68.3413 168.395 67.68C168.779 67.0187 169.315 66.4933 170.003 66.104C170.691 65.7147 171.456 65.52 172.299 65.52C173.456 65.52 174.461 65.8853 175.315 66.616L174.555 67.76C173.851 67.136 173.099 66.824 172.299 66.824C171.456 66.824 170.744 67.12 170.163 67.712C169.587 68.2987 169.299 69.0133 169.299 69.856C169.299 70.6987 169.587 71.416 170.163 72.008C170.744 72.5947 171.456 72.888 172.299 72.888C173.163 72.888 173.933 72.5547 174.611 71.888L175.467 72.952C174.613 73.7787 173.557 74.192 172.299 74.192ZM178.962 67.016H176.29V65.712H183.09V67.016H180.418V74H178.962V67.016ZM187.941 74H184.613V65.712H186.069V68.384H187.941C188.784 68.384 189.493 68.656 190.069 69.2C190.651 69.744 190.941 70.408 190.941 71.192C190.941 71.976 190.653 72.64 190.077 73.184C189.501 73.728 188.789 74 187.941 74ZM189.485 71.192C189.485 70.7547 189.323 70.3867 188.997 70.088C188.677 69.7893 188.285 69.64 187.821 69.64H186.069V72.744H187.821C188.291 72.744 188.685 72.5973 189.005 72.304C189.325 72.0053 189.485 71.6347 189.485 71.192ZM192.133 74V65.712H193.589V74H192.133ZM54.2049 92.72V95.696H52.7489V94H47.6449V95.696H46.1889V92.72H47.0529C47.8475 91.04 48.2449 88.704 48.2449 85.712H53.1409V92.72H54.2049ZM48.6049 92.72H51.7089V86.992H49.6289C49.6289 87.9573 49.5382 88.96 49.3569 90C49.1809 91.0347 48.9302 91.9413 48.6049 92.72ZM56.4418 91.608V85.712H63.2498V94H61.7938V87.016H57.8978V91.72C57.8978 92.392 57.6871 92.9493 57.2658 93.392C56.8444 93.8347 56.3084 94.056 55.6578 94.056C55.3751 94.056 55.1404 94.0373 54.9538 94V92.712C55.0391 92.7173 55.1804 92.72 55.3778 92.72C55.6924 92.72 55.9484 92.6187 56.1458 92.416C56.3431 92.2133 56.4418 91.944 56.4418 91.608ZM70.5419 91.072H68.9019L66.5899 94H64.9739L67.3819 90.968C66.7259 90.808 66.1952 90.4933 65.7899 90.024C65.3845 89.5547 65.1819 89.0107 65.1819 88.392C65.1819 87.6347 65.4779 87 66.0699 86.488C66.6672 85.9707 67.4032 85.712 68.2779 85.712H71.9979V94H70.5419V91.072ZM68.3259 89.816H70.5419V86.968H68.3259C67.8459 86.968 67.4432 87.104 67.1179 87.376C66.7979 87.648 66.6379 87.9867 66.6379 88.392C66.6379 88.8027 66.7979 89.144 67.1179 89.416C67.4432 89.6827 67.8459 89.816 68.3259 89.816ZM86.5699 85.712V94H85.1139V87.016H80.5459V94H79.0899V85.712H86.5699ZM89.8144 90.312C89.8944 91.064 90.2117 91.6907 90.7664 92.192C91.3264 92.688 92.001 92.936 92.7904 92.936C93.8037 92.936 94.6757 92.536 95.4064 91.736L96.4064 92.664C95.969 93.16 95.4437 93.5387 94.8304 93.8C94.217 94.0613 93.5504 94.192 92.8304 94.192C92.169 94.192 91.5557 94.08 90.9904 93.856C90.425 93.6267 89.9477 93.3173 89.5584 92.928C89.1744 92.5387 88.873 92.08 88.6544 91.552C88.4357 91.0187 88.3264 90.4533 88.3264 89.856C88.3264 89.264 88.4357 88.7013 88.6544 88.168C88.8784 87.6347 89.1824 87.1733 89.5664 86.784C89.9557 86.3947 90.4224 86.088 90.9664 85.864C91.5104 85.6347 92.0917 85.52 92.7104 85.52C93.5157 85.52 94.241 85.7067 94.8864 86.08C95.537 86.4533 96.041 86.9573 96.3984 87.592C96.7557 88.2213 96.9344 88.9147 96.9344 89.672C96.9344 89.8853 96.9104 90.0987 96.8624 90.312H89.8144ZM92.7104 86.776C92.0277 86.776 91.4197 86.9973 90.8864 87.44C90.353 87.8827 90.0144 88.4373 89.8704 89.104H95.4064C95.2944 88.4267 94.9904 87.8693 94.4944 87.432C93.9984 86.9947 93.4037 86.776 92.7104 86.776ZM102.835 92.888C103.678 92.888 104.387 92.5947 104.963 92.008C105.545 91.416 105.835 90.6987 105.835 89.856C105.835 89.0133 105.545 88.2987 104.963 87.712C104.387 87.12 103.678 86.824 102.835 86.824C102.254 86.824 101.723 86.976 101.243 87.28C100.769 87.584 100.406 87.9867 100.155 88.488V91.248C100.406 91.744 100.769 92.1413 101.243 92.44C101.723 92.7387 102.254 92.888 102.835 92.888ZM103.075 85.52C103.875 85.52 104.601 85.72 105.251 86.12C105.907 86.5147 106.414 87.0427 106.771 87.704C107.134 88.36 107.315 89.0773 107.315 89.856C107.315 90.6347 107.134 91.3547 106.771 92.016C106.414 92.672 105.907 93.2 105.251 93.6C104.601 93.9947 103.875 94.192 103.075 94.192C101.891 94.192 100.918 93.7707 100.155 92.928V97.712H98.6993V85.712H100.155V86.784C100.923 85.9413 101.897 85.52 103.075 85.52ZM109.986 90.312C110.066 91.064 110.384 91.6907 110.938 92.192C111.498 92.688 112.173 92.936 112.962 92.936C113.976 92.936 114.848 92.536 115.578 91.736L116.578 92.664C116.141 93.16 115.616 93.5387 115.002 93.8C114.389 94.0613 113.722 94.192 113.002 94.192C112.341 94.192 111.728 94.08 111.162 93.856C110.597 93.6267 110.12 93.3173 109.73 92.928C109.346 92.5387 109.045 92.08 108.826 91.552C108.608 91.0187 108.498 90.4533 108.498 89.856C108.498 89.264 108.608 88.7013 108.826 88.168C109.05 87.6347 109.354 87.1733 109.738 86.784C110.128 86.3947 110.594 86.088 111.138 85.864C111.682 85.6347 112.264 85.52 112.882 85.52C113.688 85.52 114.413 85.7067 115.058 86.08C115.709 86.4533 116.213 86.9573 116.57 87.592C116.928 88.2213 117.106 88.9147 117.106 89.672C117.106 89.8853 117.082 90.0987 117.034 90.312H109.986ZM112.882 86.776C112.2 86.776 111.592 86.9973 111.058 87.44C110.525 87.8827 110.186 88.4373 110.042 89.104H115.578C115.466 88.4267 115.162 87.8693 114.666 87.432C114.17 86.9947 113.576 86.776 112.882 86.776ZM120.215 85.712L123.103 90.08L125.991 85.712H127.335V94H125.927V87.944L123.543 91.496H122.663L120.279 87.944V94H118.871V85.712H120.215ZM130.58 90.312C130.66 91.064 130.977 91.6907 131.532 92.192C132.092 92.688 132.767 92.936 133.556 92.936C134.569 92.936 135.441 92.536 136.172 91.736L137.172 92.664C136.735 93.16 136.209 93.5387 135.596 93.8C134.983 94.0613 134.316 94.192 133.596 94.192C132.935 94.192 132.321 94.08 131.756 93.856C131.191 93.6267 130.713 93.3173 130.324 92.928C129.94 92.5387 129.639 92.08 129.42 91.552C129.201 91.0187 129.092 90.4533 129.092 89.856C129.092 89.264 129.201 88.7013 129.42 88.168C129.644 87.6347 129.948 87.1733 130.332 86.784C130.721 86.3947 131.188 86.088 131.732 85.864C132.276 85.6347 132.857 85.52 133.476 85.52C134.281 85.52 135.007 85.7067 135.652 86.08C136.303 86.4533 136.807 86.9573 137.164 87.592C137.521 88.2213 137.7 88.9147 137.7 89.672C137.7 89.8853 137.676 90.0987 137.628 90.312H130.58ZM133.476 86.776C132.793 86.776 132.185 86.9973 131.652 87.44C131.119 87.8827 130.78 88.4373 130.636 89.104H136.172C136.06 88.4267 135.756 87.8693 135.26 87.432C134.764 86.9947 134.169 86.776 133.476 86.776ZM139.465 94V85.712H140.921V92.696H143.873V85.712H145.329V92.696H148.281V85.712H149.737V92.696H150.713V96.24H149.257V94H139.465ZM153.111 90.312C153.191 91.064 153.509 91.6907 154.063 92.192C154.623 92.688 155.298 92.936 156.087 92.936C157.101 92.936 157.973 92.536 158.703 91.736L159.703 92.664C159.266 93.16 158.741 93.5387 158.127 93.8C157.514 94.0613 156.847 94.192 156.127 94.192C155.466 94.192 154.853 94.08 154.287 93.856C153.722 93.6267 153.245 93.3173 152.855 92.928C152.471 92.5387 152.17 92.08 151.951 91.552C151.733 91.0187 151.623 90.4533 151.623 89.856C151.623 89.264 151.733 88.7013 151.951 88.168C152.175 87.6347 152.479 87.1733 152.863 86.784C153.253 86.3947 153.719 86.088 154.263 85.864C154.807 85.6347 155.389 85.52 156.007 85.52C156.813 85.52 157.538 85.7067 158.183 86.08C158.834 86.4533 159.338 86.9573 159.695 87.592C160.053 88.2213 160.231 88.9147 160.231 89.672C160.231 89.8853 160.207 90.0987 160.159 90.312H153.111ZM156.007 86.776C155.325 86.776 154.717 86.9973 154.183 87.44C153.65 87.8827 153.311 88.4373 153.167 89.104H158.703C158.591 88.4267 158.287 87.8693 157.791 87.432C157.295 86.9947 156.701 86.776 156.007 86.776ZM169.476 85.712V94H168.02V90.368H163.452V94H161.996V85.712H163.452V89.064H168.02V85.712H169.476ZM179.289 85.712V94H177.881V87.76L173.193 94H171.809V85.712H173.217V91.952L177.905 85.712H179.289ZM186.573 91.072H184.933L182.621 94H181.005L183.413 90.968C182.757 90.808 182.226 90.4933 181.821 90.024C181.416 89.5547 181.213 89.0107 181.213 88.392C181.213 87.6347 181.509 87 182.101 86.488C182.698 85.9707 183.434 85.712 184.309 85.712H188.029V94H186.573V91.072ZM184.357 89.816H186.573V86.968H184.357C183.877 86.968 183.474 87.104 183.149 87.376C182.829 87.648 182.669 87.9867 182.669 88.392C182.669 88.8027 182.829 89.144 183.149 89.416C183.474 89.6827 183.877 89.816 184.357 89.816ZM45.148 105.712V114H43.74V107.76L39.052 114H37.668V105.712H39.076V111.952L43.764 105.712H45.148ZM53.5745 105.712L56.4625 110.08L59.3505 105.712H60.6945V114H59.2865V107.944L56.9025 111.496H56.0225L53.6385 107.944V114H52.2305V105.712H53.5745ZM66.9314 112.888C67.5127 112.888 68.0407 112.739 68.5154 112.44C68.9954 112.141 69.3607 111.744 69.6114 111.248V108.488C69.3607 107.987 68.9954 107.584 68.5154 107.28C68.0407 106.976 67.5127 106.824 66.9314 106.824C66.0887 106.824 65.3767 107.12 64.7954 107.712C64.2194 108.299 63.9314 109.013 63.9314 109.856C63.9314 110.699 64.2194 111.416 64.7954 112.008C65.3767 112.595 66.0887 112.888 66.9314 112.888ZM66.6914 105.52C67.87 105.52 68.8434 105.941 69.6114 106.784V105.712H71.0674V114H69.6114V112.928C68.8487 113.771 67.8754 114.192 66.6914 114.192C65.8914 114.192 65.1634 113.995 64.5074 113.6C63.8567 113.2 63.35 112.672 62.9874 112.016C62.63 111.355 62.4514 110.635 62.4514 109.856C62.4514 109.077 62.63 108.36 62.9874 107.704C63.35 107.043 63.8567 106.515 64.5074 106.12C65.1634 105.72 65.8914 105.52 66.6914 105.52ZM77.3064 114.192C76.4637 114.192 75.6984 113.997 75.0104 113.608C74.3224 113.219 73.7864 112.693 73.4024 112.032C73.0184 111.371 72.8264 110.645 72.8264 109.856C72.8264 109.067 73.0184 108.341 73.4024 107.68C73.7864 107.019 74.3224 106.493 75.0104 106.104C75.6984 105.715 76.4637 105.52 77.3064 105.52C78.4637 105.52 79.469 105.885 80.3224 106.616L79.5624 107.76C78.8584 107.136 78.1064 106.824 77.3064 106.824C76.4637 106.824 75.7517 107.12 75.1704 107.712C74.5944 108.299 74.3064 109.013 74.3064 109.856C74.3064 110.699 74.5944 111.416 75.1704 112.008C75.7517 112.595 76.4637 112.888 77.3064 112.888C78.1704 112.888 78.941 112.555 79.6184 111.888L80.4744 112.952C79.621 113.779 78.565 114.192 77.3064 114.192ZM92.4556 105.712V114H82.1836V105.712H83.6396V112.696H86.5916V105.712H88.0476V112.696H90.9996V105.712H92.4556ZM96.657 107.016H93.985V105.712H100.785V107.016H98.113V114H96.657V107.016ZM106.135 112.888C106.716 112.888 107.244 112.739 107.719 112.44C108.199 112.141 108.564 111.744 108.815 111.248V108.488C108.564 107.987 108.199 107.584 107.719 107.28C107.244 106.976 106.716 106.824 106.135 106.824C105.292 106.824 104.58 107.12 103.999 107.712C103.423 108.299 103.135 109.013 103.135 109.856C103.135 110.699 103.423 111.416 103.999 112.008C104.58 112.595 105.292 112.888 106.135 112.888ZM105.895 105.52C107.073 105.52 108.047 105.941 108.815 106.784V105.712H110.271V114H108.815V112.928C108.052 113.771 107.079 114.192 105.895 114.192C105.095 114.192 104.367 113.995 103.711 113.6C103.06 113.2 102.553 112.672 102.191 112.016C101.833 111.355 101.655 110.635 101.655 109.856C101.655 109.077 101.833 108.36 102.191 107.704C102.553 107.043 103.06 106.515 103.711 106.12C104.367 105.72 105.095 105.52 105.895 105.52ZM113.766 107.776C114.118 107.365 114.544 107.04 115.046 106.8C115.552 106.555 116.096 106.432 116.678 106.432C117.771 106.432 118.694 106.808 119.446 107.56C120.198 108.307 120.574 109.224 120.574 110.312C120.574 111.427 120.179 112.352 119.39 113.088C118.6 113.824 117.598 114.192 116.382 114.192C115.15 114.192 114.142 113.776 113.358 112.944C112.579 112.112 112.19 110.965 112.19 109.504C112.19 108.485 112.259 107.605 112.398 106.864C112.536 106.123 112.752 105.475 113.046 104.92C113.339 104.365 113.734 103.912 114.23 103.56C114.731 103.203 115.32 102.925 115.998 102.728C116.68 102.525 117.496 102.389 118.446 102.32L118.654 103.624C117.902 103.693 117.262 103.795 116.734 103.928C116.206 104.061 115.758 104.229 115.39 104.432C115.027 104.635 114.734 104.899 114.51 105.224C114.291 105.549 114.123 105.912 114.006 106.312C113.894 106.712 113.814 107.2 113.766 107.776ZM113.67 109.4C113.67 110.483 113.915 111.336 114.406 111.96C114.896 112.579 115.555 112.888 116.382 112.888C117.155 112.888 117.8 112.643 118.318 112.152C118.835 111.656 119.094 111.043 119.094 110.312C119.094 109.587 118.838 108.976 118.326 108.48C117.819 107.984 117.198 107.736 116.462 107.736C115.891 107.736 115.368 107.888 114.894 108.192C114.419 108.491 114.011 108.893 113.67 109.4ZM129.82 105.712V114H128.412V107.76L123.724 114H122.34V105.712H123.748V111.952L128.436 105.712H129.82ZM136.288 112.888C137.131 112.888 137.84 112.595 138.416 112.008C138.998 111.416 139.288 110.699 139.288 109.856C139.288 109.013 138.998 108.299 138.416 107.712C137.84 107.12 137.131 106.824 136.288 106.824C135.707 106.824 135.176 106.976 134.696 107.28C134.222 107.584 133.859 107.987 133.608 108.488V111.248C133.859 111.744 134.222 112.141 134.696 112.44C135.176 112.739 135.707 112.888 136.288 112.888ZM136.528 105.52C137.328 105.52 138.054 105.72 138.704 106.12C139.36 106.515 139.867 107.043 140.224 107.704C140.587 108.36 140.768 109.077 140.768 109.856C140.768 110.635 140.587 111.355 140.224 112.016C139.867 112.672 139.36 113.2 138.704 113.6C138.054 113.995 137.328 114.192 136.528 114.192C135.344 114.192 134.371 113.771 133.608 112.928V117.712H132.152V105.712H133.608V106.784C134.376 105.941 135.35 105.52 136.528 105.52ZM144.295 112.008C144.877 112.595 145.589 112.888 146.431 112.888C147.274 112.888 147.983 112.595 148.559 112.008C149.141 111.416 149.431 110.699 149.431 109.856C149.431 109.013 149.141 108.299 148.559 107.712C147.983 107.12 147.274 106.824 146.431 106.824C145.589 106.824 144.877 107.12 144.295 107.712C143.719 108.299 143.431 109.013 143.431 109.856C143.431 110.699 143.719 111.416 144.295 112.008ZM144.135 106.104C144.823 105.715 145.589 105.52 146.431 105.52C147.274 105.52 148.039 105.715 148.727 106.104C149.415 106.493 149.951 107.019 150.335 107.68C150.719 108.341 150.911 109.067 150.911 109.856C150.911 110.645 150.719 111.371 150.335 112.032C149.951 112.693 149.415 113.219 148.727 113.608C148.039 113.997 147.274 114.192 146.431 114.192C145.589 114.192 144.823 113.997 144.135 113.608C143.447 113.219 142.911 112.693 142.527 112.032C142.143 111.371 141.951 110.645 141.951 109.856C141.951 109.067 142.143 108.341 142.527 107.68C142.911 107.019 143.447 106.493 144.135 106.104ZM156.172 114H152.668V105.712H155.924C156.681 105.712 157.316 105.923 157.828 106.344C158.345 106.765 158.604 107.285 158.604 107.904C158.604 108.288 158.489 108.637 158.26 108.952C158.031 109.267 157.732 109.496 157.364 109.64C157.823 109.747 158.207 109.992 158.516 110.376C158.831 110.76 158.988 111.187 158.988 111.656C158.988 112.317 158.716 112.875 158.172 113.328C157.633 113.776 156.967 114 156.172 114ZM154.124 109.128H155.828C156.207 109.128 156.521 109.027 156.772 108.824C157.023 108.616 157.148 108.357 157.148 108.048C157.148 107.739 157.023 107.483 156.772 107.28C156.521 107.072 156.207 106.968 155.828 106.968H154.124V109.128ZM154.124 112.744H156.1C156.505 112.744 156.844 112.629 157.116 112.4C157.393 112.171 157.532 111.888 157.532 111.552C157.532 111.211 157.393 110.923 157.116 110.688C156.844 110.453 156.505 110.336 156.1 110.336H154.124V112.744ZM164.822 112.888C165.403 112.888 165.931 112.739 166.406 112.44C166.886 112.141 167.251 111.744 167.502 111.248V108.488C167.251 107.987 166.886 107.584 166.406 107.28C165.931 106.976 165.403 106.824 164.822 106.824C163.979 106.824 163.267 107.12 162.686 107.712C162.11 108.299 161.822 109.013 161.822 109.856C161.822 110.699 162.11 111.416 162.686 112.008C163.267 112.595 163.979 112.888 164.822 112.888ZM164.582 105.52C165.761 105.52 166.734 105.941 167.502 106.784V105.712H168.958V114H167.502V112.928C166.739 113.771 165.766 114.192 164.582 114.192C163.782 114.192 163.054 113.995 162.398 113.6C161.747 113.2 161.241 112.672 160.878 112.016C160.521 111.355 160.342 110.635 160.342 109.856C160.342 109.077 160.521 108.36 160.878 107.704C161.241 107.043 161.747 106.515 162.398 106.12C163.054 105.72 163.782 105.52 164.582 105.52ZM178.773 105.712V114H177.317V110.368H172.749V114H171.293V105.712H172.749V109.064H177.317V105.712H178.773ZM188.586 105.712V114H187.178V107.76L182.49 114H181.106V105.712H182.514V111.952L187.202 105.712H188.586ZM195.87 111.072H194.23L191.918 114H190.302L192.71 110.968C192.054 110.808 191.523 110.493 191.118 110.024C190.713 109.555 190.51 109.011 190.51 108.392C190.51 107.635 190.806 107 191.398 106.488C191.995 105.971 192.731 105.712 193.606 105.712H197.326V114H195.87V111.072ZM193.654 109.816H195.87V106.968H193.654C193.174 106.968 192.771 107.104 192.446 107.376C192.126 107.648 191.966 107.987 191.966 108.392C191.966 108.803 192.126 109.144 192.446 109.416C192.771 109.683 193.174 109.816 193.654 109.816Z" fill="white"/>
<defs>
<clipPath id="clip0_3828_125658">
<rect width="40" height="40" fill="white" transform="translate(97.5)"/>
</clipPath>
</defs>
</svg>
