<svg width="60" height="60" viewBox="0 0 60 60" fill="none" xmlns="http://www.w3.org/2000/svg">
<path d="M10.2215 8.67808C10.4336 8.18025 10.7874 7.75576 11.2389 7.4574C11.6904 7.15904 12.2196 6.99998 12.7607 7H47.7207C48.4527 7 49.1547 7.29078 49.6723 7.80839C50.1899 8.32599 50.4807 9.028 50.4807 9.76C50.4807 10.492 50.1899 11.194 49.6723 11.7116C49.1547 12.2292 48.4527 12.52 47.7207 12.52H19.2375L33.6447 27.5344C34.1283 28.0388 34.4025 28.7079 34.412 29.4066C34.4216 30.1053 34.1658 30.7816 33.6962 31.299L18.9983 47.48H47.7207C48.4527 47.48 49.1547 47.7708 49.6723 48.2884C50.1899 48.806 50.4807 49.508 50.4807 50.24C50.4807 50.972 50.1899 51.674 49.6723 52.1916C49.1547 52.7092 48.4527 53 47.7207 53H12.7607C12.2264 52.9997 11.7036 52.8443 11.2558 52.5527C10.8081 52.261 10.4546 51.8457 10.2384 51.357C10.0221 50.8684 9.95235 50.3275 10.0375 49.8C10.1227 49.2724 10.3592 48.781 10.7183 48.3853L27.8782 29.4958L10.7662 11.6699C10.3923 11.2794 10.1415 10.7876 10.0446 10.2558C9.9478 9.7239 10.0093 9.1753 10.2215 8.67808Z" fill="#CF000C"/>
</svg>
