<svg width="60" height="60" viewBox="0 0 60 60" fill="none" xmlns="http://www.w3.org/2000/svg">
<path d="M18.4822 12.4822C18.0134 12.9511 17.75 13.587 17.75 14.25C17.75 14.913 18.0134 15.5489 18.4822 16.0178C18.9511 16.4866 19.587 16.75 20.25 16.75H51.75C52.413 16.75 53.0489 16.4866 53.5178 16.0178C53.9866 15.5489 54.25 14.913 54.25 14.25C54.25 13.587 53.9866 12.9511 53.5178 12.4822C53.0489 12.0134 52.413 11.75 51.75 11.75H20.25C19.587 11.75 18.9511 12.0134 18.4822 12.4822ZM21.4822 42.4822C21.0134 42.9511 20.75 43.587 20.75 44.25C20.75 44.913 21.0134 45.5489 21.4822 46.0178C21.9511 46.4866 22.587 46.75 23.25 46.75H51.75C52.413 46.75 53.0489 46.4866 53.5178 46.0178C53.9866 45.5489 54.25 44.913 54.25 44.25C54.25 43.587 53.9866 42.9511 53.5178 42.4822C53.0489 42.0134 52.413 41.75 51.75 41.75H23.25C22.587 41.75 21.9511 42.0134 21.4822 42.4822ZM8.25 26.75C7.58696 26.75 6.95107 27.0134 6.48223 27.4822C6.01339 27.9511 5.75 28.587 5.75 29.25C5.75 29.913 6.01339 30.5489 6.48223 31.0178C6.95107 31.4866 7.58696 31.75 8.25 31.75H51.75C52.413 31.75 53.0489 31.4866 53.5178 31.0178C53.9866 30.5489 54.25 29.913 54.25 29.25C54.25 28.587 53.9866 27.9511 53.5178 27.4822C53.0489 27.0134 52.413 26.75 51.75 26.75H8.25Z" fill="#CF000C" stroke="#CF000C" stroke-width="0.5"/>
</svg>
