<svg width="60" height="60" viewBox="0 0 60 60" fill="none" xmlns="http://www.w3.org/2000/svg">
<path d="M15.4419 52.549L38.4856 7.45098H44.5581L21.5144 52.549H15.4419ZM7.32391 26.3277C5.10797 24.1158 4 21.4421 4 18.3067C4 15.1713 5.10797 12.5084 7.32391 10.3179C9.56116 8.10597 12.3524 7 15.6976 7C19.0428 7 21.8234 8.10597 24.0393 10.3179C26.2766 12.5084 27.3952 15.1713 27.3952 18.3067C27.3952 21.4421 26.2766 24.1158 24.0393 26.3277C21.8234 28.5182 19.0428 29.6134 15.6976 29.6134C12.3524 29.6134 9.56116 28.5182 7.32391 26.3277ZM11.351 13.8613C10.2217 15.1284 9.65704 16.6102 9.65704 18.3067C9.65704 20.0033 10.2217 21.4851 11.351 22.7521C12.4802 24.0191 13.9291 24.6527 15.6976 24.6527C17.4661 24.6527 18.915 24.0191 20.0443 22.7521C21.1735 21.4851 21.7382 20.0033 21.7382 18.3067C21.7382 16.6102 21.1735 15.1284 20.0443 13.8613C18.915 12.5943 17.4661 11.9608 15.6976 11.9608C13.9291 11.9608 12.4802 12.5943 11.351 13.8613ZM35.9287 49.7143C33.7128 47.5023 32.6048 44.8287 32.6048 41.6933C32.6048 38.5579 33.7128 35.895 35.9287 33.7045C38.166 31.4925 40.9572 30.3866 44.3024 30.3866C47.6476 30.3866 50.4282 31.4925 52.6441 33.7045C54.8814 35.895 56 38.5579 56 41.6933C56 44.8287 54.8814 47.5023 52.6441 49.7143C50.4282 51.9048 47.6476 53 44.3024 53C40.9572 53 38.166 51.9048 35.9287 49.7143ZM39.9557 37.2479C38.8265 38.5149 38.2618 39.9967 38.2618 41.6933C38.2618 43.3898 38.8265 44.8716 39.9557 46.1387C41.085 47.4057 42.5339 48.0392 44.3024 48.0392C46.0709 48.0392 47.5198 47.4057 48.649 46.1387C49.7783 44.8716 50.343 43.3898 50.343 41.6933C50.343 39.9967 49.7783 38.5149 48.649 37.2479C47.5198 35.9809 46.0709 35.3473 44.3024 35.3473C42.5339 35.3473 41.085 35.9809 39.9557 37.2479Z" fill="#CF000C"/>
</svg>
