<svg width="60" height="60" viewBox="0 0 60 60" fill="none" xmlns="http://www.w3.org/2000/svg">
<path d="M18.6313 53V7H30.8002C36.4531 7 40.6388 8.13819 43.3574 10.4146C46.1191 12.6909 47.5 15.9981 47.5 20.3361C47.5 23.2568 46.8311 25.7694 45.4934 27.8739C44.1557 29.9356 42.1707 31.5247 39.5385 32.6415C36.9493 33.7582 33.7345 34.3165 29.894 34.3165H24.4568V53H18.6313ZM13 44.2381V40.0504H35.137V44.2381H13ZM13 34.3165V29.4202H27.8227V34.3165H13ZM29.0525 29.4202C31.6848 29.4202 33.9071 29.141 35.7195 28.5826C37.575 28.0243 38.9991 27.1008 39.9916 25.8123C40.9841 24.5238 41.4803 22.7628 41.4803 20.5294C41.4803 17.6088 40.5741 15.4398 38.7617 14.0224C36.9493 12.605 34.1229 11.8964 30.2824 11.8964H24.4568V29.4202H29.0525Z" fill="#CF000C"/>
</svg>
